CrimsonText-Regular jlb 10-Regular_Sup_LCUP.ufo
<glyph name="exclam" format="1">
  <advance width="144"/>
  <unicode hex="0021"/>
  <outline>
    <contour>
      <point x="71" y="95" type="curve" smooth="yes"/>
      <point x="77" y="95"/>
      <point x="81" y="100"/>
      <point x="83" y="112" type="curve"/>
      <point x="88" y="174"/>
      <point x="103" y="329"/>
      <point x="103" y="367" type="curve" smooth="yes"/>
      <point x="103" y="390"/>
      <point x="88" y="403"/>
      <point x="72" y="403" type="curve" smooth="yes"/>
      <point x="54" y="403"/>
      <point x="41" y="390"/>
      <point x="41" y="367" type="curve" smooth="yes"/>
      <point x="41" y="329"/>
      <point x="54" y="174"/>
      <point x="60" y="111" type="curve" smooth="yes"/>
      <point x="61" y="100"/>
      <point x="65" y="95"/>
    </contour>
    <contour>
      <point x="72" y="-9" type="curve" smooth="yes"/>
      <point x="93" y="-9"/>
      <point x="109" y="9"/>
      <point x="109" y="29" type="curve" smooth="yes"/>
      <point x="109" y="49"/>
      <point x="93" y="66"/>
      <point x="72" y="66" type="curve" smooth="yes"/>
      <point x="51" y="66"/>
      <point x="35" y="49"/>
      <point x="35" y="29" type="curve" smooth="yes"/>
      <point x="35" y="9"/>
      <point x="51" y="-9"/>
    </contour>
  </outline>
</glyph>
<glyph name="quotedbl" format="1">
  <advance width="215"/>
  <unicode hex="0022"/>
  <outline>
    <contour>
      <point x="157" y="270" type="curve" smooth="yes"/>
      <point x="164" y="270"/>
      <point x="167" y="273"/>
      <point x="168" y="280" type="curve"/>
      <point x="172" y="322"/>
      <point x="191" y="370"/>
      <point x="191" y="401" type="curve" smooth="yes"/>
      <point x="191" y="426"/>
      <point x="175" y="438"/>
      <point x="157" y="438" type="curve" smooth="yes"/>
      <point x="139" y="438"/>
      <point x="123" y="426"/>
      <point x="123" y="401" type="curve" smooth="yes"/>
      <point x="123" y="370"/>
      <point x="142" y="322"/>
      <point x="147" y="280" type="curve"/>
      <point x="147" y="273"/>
      <point x="151" y="270"/>
    </contour>
    <contour>
      <point x="58" y="270" type="curve" smooth="yes"/>
      <point x="65" y="270"/>
      <point x="68" y="273"/>
      <point x="69" y="280" type="curve"/>
      <point x="72" y="322"/>
      <point x="92" y="370"/>
      <point x="92" y="401" type="curve" smooth="yes"/>
      <point x="92" y="426"/>
      <point x="76" y="438"/>
      <point x="58" y="438" type="curve" smooth="yes"/>
      <point x="40" y="438"/>
      <point x="24" y="426"/>
      <point x="24" y="401" type="curve" smooth="yes"/>
      <point x="24" y="370"/>
      <point x="44" y="322"/>
      <point x="48" y="280" type="curve"/>
      <point x="48" y="273"/>
      <point x="52" y="270"/>
    </contour>
  </outline>
</glyph>
<glyph name="numbersign" format="1">
  <advance width="296"/>
  <unicode hex="0023"/>
  <outline>
    <contour>
      <point x="156" y="0" type="line"/>
      <point x="191" y="0" type="line"/>
      <point x="241" y="335" type="line"/>
      <point x="206" y="335" type="line"/>
    </contour>
    <contour>
      <point x="54" y="0" type="line"/>
      <point x="89" y="0" type="line"/>
      <point x="139" y="335" type="line"/>
      <point x="104" y="335" type="line"/>
    </contour>
    <contour>
      <point x="18" y="107" type="line"/>
      <point x="279" y="107" type="line"/>
      <point x="279" y="140" type="line"/>
      <point x="18" y="140" type="line"/>
    </contour>
    <contour>
      <point x="18" y="204" type="line"/>
      <point x="279" y="204" type="line"/>
      <point x="279" y="237" type="line"/>
      <point x="18" y="237" type="line"/>
    </contour>
  </outline>
</glyph>
<glyph name="percent" format="1">
  <advance width="438"/>
  <unicode hex="0025"/>
  <outline>
    <contour>
      <point x="46" y="0" type="line"/>
      <point x="81" y="0" type="line"/>
      <point x="392" y="401" type="line"/>
      <point x="357" y="401" type="line"/>
    </contour>
    <contour>
      <point x="314" y="-4" type="curve" smooth="yes"/>
      <point x="368" y="-4"/>
      <point x="407" y="39"/>
      <point x="407" y="97" type="curve" smooth="yes"/>
      <point x="407" y="152"/>
      <point x="365" y="197"/>
      <point x="314" y="197" type="curve" smooth="yes"/>
      <point x="261" y="197"/>
      <point x="221" y="154"/>
      <point x="221" y="97" type="curve" smooth="yes"/>
      <point x="221" y="39"/>
      <point x="260" y="-4"/>
    </contour>
    <contour>
      <point x="318" y="17" type="curve" smooth="yes"/>
      <point x="289" y="17"/>
      <point x="264" y="56"/>
      <point x="264" y="104" type="curve" smooth="yes"/>
      <point x="264" y="146"/>
      <point x="279" y="176"/>
      <point x="310" y="176" type="curve" smooth="yes"/>
      <point x="340" y="176"/>
      <point x="365" y="137"/>
      <point x="365" y="91" type="curve" smooth="yes"/>
      <point x="365" y="48"/>
      <point x="348" y="17"/>
    </contour>
    <contour>
      <point x="124" y="203" type="curve" smooth="yes"/>
      <point x="178" y="203"/>
      <point x="217" y="247"/>
      <point x="217" y="304" type="curve" smooth="yes"/>
      <point x="217" y="359"/>
      <point x="175" y="404"/>
      <point x="124" y="404" type="curve" smooth="yes"/>
      <point x="71" y="404"/>
      <point x="31" y="361"/>
      <point x="31" y="304" type="curve" smooth="yes"/>
      <point x="31" y="247"/>
      <point x="70" y="203"/>
    </contour>
    <contour>
      <point x="128" y="224" type="curve" smooth="yes"/>
      <point x="99" y="224"/>
      <point x="74" y="263"/>
      <point x="74" y="311" type="curve" smooth="yes"/>
      <point x="74" y="354"/>
      <point x="89" y="384"/>
      <point x="120" y="384" type="curve" smooth="yes"/>
      <point x="149" y="384"/>
      <point x="175" y="344"/>
      <point x="175" y="298" type="curve" smooth="yes"/>
      <point x="175" y="255"/>
      <point x="158" y="224"/>
    </contour>
  </outline>
</glyph>
<glyph name="ampersand" format="1">
  <advance width="427"/>
  <unicode hex="0026"/>
  <outline>
    <contour>
      <point x="157" y="-2" type="curve" smooth="yes"/>
      <point x="235" y="-2"/>
      <point x="299" y="37"/>
      <point x="371" y="171" type="curve"/>
      <point x="374" y="176"/>
      <point x="398" y="181"/>
      <point x="414" y="181" type="curve" smooth="yes"/>
      <point x="417" y="181"/>
      <point x="418" y="184"/>
      <point x="418" y="191" type="curve" smooth="yes"/>
      <point x="418" y="195"/>
      <point x="417" y="198"/>
      <point x="415" y="200" type="curve"/>
      <point x="357" y="198" type="line" smooth="yes"/>
      <point x="341" y="198"/>
      <point x="311" y="198"/>
      <point x="294" y="199" type="curve"/>
      <point x="292" y="196"/>
      <point x="292" y="193"/>
      <point x="292" y="189" type="curve" smooth="yes"/>
      <point x="292" y="187"/>
      <point x="292" y="182"/>
      <point x="293" y="180" type="curve"/>
      <point x="315" y="180"/>
      <point x="323" y="178"/>
      <point x="323" y="170" type="curve" smooth="yes"/>
      <point x="323" y="141"/>
      <point x="301" y="107"/>
      <point x="273" y="75" type="curve" smooth="yes"/>
      <point x="244" y="43"/>
      <point x="208" y="27"/>
      <point x="168" y="27" type="curve" smooth="yes"/>
      <point x="125" y="27"/>
      <point x="90" y="58"/>
      <point x="90" y="109" type="curve" smooth="yes"/>
      <point x="90" y="146"/>
      <point x="109" y="172"/>
      <point x="161" y="202" type="curve" smooth="yes"/>
      <point x="257" y="257"/>
      <point x="287" y="289"/>
      <point x="287" y="334" type="curve" smooth="yes"/>
      <point x="287" y="385"/>
      <point x="252" y="416"/>
      <point x="197" y="416" type="curve" smooth="yes"/>
      <point x="142" y="416"/>
      <point x="100" y="374"/>
      <point x="100" y="318" type="curve" smooth="yes"/>
      <point x="100" y="281"/>
      <point x="109" y="253"/>
      <point x="177" y="154" type="curve" smooth="yes"/>
      <point x="253" y="47"/>
      <point x="300" y="0"/>
      <point x="349" y="0" type="curve" smooth="yes"/>
      <point x="376" y="0"/>
      <point x="407" y="19"/>
      <point x="421" y="48" type="curve"/>
      <point x="421" y="53"/>
      <point x="412" y="60"/>
      <point x="406" y="60" type="curve"/>
      <point x="395" y="41"/>
      <point x="380" y="34"/>
      <point x="366" y="34" type="curve" smooth="yes"/>
      <point x="341" y="34"/>
      <point x="295" y="74"/>
      <point x="215" y="187" type="curve" smooth="yes"/>
      <point x="168" y="254"/>
      <point x="149" y="299"/>
      <point x="149" y="335" type="curve" smooth="yes"/>
      <point x="149" y="367"/>
      <point x="166" y="391"/>
      <point x="193" y="391" type="curve" smooth="yes"/>
      <point x="221" y="391"/>
      <point x="242" y="366"/>
      <point x="242" y="333" type="curve" smooth="yes"/>
      <point x="242" y="284"/>
      <point x="222" y="261"/>
      <point x="146" y="224" type="curve" smooth="yes"/>
      <point x="64" y="183"/>
      <point x="33" y="149"/>
      <point x="33" y="99" type="curve" smooth="yes"/>
      <point x="33" y="37"/>
      <point x="80" y="-2"/>
    </contour>
  </outline>
</glyph>
<glyph name="parenleft" format="1">
  <advance width="202"/>
  <unicode hex="0028"/>
  <outline>
    <contour>
      <point x="166" y="-78" type="curve"/>
      <point x="176" y="-63" type="line"/>
      <point x="124" y="-28"/>
      <point x="86" y="81"/>
      <point x="86" y="196" type="curve" smooth="yes"/>
      <point x="86" y="311"/>
      <point x="124" y="420"/>
      <point x="176" y="455" type="curve"/>
      <point x="166" y="470" type="line"/>
      <point x="97" y="436"/>
      <point x="42" y="313"/>
      <point x="42" y="196" type="curve" smooth="yes"/>
      <point x="42" y="79"/>
      <point x="97" y="-44"/>
    </contour>
  </outline>
</glyph>
<glyph name="parenright" format="1">
  <advance width="202"/>
  <unicode hex="0029"/>
  <outline>
    <contour>
      <point x="36" y="-78" type="line"/>
      <point x="106" y="-44"/>
      <point x="160" y="79"/>
      <point x="160" y="196" type="curve" smooth="yes"/>
      <point x="160" y="313"/>
      <point x="106" y="436"/>
      <point x="36" y="470" type="curve"/>
      <point x="26" y="455" type="line"/>
      <point x="79" y="420"/>
      <point x="116" y="311"/>
      <point x="116" y="196" type="curve" smooth="yes"/>
      <point x="116" y="81"/>
      <point x="79" y="-28"/>
      <point x="26" y="-63" type="curve"/>
    </contour>
  </outline>
</glyph>
<glyph name="asterisk" format="1">
  <advance width="278"/>
  <unicode hex="002A"/>
  <outline>
    <contour>
      <point x="128" y="186" type="curve" smooth="yes"/>
      <point x="143" y="186"/>
      <point x="151" y="199"/>
      <point x="151" y="226" type="curve" smooth="yes"/>
      <point x="151" y="236"/>
      <point x="147" y="271"/>
      <point x="147" y="279" type="curve" smooth="yes"/>
      <point x="147" y="287"/>
      <point x="149" y="291"/>
      <point x="153" y="291" type="curve" smooth="yes"/>
      <point x="159" y="291"/>
      <point x="173" y="281"/>
      <point x="187" y="267" type="curve" smooth="yes"/>
      <point x="206" y="249"/>
      <point x="222" y="239"/>
      <point x="233" y="239" type="curve" smooth="yes"/>
      <point x="244" y="239"/>
      <point x="254" y="249"/>
      <point x="254" y="259" type="curve" smooth="yes"/>
      <point x="254" y="269"/>
      <point x="246" y="277"/>
      <point x="235" y="282" type="curve" smooth="yes"/>
      <point x="221" y="288"/>
      <point x="209" y="291"/>
      <point x="199" y="293" type="curve" smooth="yes"/>
      <point x="173" y="298"/>
      <point x="161" y="303"/>
      <point x="161" y="309" type="curve" smooth="yes"/>
      <point x="161" y="316"/>
      <point x="168" y="322"/>
      <point x="194" y="336" type="curve" smooth="yes"/>
      <point x="223" y="351"/>
      <point x="235" y="363"/>
      <point x="235" y="377" type="curve" smooth="yes"/>
      <point x="235" y="389"/>
      <point x="226" y="398"/>
      <point x="216" y="398" type="curve" smooth="yes"/>
      <point x="208" y="398"/>
      <point x="200" y="393"/>
      <point x="193" y="385" type="curve" smooth="yes"/>
      <point x="186" y="377"/>
      <point x="180" y="368"/>
      <point x="172" y="354" type="curve" smooth="yes"/>
      <point x="165" y="341"/>
      <point x="159" y="332"/>
      <point x="154" y="326" type="curve"/>
      <point x="152" y="324"/>
      <point x="149" y="322"/>
      <point x="148" y="322" type="curve" smooth="yes"/>
      <point x="145" y="322"/>
      <point x="143" y="325"/>
      <point x="140" y="329" type="curve"/>
      <point x="137" y="339"/>
      <point x="134" y="351"/>
      <point x="131" y="363" type="curve"/>
      <point x="129" y="376"/>
      <point x="125" y="388"/>
      <point x="121" y="400" type="curve"/>
      <point x="115" y="412"/>
      <point x="108" y="418"/>
      <point x="100" y="418" type="curve" smooth="yes"/>
      <point x="89" y="418"/>
      <point x="78" y="408"/>
      <point x="78" y="398" type="curve" smooth="yes"/>
      <point x="78" y="387"/>
      <point x="88" y="369"/>
      <point x="104" y="352" type="curve" smooth="yes"/>
      <point x="124" y="330"/>
      <point x="129" y="323"/>
      <point x="129" y="318" type="curve" smooth="yes"/>
      <point x="129" y="312"/>
      <point x="125" y="310"/>
      <point x="114" y="310" type="curve" smooth="yes"/>
      <point x="99" y="310"/>
      <point x="75" y="314"/>
      <point x="55" y="314" type="curve" smooth="yes"/>
      <point x="37" y="314"/>
      <point x="24" y="304"/>
      <point x="24" y="291" type="curve" smooth="yes"/>
      <point x="24" y="278"/>
      <point x="34" y="270"/>
      <point x="48" y="270" type="curve" smooth="yes"/>
      <point x="59" y="270"/>
      <point x="71" y="274"/>
      <point x="93" y="284" type="curve" smooth="yes"/>
      <point x="108" y="291"/>
      <point x="119" y="296"/>
      <point x="127" y="296" type="curve" smooth="yes"/>
      <point x="131" y="296"/>
      <point x="134" y="293"/>
      <point x="134" y="288" type="curve" smooth="yes"/>
      <point x="134" y="282"/>
      <point x="129" y="268"/>
      <point x="121" y="254" type="curve"/>
      <point x="111" y="233"/>
      <point x="107" y="220"/>
      <point x="107" y="209" type="curve" smooth="yes"/>
      <point x="107" y="196"/>
      <point x="115" y="186"/>
    </contour>
  </outline>
</glyph>
<glyph name="plus" format="1">
  <advance width="347"/>
  <unicode hex="002B"/>
  <outline>
    <contour>
      <point x="156" y="7" type="line"/>
      <point x="191" y="7" type="line"/>
      <point x="191" y="302" type="line"/>
      <point x="156" y="302" type="line"/>
    </contour>
    <contour>
      <point x="31" y="137" type="line"/>
      <point x="316" y="137" type="line"/>
      <point x="316" y="172" type="line"/>
      <point x="31" y="172" type="line"/>
    </contour>
  </outline>
</glyph>
<glyph name="comma" format="1">
  <advance width="144"/>
  <unicode hex="002C"/>
  <outline>
    <contour>
      <point x="32" y="-105" type="curve"/>
      <point x="74" y="-75"/>
      <point x="109" y="-20"/>
      <point x="109" y="20" type="curve" smooth="yes"/>
      <point x="109" y="53"/>
      <point x="93" y="67"/>
      <point x="71" y="67" type="curve" smooth="yes"/>
      <point x="51" y="67"/>
      <point x="35" y="51"/>
      <point x="35" y="28" type="curve" smooth="yes"/>
      <point x="35" y="9"/>
      <point x="49" y="-6"/>
      <point x="49" y="-29" type="curve" smooth="yes"/>
      <point x="49" y="-50"/>
      <point x="40" y="-64"/>
      <point x="16" y="-88" type="curve"/>
      <point x="16" y="-96"/>
      <point x="27" y="-105"/>
    </contour>
  </outline>
</glyph>
<glyph name="hyphen" format="1">
  <advance width="234"/>
  <unicode hex="002D"/>
  <outline>
    <contour>
      <point x="39" y="125" type="curve"/>
      <point x="194" y="132" type="line"/>
      <point x="197" y="137"/>
      <point x="199" y="149"/>
      <point x="199" y="163" type="curve" smooth="yes"/>
      <point x="199" y="168"/>
      <point x="198" y="171"/>
      <point x="195" y="172" type="curve"/>
      <point x="43" y="164" type="line"/>
      <point x="37" y="164"/>
      <point x="35" y="153"/>
      <point x="35" y="133" type="curve" smooth="yes"/>
      <point x="35" y="128"/>
      <point x="37" y="126"/>
    </contour>
  </outline>
</glyph>
<glyph name="period" format="1">
  <advance width="144"/>
  <unicode hex="002E"/>
  <outline>
    <contour>
      <point x="72" y="-9" type="curve" smooth="yes"/>
      <point x="93" y="-9"/>
      <point x="109" y="9"/>
      <point x="109" y="29" type="curve" smooth="yes"/>
      <point x="109" y="49"/>
      <point x="93" y="66"/>
      <point x="72" y="66" type="curve" smooth="yes"/>
      <point x="51" y="66"/>
      <point x="35" y="49"/>
      <point x="35" y="29" type="curve" smooth="yes"/>
      <point x="35" y="9"/>
      <point x="51" y="-9"/>
    </contour>
  </outline>
</glyph>
<glyph name="slash" format="1">
  <advance width="266"/>
  <unicode hex="002F"/>
  <outline>
    <contour>
      <point x="16" y="-18" type="line"/>
      <point x="57" y="-18" type="line"/>
      <point x="246" y="474" type="line"/>
      <point x="205" y="474" type="line"/>
    </contour>
  </outline>
</glyph>
<glyph name="one" format="1">
  <advance width="204"/>
  <unicode hex="0031"/>
  <outline>
    <contour>
      <point x="28" y="-2" type="curve"/>
      <point x="62" y="0"/>
      <point x="94" y="1"/>
      <point x="102" y="1" type="curve" smooth="yes"/>
      <point x="112" y="1"/>
      <point x="139" y="0"/>
      <point x="179" y="-2" type="curve"/>
      <point x="179" y="5" type="line" smooth="yes"/>
      <point x="179" y="13"/>
      <point x="179" y="17"/>
      <point x="177" y="17" type="curve" smooth="yes"/>
      <point x="169" y="17"/>
      <point x="137" y="24"/>
      <point x="135" y="29" type="curve"/>
      <point x="132" y="43"/>
      <point x="130" y="61"/>
      <point x="130" y="84" type="curve" smooth="yes"/>
      <point x="130" y="332" type="line" smooth="yes"/>
      <point x="130" y="358"/>
      <point x="132" y="378"/>
      <point x="137" y="391" type="curve"/>
      <point x="135" y="399"/>
      <point x="132" y="403"/>
      <point x="129" y="403" type="curve" smooth="yes"/>
      <point x="127" y="403" type="line"/>
      <point x="105" y="389"/>
      <point x="62" y="361"/>
      <point x="16" y="330" type="curve"/>
      <point x="15" y="329"/>
      <point x="15" y="328"/>
      <point x="15" y="326" type="curve" smooth="yes"/>
      <point x="15" y="321"/>
      <point x="21" y="313"/>
      <point x="26" y="310" type="curve"/>
      <point x="36" y="316"/>
      <point x="59" y="331"/>
      <point x="66" y="331" type="curve" smooth="yes"/>
      <point x="75" y="331"/>
      <point x="76" y="311"/>
      <point x="76" y="290" type="curve" smooth="yes"/>
      <point x="76" y="65" type="line" smooth="yes"/>
      <point x="76" y="52"/>
      <point x="74" y="40"/>
      <point x="72" y="30" type="curve"/>
      <point x="70" y="24"/>
      <point x="39" y="17"/>
      <point x="28" y="17" type="curve" smooth="yes"/>
      <point x="26" y="17"/>
      <point x="26" y="14"/>
      <point x="26" y="9" type="curve" smooth="yes"/>
      <point x="26" y="3"/>
      <point x="26" y="0"/>
    </contour>
  </outline>
</glyph>
<glyph name="two" format="1">
  <advance width="292"/>
  <unicode hex="0032"/>
  <outline>
    <contour>
      <point x="24" y="0" type="curve" smooth="yes"/>
      <point x="232" y="0" type="line" smooth="yes"/>
      <point x="239" y="0"/>
      <point x="243" y="3"/>
      <point x="244" y="10" type="curve"/>
      <point x="262" y="100" type="line"/>
      <point x="260" y="102"/>
      <point x="256" y="103"/>
      <point x="250" y="103" type="curve" smooth="yes"/>
      <point x="246" y="103"/>
      <point x="243" y="100"/>
      <point x="241" y="96" type="curve"/>
      <point x="230" y="57"/>
      <point x="223" y="47"/>
      <point x="199" y="47" type="curve" smooth="yes"/>
      <point x="66" y="47" type="line"/>
      <point x="63" y="39" type="line"/>
      <point x="169" y="129"/>
      <point x="239" y="233"/>
      <point x="239" y="300" type="curve" smooth="yes"/>
      <point x="239" y="359"/>
      <point x="199" y="403"/>
      <point x="147" y="403" type="curve" smooth="yes"/>
      <point x="97" y="403"/>
      <point x="38" y="359"/>
      <point x="27" y="318" type="curve"/>
      <point x="27" y="314"/>
      <point x="35" y="307"/>
      <point x="39" y="307" type="curve"/>
      <point x="60" y="341"/>
      <point x="87" y="358"/>
      <point x="121" y="358" type="curve" smooth="yes"/>
      <point x="159" y="358"/>
      <point x="182" y="331"/>
      <point x="182" y="288" type="curve" smooth="yes"/>
      <point x="182" y="226"/>
      <point x="117" y="121"/>
      <point x="17" y="19" type="curve"/>
      <point x="17" y="12"/>
      <point x="21" y="0"/>
    </contour>
  </outline>
</glyph>
<glyph name="three" format="1">
  <advance width="291"/>
  <unicode hex="0033"/>
  <outline>
    <contour>
      <point x="114" y="-3" type="curve" smooth="yes"/>
      <point x="198" y="-3"/>
      <point x="263" y="50"/>
      <point x="263" y="130" type="curve" smooth="yes"/>
      <point x="263" y="191"/>
      <point x="209" y="235"/>
      <point x="157" y="237" type="curve"/>
      <point x="155" y="229" type="line"/>
      <point x="197" y="248"/>
      <point x="227" y="281"/>
      <point x="227" y="324" type="curve" smooth="yes"/>
      <point x="227" y="371"/>
      <point x="187" y="403"/>
      <point x="144" y="403" type="curve" smooth="yes"/>
      <point x="105" y="403"/>
      <point x="76" y="384"/>
      <point x="55" y="350" type="curve"/>
      <point x="55" y="345"/>
      <point x="60" y="334"/>
      <point x="64" y="334" type="curve"/>
      <point x="85" y="358"/>
      <point x="103" y="366"/>
      <point x="124" y="366" type="curve" smooth="yes"/>
      <point x="154" y="366"/>
      <point x="178" y="340"/>
      <point x="178" y="311" type="curve" smooth="yes"/>
      <point x="178" y="260"/>
      <point x="141" y="230"/>
      <point x="84" y="220" type="curve"/>
      <point x="84" y="219"/>
      <point x="83" y="217"/>
      <point x="83" y="214" type="curve" smooth="yes"/>
      <point x="83" y="207"/>
      <point x="84" y="201"/>
      <point x="87" y="197" type="curve"/>
      <point x="99" y="200"/>
      <point x="110" y="201"/>
      <point x="124" y="201" type="curve" smooth="yes"/>
      <point x="172" y="201"/>
      <point x="206" y="163"/>
      <point x="206" y="113" type="curve" smooth="yes"/>
      <point x="206" y="51"/>
      <point x="172" y="23"/>
      <point x="135" y="23" type="curve" smooth="yes"/>
      <point x="77" y="23"/>
      <point x="74" y="64"/>
      <point x="49" y="64" type="curve" smooth="yes"/>
      <point x="35" y="64"/>
      <point x="27" y="55"/>
      <point x="27" y="38" type="curve" smooth="yes"/>
      <point x="27" y="14"/>
      <point x="57" y="-3"/>
    </contour>
  </outline>
</glyph>
<glyph name="four" format="1">
  <advance width="303"/>
  <unicode hex="0034"/>
  <outline>
    <contour>
      <point x="208" y="-4" type="curve" smooth="yes"/>
      <point x="225" y="-4"/>
      <point x="234" y="-2"/>
      <point x="236" y="0" type="curve"/>
      <point x="236" y="109" type="line"/>
      <point x="280" y="109" type="line"/>
      <point x="282" y="111"/>
      <point x="284" y="113"/>
      <point x="284" y="122" type="curve" smooth="yes"/>
      <point x="284" y="136"/>
      <point x="280" y="146"/>
      <point x="274" y="146" type="curve" smooth="yes"/>
      <point x="236" y="146" type="line"/>
      <point x="236" y="399" type="line" smooth="yes"/>
      <point x="236" y="403"/>
      <point x="233" y="405"/>
      <point x="227" y="405" type="curve" smooth="yes"/>
      <point x="222" y="405"/>
      <point x="217" y="402"/>
      <point x="213" y="397" type="curve"/>
      <point x="20" y="130" type="line"/>
      <point x="20" y="120"/>
      <point x="22" y="113"/>
      <point x="25" y="109" type="curve"/>
      <point x="184" y="109" type="line"/>
      <point x="184" y="2" type="line" smooth="yes"/>
      <point x="184" y="-2"/>
      <point x="192" y="-4"/>
    </contour>
    <contour>
      <point x="53" y="135" type="line"/>
      <point x="192" y="332" type="line"/>
      <point x="184" y="334" type="line"/>
      <point x="184" y="146" type="line"/>
      <point x="52" y="146" type="line"/>
    </contour>
  </outline>
</glyph>
<glyph name="five" format="1">
  <advance width="303"/>
  <unicode hex="0035"/>
  <outline>
    <contour>
      <point x="124" y="-3" type="curve" smooth="yes"/>
      <point x="207" y="-3"/>
      <point x="268" y="54"/>
      <point x="268" y="132" type="curve" smooth="yes"/>
      <point x="268" y="189"/>
      <point x="215" y="247"/>
      <point x="138" y="247" type="curve" smooth="yes"/>
      <point x="119" y="247"/>
      <point x="99" y="243"/>
      <point x="85" y="238" type="curve"/>
      <point x="104" y="344" type="line"/>
      <point x="101" y="342" type="line"/>
      <point x="162" y="344" type="line" smooth="yes"/>
      <point x="198" y="346"/>
      <point x="222" y="348"/>
      <point x="234" y="351" type="curve"/>
      <point x="236" y="363"/>
      <point x="238" y="375"/>
      <point x="238" y="386" type="curve" smooth="yes"/>
      <point x="238" y="392"/>
      <point x="236" y="397"/>
      <point x="234" y="400" type="curve"/>
      <point x="219" y="397"/>
      <point x="169" y="394"/>
      <point x="86" y="392" type="curve"/>
      <point x="55" y="205" type="line"/>
      <point x="59" y="201"/>
      <point x="63" y="198"/>
      <point x="66" y="196" type="curve"/>
      <point x="81" y="201"/>
      <point x="99" y="203"/>
      <point x="121" y="203" type="curve" smooth="yes"/>
      <point x="177" y="203"/>
      <point x="212" y="169"/>
      <point x="212" y="113" type="curve" smooth="yes"/>
      <point x="212" y="59"/>
      <point x="184" y="23"/>
      <point x="144" y="23" type="curve" smooth="yes"/>
      <point x="86" y="23"/>
      <point x="79" y="64"/>
      <point x="54" y="64" type="curve" smooth="yes"/>
      <point x="43" y="64"/>
      <point x="34" y="55"/>
      <point x="34" y="41" type="curve" smooth="yes"/>
      <point x="34" y="12"/>
      <point x="67" y="-3"/>
    </contour>
  </outline>
</glyph>
<glyph name="six" format="1">
  <advance width="309"/>
  <unicode hex="0036"/>
  <outline>
    <contour>
      <point x="152" y="-4" type="curve" smooth="yes"/>
      <point x="222" y="-4"/>
      <point x="281" y="55"/>
      <point x="281" y="123" type="curve" smooth="yes"/>
      <point x="281" y="185"/>
      <point x="232" y="239"/>
      <point x="177" y="239" type="curve" smooth="yes"/>
      <point x="153" y="239"/>
      <point x="115" y="226"/>
      <point x="97" y="211" type="curve"/>
      <point x="99" y="209" type="line"/>
      <point x="119" y="290"/>
      <point x="172" y="345"/>
      <point x="269" y="386" type="curve"/>
      <point x="269" y="394"/>
      <point x="262" y="406"/>
      <point x="257" y="406" type="curve"/>
      <point x="115" y="349"/>
      <point x="32" y="248"/>
      <point x="32" y="131" type="curve" smooth="yes"/>
      <point x="32" y="56"/>
      <point x="85" y="-4"/>
    </contour>
    <contour>
      <point x="159" y="21" type="curve" smooth="yes"/>
      <point x="122" y="21"/>
      <point x="88" y="71"/>
      <point x="88" y="132" type="curve"/>
      <point x="89" y="150"/>
      <point x="92" y="168"/>
      <point x="97" y="181" type="curve"/>
      <point x="103" y="195"/>
      <point x="127" y="207"/>
      <point x="147" y="207" type="curve" smooth="yes"/>
      <point x="190" y="207"/>
      <point x="226" y="169"/>
      <point x="226" y="109" type="curve" smooth="yes"/>
      <point x="226" y="59"/>
      <point x="197" y="21"/>
    </contour>
  </outline>
</glyph>
<glyph name="seven" format="1">
  <advance width="303"/>
  <unicode hex="0037"/>
  <outline>
    <contour>
      <point x="91" y="-4" type="curve" smooth="yes"/>
      <point x="94" y="-4"/>
      <point x="96" y="-3"/>
      <point x="98" y="-2" type="curve"/>
      <point x="263" y="352" type="line" smooth="yes"/>
      <point x="268" y="363"/>
      <point x="281" y="386"/>
      <point x="281" y="394" type="curve" smooth="yes"/>
      <point x="281" y="398"/>
      <point x="280" y="400"/>
      <point x="276" y="400" type="curve" smooth="yes"/>
      <point x="265" y="400"/>
      <point x="250" y="398"/>
      <point x="234" y="398" type="curve" smooth="yes"/>
      <point x="53" y="398" type="line" smooth="yes"/>
      <point x="46" y="398"/>
      <point x="43" y="395"/>
      <point x="42" y="390" type="curve"/>
      <point x="39" y="367"/>
      <point x="25" y="305"/>
      <point x="22" y="294" type="curve"/>
      <point x="25" y="293"/>
      <point x="28" y="293"/>
      <point x="32" y="293" type="curve" smooth="yes"/>
      <point x="38" y="293"/>
      <point x="43" y="294"/>
      <point x="44" y="296" type="curve"/>
      <point x="54" y="328"/>
      <point x="64" y="346"/>
      <point x="88" y="346" type="curve" smooth="yes"/>
      <point x="230" y="346" type="line"/>
      <point x="64" y="14" type="line"/>
      <point x="64" y="8"/>
      <point x="81" y="-4"/>
    </contour>
  </outline>
</glyph>
<glyph name="nine" format="1">
  <advance width="309"/>
  <unicode hex="0039"/>
  <outline>
    <contour>
      <point x="51" y="-4" type="curve"/>
      <point x="194" y="53"/>
      <point x="277" y="155"/>
      <point x="277" y="271" type="curve" smooth="yes"/>
      <point x="277" y="346"/>
      <point x="223" y="406"/>
      <point x="157" y="406" type="curve" smooth="yes"/>
      <point x="86" y="406"/>
      <point x="28" y="347"/>
      <point x="28" y="279" type="curve" smooth="yes"/>
      <point x="28" y="217"/>
      <point x="77" y="163"/>
      <point x="132" y="163" type="curve" smooth="yes"/>
      <point x="156" y="163"/>
      <point x="194" y="176"/>
      <point x="212" y="192" type="curve"/>
      <point x="210" y="193" type="line"/>
      <point x="190" y="113"/>
      <point x="137" y="57"/>
      <point x="40" y="16" type="curve"/>
      <point x="40" y="8"/>
      <point x="47" y="-3"/>
    </contour>
    <contour>
      <point x="161" y="196" type="curve" smooth="yes"/>
      <point x="119" y="196"/>
      <point x="82" y="233"/>
      <point x="82" y="294" type="curve" smooth="yes"/>
      <point x="82" y="343"/>
      <point x="111" y="381"/>
      <point x="149" y="381" type="curve" smooth="yes"/>
      <point x="187" y="381"/>
      <point x="220" y="331"/>
      <point x="220" y="271" type="curve" smooth="yes"/>
      <point x="220" y="252"/>
      <point x="217" y="234"/>
      <point x="211" y="222" type="curve"/>
      <point x="205" y="208"/>
      <point x="182" y="196"/>
    </contour>
  </outline>
</glyph>
<glyph name="colon" format="1">
  <advance width="144"/>
  <unicode hex="003A"/>
  <outline>
    <contour>
      <point x="76" y="-4" type="curve"/>
      <point x="94" y="-2"/>
      <point x="108" y="15"/>
      <point x="105" y="33" type="curve"/>
      <point x="103" y="51"/>
      <point x="86" y="64"/>
      <point x="68" y="62" type="curve" smooth="yes"/>
      <point x="50" y="60"/>
      <point x="36" y="42"/>
      <point x="39" y="25" type="curve"/>
      <point x="41" y="7"/>
      <point x="58" y="-7"/>
    </contour>
    <contour>
      <point x="76" y="204" type="curve" smooth="yes"/>
      <point x="94" y="206"/>
      <point x="108" y="223"/>
      <point x="105" y="241" type="curve"/>
      <point x="103" y="259"/>
      <point x="86" y="272"/>
      <point x="68" y="270" type="curve" smooth="yes"/>
      <point x="50" y="268"/>
      <point x="36" y="250"/>
      <point x="39" y="233" type="curve"/>
      <point x="41" y="215"/>
      <point x="58" y="202"/>
    </contour>
  </outline>
</glyph>
<glyph name="semicolon" format="1">
  <advance width="144"/>
  <unicode hex="003B"/>
  <outline>
    <contour>
      <point x="32" y="-105" type="curve"/>
      <point x="74" y="-75"/>
      <point x="109" y="-20"/>
      <point x="109" y="20" type="curve" smooth="yes"/>
      <point x="109" y="53"/>
      <point x="93" y="67"/>
      <point x="71" y="67" type="curve" smooth="yes"/>
      <point x="51" y="67"/>
      <point x="35" y="51"/>
      <point x="35" y="28" type="curve" smooth="yes"/>
      <point x="35" y="9"/>
      <point x="49" y="-6"/>
      <point x="49" y="-29" type="curve" smooth="yes"/>
      <point x="49" y="-50"/>
      <point x="40" y="-64"/>
      <point x="16" y="-88" type="curve"/>
      <point x="16" y="-96"/>
      <point x="27" y="-105"/>
    </contour>
    <contour>
      <point x="76" y="204" type="curve" smooth="yes"/>
      <point x="94" y="206"/>
      <point x="108" y="223"/>
      <point x="105" y="241" type="curve"/>
      <point x="103" y="259"/>
      <point x="86" y="272"/>
      <point x="68" y="270" type="curve" smooth="yes"/>
      <point x="50" y="268"/>
      <point x="36" y="250"/>
      <point x="39" y="233" type="curve"/>
      <point x="41" y="215"/>
      <point x="58" y="202"/>
    </contour>
  </outline>
</glyph>
<glyph name="less" format="1">
  <advance width="321"/>
  <unicode hex="003C"/>
  <outline>
    <contour>
      <point x="273" y="15" type="line"/>
      <point x="289" y="48" type="line"/>
      <point x="54" y="167" type="line"/>
      <point x="54" y="142" type="line"/>
      <point x="289" y="261" type="line"/>
      <point x="273" y="294" type="line"/>
      <point x="31" y="171" type="line"/>
      <point x="31" y="138" type="line"/>
    </contour>
  </outline>
</glyph>
<glyph name="equal" format="1">
  <advance width="347"/>
  <unicode hex="003D"/>
  <outline>
    <contour>
      <point x="31" y="187" type="line"/>
      <point x="316" y="187" type="line"/>
      <point x="316" y="222" type="line"/>
      <point x="31" y="222" type="line"/>
    </contour>
    <contour>
      <point x="31" y="87" type="line"/>
      <point x="316" y="87" type="line"/>
      <point x="316" y="122" type="line"/>
      <point x="31" y="122" type="line"/>
    </contour>
  </outline>
</glyph>
<glyph name="greater" format="1">
  <advance width="321"/>
  <unicode hex="003E"/>
  <outline>
    <contour>
      <point x="48" y="15" type="line"/>
      <point x="289" y="138" type="line"/>
      <point x="289" y="171" type="line"/>
      <point x="48" y="294" type="line"/>
      <point x="31" y="261" type="line"/>
      <point x="267" y="142" type="line"/>
      <point x="267" y="167" type="line"/>
      <point x="31" y="48" type="line"/>
    </contour>
  </outline>
</glyph>
<glyph name="question" format="1">
  <advance width="229"/>
  <unicode hex="003F"/>
  <outline>
    <contour>
      <point x="68" y="102" type="curve" smooth="yes"/>
      <point x="76" y="102"/>
      <point x="80" y="105"/>
      <point x="80" y="110" type="curve" smooth="yes"/>
      <point x="80" y="124"/>
      <point x="81" y="141"/>
      <point x="86" y="152" type="curve"/>
      <point x="89" y="160"/>
      <point x="102" y="171"/>
      <point x="131" y="190" type="curve" smooth="yes"/>
      <point x="175" y="219"/>
      <point x="191" y="249"/>
      <point x="191" y="288" type="curve" smooth="yes"/>
      <point x="191" y="353"/>
      <point x="123" y="403"/>
      <point x="59" y="403" type="curve" smooth="yes"/>
      <point x="34" y="403"/>
      <point x="25" y="397"/>
      <point x="25" y="380" type="curve" smooth="yes"/>
      <point x="25" y="361"/>
      <point x="37" y="348"/>
      <point x="57" y="348" type="curve" smooth="yes"/>
      <point x="65" y="348"/>
      <point x="85" y="353"/>
      <point x="99" y="353" type="curve" smooth="yes"/>
      <point x="133" y="353"/>
      <point x="155" y="332"/>
      <point x="156" y="311" type="curve" smooth="yes"/>
      <point x="158" y="280"/>
      <point x="142" y="264"/>
      <point x="88" y="230" type="curve" smooth="yes"/>
      <point x="63" y="214"/>
      <point x="54" y="193"/>
      <point x="54" y="165" type="curve" smooth="yes"/>
      <point x="54" y="154"/>
      <point x="57" y="117"/>
      <point x="59" y="107" type="curve"/>
      <point x="60" y="104"/>
      <point x="63" y="102"/>
    </contour>
    <contour>
      <point x="72" y="-9" type="curve" smooth="yes"/>
      <point x="93" y="-9"/>
      <point x="109" y="9"/>
      <point x="109" y="29" type="curve" smooth="yes"/>
      <point x="109" y="49"/>
      <point x="93" y="66"/>
      <point x="72" y="66" type="curve" smooth="yes"/>
      <point x="51" y="66"/>
      <point x="35" y="49"/>
      <point x="35" y="29" type="curve" smooth="yes"/>
      <point x="35" y="9"/>
      <point x="51" y="-9"/>
    </contour>
  </outline>
</glyph>
<glyph name="A" format="1">
  <advance width="414"/>
  <unicode hex="0041"/>
  <outline>
    <contour>
      <point x="5" y="-2" type="curve"/>
      <point x="18" y="-1"/>
      <point x="58" y="1"/>
      <point x="71" y="1" type="curve" smooth="yes"/>
      <point x="91" y="1"/>
      <point x="113" y="0"/>
      <point x="136" y="-2" type="curve"/>
      <point x="137" y="0"/>
      <point x="137" y="3"/>
      <point x="137" y="7" type="curve" smooth="yes"/>
      <point x="137" y="12"/>
      <point x="136" y="17"/>
      <point x="135" y="17" type="curve" smooth="yes"/>
      <point x="126" y="17"/>
      <point x="106" y="21"/>
      <point x="98" y="27" type="curve"/>
      <point x="95" y="29"/>
      <point x="93" y="34"/>
      <point x="93" y="39" type="curve" smooth="yes"/>
      <point x="93" y="48"/>
      <point x="96" y="63"/>
      <point x="104" y="82" type="curve" smooth="yes"/>
      <point x="131" y="151" type="line"/>
      <point x="161" y="153"/>
      <point x="189" y="154"/>
      <point x="212" y="154" type="curve" smooth="yes"/>
      <point x="229" y="154"/>
      <point x="248" y="154"/>
      <point x="263" y="153" type="curve"/>
      <point x="292" y="75" type="line" smooth="yes"/>
      <point x="296" y="65"/>
      <point x="299" y="48"/>
      <point x="299" y="38" type="curve" smooth="yes"/>
      <point x="299" y="35"/>
      <point x="298" y="31"/>
      <point x="297" y="28" type="curve"/>
      <point x="295" y="21"/>
      <point x="275" y="17"/>
      <point x="265" y="17" type="curve" smooth="yes"/>
      <point x="263" y="17"/>
      <point x="262" y="12"/>
      <point x="262" y="8" type="curve" smooth="yes"/>
      <point x="262" y="4"/>
      <point x="263" y="-1"/>
      <point x="264" y="-2" type="curve"/>
      <point x="292" y="-1"/>
      <point x="316" y="1"/>
      <point x="336" y="1" type="curve" smooth="yes"/>
      <point x="345" y="1"/>
      <point x="369" y="0"/>
      <point x="410" y="-2" type="curve"/>
      <point x="411" y="0"/>
      <point x="411" y="3"/>
      <point x="411" y="5" type="curve" smooth="yes"/>
      <point x="411" y="13"/>
      <point x="411" y="17"/>
      <point x="409" y="17" type="curve" smooth="yes"/>
      <point x="399" y="17"/>
      <point x="371" y="25"/>
      <point x="366" y="38" type="curve"/>
      <point x="361" y="49"/>
      <point x="355" y="64"/>
      <point x="347" y="84" type="curve" smooth="yes"/>
      <point x="224" y="406" type="line"/>
      <point x="222" y="413"/>
      <point x="219" y="417"/>
      <point x="213" y="417" type="curve" smooth="yes"/>
      <point x="203" y="417"/>
      <point x="197" y="411"/>
      <point x="192" y="399" type="curve" smooth="yes"/>
      <point x="70" y="86" type="line" smooth="yes"/>
      <point x="60" y="60"/>
      <point x="50" y="41"/>
      <point x="41" y="29" type="curve" smooth="yes"/>
      <point x="36" y="22"/>
      <point x="15" y="17"/>
      <point x="4" y="17" type="curve" smooth="yes"/>
      <point x="3" y="17"/>
      <point x="2" y="13"/>
      <point x="2" y="7" type="curve" smooth="yes"/>
      <point x="2" y="3"/>
      <point x="3" y="0"/>
    </contour>
    <contour>
      <point x="192" y="185" type="curve" smooth="yes"/>
      <point x="183" y="185"/>
      <point x="166" y="186"/>
      <point x="144" y="186" type="curve"/>
      <point x="209" y="353" type="line"/>
      <point x="189" y="353" type="line"/>
      <point x="251" y="187" type="line"/>
      <point x="232" y="186"/>
      <point x="210" y="185"/>
    </contour>
    <contour>
      <point x="206" y="0" type="move" name="bottom"/>
    </contour>
    <contour>
      <point x="405" y="6" type="move" name="ogonek"/>
    </contour>
    <contour>
      <point x="206" y="413" type="move" name="top"/>
    </contour>
  </outline>
</glyph>
<glyph name="B" format="1">
  <advance width="378"/>
  <unicode hex="0042"/>
  <outline>
    <contour>
      <point x="25" y="-2" type="curve"/>
      <point x="52" y="-1"/>
      <point x="78" y="0"/>
      <point x="103" y="0" type="curve" smooth="yes"/>
      <point x="183" y="0" type="line" smooth="yes"/>
      <point x="287" y="0"/>
      <point x="350" y="47"/>
      <point x="350" y="122" type="curve" smooth="yes"/>
      <point x="350" y="176"/>
      <point x="307" y="219"/>
      <point x="246" y="227" type="curve"/>
      <point x="245" y="223" type="line"/>
      <point x="294" y="240"/>
      <point x="323" y="276"/>
      <point x="323" y="320" type="curve" smooth="yes"/>
      <point x="323" y="376"/>
      <point x="273" y="413"/>
      <point x="197" y="413" type="curve" smooth="yes"/>
      <point x="163" y="413"/>
      <point x="125" y="412"/>
      <point x="102" y="412" type="curve" smooth="yes"/>
      <point x="80" y="412"/>
      <point x="58" y="413"/>
      <point x="25" y="414" type="curve"/>
      <point x="24" y="412"/>
      <point x="23" y="409"/>
      <point x="23" y="403" type="curve" smooth="yes"/>
      <point x="23" y="397"/>
      <point x="24" y="395"/>
      <point x="25" y="395" type="curve" smooth="yes"/>
      <point x="40" y="395"/>
      <point x="67" y="386"/>
      <point x="69" y="381" type="curve"/>
      <point x="72" y="371"/>
      <point x="73" y="354"/>
      <point x="73" y="327" type="curve" smooth="yes"/>
      <point x="73" y="90" type="line" smooth="yes"/>
      <point x="73" y="54"/>
      <point x="72" y="37"/>
      <point x="69" y="31" type="curve" smooth="yes"/>
      <point x="66" y="25"/>
      <point x="41" y="17"/>
      <point x="25" y="17" type="curve" smooth="yes"/>
      <point x="24" y="17"/>
      <point x="24" y="14"/>
      <point x="24" y="8" type="curve" smooth="yes"/>
      <point x="24" y="3"/>
      <point x="24" y="-1"/>
    </contour>
    <contour>
      <point x="191" y="29" type="curve" smooth="yes"/>
      <point x="144" y="29"/>
      <point x="131" y="38"/>
      <point x="131" y="68" type="curve" smooth="yes"/>
      <point x="131" y="204" type="line"/>
      <point x="142" y="206"/>
      <point x="157" y="207"/>
      <point x="172" y="207" type="curve" smooth="yes"/>
      <point x="248" y="207"/>
      <point x="287" y="172"/>
      <point x="287" y="115" type="curve" smooth="yes"/>
      <point x="287" y="59"/>
      <point x="254" y="29"/>
    </contour>
    <contour>
      <point x="171" y="234" type="curve" smooth="yes"/>
      <point x="153" y="234"/>
      <point x="143" y="235"/>
      <point x="131" y="236" type="curve"/>
      <point x="131" y="373" type="line" smooth="yes"/>
      <point x="131" y="383"/>
      <point x="141" y="386"/>
      <point x="174" y="386" type="curve" smooth="yes"/>
      <point x="230" y="386"/>
      <point x="264" y="358"/>
      <point x="264" y="309" type="curve" smooth="yes"/>
      <point x="264" y="257"/>
      <point x="236" y="234"/>
    </contour>
    <contour>
      <point x="187" y="0" type="move" name="bottom"/>
    </contour>
    <contour>
      <point x="187" y="413" type="move" name="top"/>
    </contour>
  </outline>
</glyph>
<glyph name="C" format="1">
  <advance width="418"/>
  <unicode hex="0043"/>
  <outline>
    <contour>
      <point x="254" y="-4" type="curve" smooth="yes"/>
      <point x="300" y="-4"/>
      <point x="349" y="6"/>
      <point x="380" y="24" type="curve"/>
      <point x="385" y="26"/>
      <point x="402" y="104"/>
      <point x="402" y="115" type="curve"/>
      <point x="397" y="118"/>
      <point x="390" y="120"/>
      <point x="379" y="120" type="curve"/>
      <point x="371" y="91"/>
      <point x="360" y="68"/>
      <point x="342" y="52" type="curve" smooth="yes"/>
      <point x="321" y="33"/>
      <point x="293" y="24"/>
      <point x="255" y="24" type="curve" smooth="yes"/>
      <point x="157" y="24"/>
      <point x="95" y="105"/>
      <point x="95" y="214" type="curve" smooth="yes"/>
      <point x="95" y="314"/>
      <point x="154" y="392"/>
      <point x="247" y="392" type="curve" smooth="yes"/>
      <point x="312" y="392"/>
      <point x="350" y="368"/>
      <point x="368" y="304" type="curve"/>
      <point x="372" y="302"/>
      <point x="386" y="304"/>
      <point x="390" y="308" type="curve"/>
      <point x="390" y="403" type="line"/>
      <point x="338" y="414"/>
      <point x="293" y="419"/>
      <point x="257" y="419" type="curve" smooth="yes"/>
      <point x="124" y="419"/>
      <point x="32" y="331"/>
      <point x="32" y="202" type="curve" smooth="yes"/>
      <point x="32" y="81"/>
      <point x="125" y="-4"/>
    </contour>
    <contour>
      <point x="211" y="0" type="move" name="bottom"/>
    </contour>
    <contour>
      <point x="211" y="413" type="move" name="top"/>
    </contour>
  </outline>
</glyph>
<glyph name="D" format="1">
  <advance width="459"/>
  <unicode hex="0044"/>
  <outline>
    <contour>
      <point x="25" y="-2" type="curve"/>
      <point x="51" y="-1"/>
      <point x="77" y="0"/>
      <point x="103" y="0" type="curve" smooth="yes"/>
      <point x="129" y="0"/>
      <point x="196" y="-2"/>
      <point x="210" y="-2" type="curve" smooth="yes"/>
      <point x="340" y="-2"/>
      <point x="428" y="84"/>
      <point x="428" y="211" type="curve" smooth="yes"/>
      <point x="428" y="326"/>
      <point x="338" y="413"/>
      <point x="205" y="413" type="curve" smooth="yes"/>
      <point x="102" y="412" type="line" smooth="yes"/>
      <point x="73" y="412"/>
      <point x="48" y="413"/>
      <point x="25" y="414" type="curve"/>
      <point x="24" y="412"/>
      <point x="23" y="409"/>
      <point x="23" y="403" type="curve" smooth="yes"/>
      <point x="23" y="398"/>
      <point x="24" y="395"/>
      <point x="25" y="395" type="curve" smooth="yes"/>
      <point x="40" y="395"/>
      <point x="67" y="386"/>
      <point x="69" y="381" type="curve"/>
      <point x="72" y="370"/>
      <point x="73" y="352"/>
      <point x="73" y="327" type="curve" smooth="yes"/>
      <point x="73" y="90" type="line" smooth="yes"/>
      <point x="73" y="56"/>
      <point x="72" y="37"/>
      <point x="69" y="31" type="curve" smooth="yes"/>
      <point x="66" y="25"/>
      <point x="41" y="17"/>
      <point x="25" y="17" type="curve" smooth="yes"/>
      <point x="24" y="17"/>
      <point x="24" y="13"/>
      <point x="24" y="8" type="curve" smooth="yes"/>
      <point x="24" y="3"/>
      <point x="24" y="-1"/>
    </contour>
    <contour>
      <point x="219" y="28" type="curve" smooth="yes"/>
      <point x="183" y="28"/>
      <point x="143" y="34"/>
      <point x="140" y="40" type="curve" smooth="yes"/>
      <point x="134" y="53"/>
      <point x="131" y="69"/>
      <point x="131" y="87" type="curve" smooth="yes"/>
      <point x="131" y="335" type="line" smooth="yes"/>
      <point x="131" y="354"/>
      <point x="133" y="367"/>
      <point x="139" y="375" type="curve" smooth="yes"/>
      <point x="144" y="382"/>
      <point x="169" y="385"/>
      <point x="199" y="385" type="curve" smooth="yes"/>
      <point x="307" y="385"/>
      <point x="362" y="324"/>
      <point x="362" y="212" type="curve" smooth="yes"/>
      <point x="362" y="89"/>
      <point x="314" y="28"/>
    </contour>
    <contour>
      <point x="229" y="0" type="move" name="bottom"/>
    </contour>
    <contour>
      <point x="229" y="207" type="move" name="center"/>
    </contour>
    <contour>
      <point x="139" y="207" type="move" name="stroke"/>
    </contour>
    <contour>
      <point x="229" y="413" type="move" name="top"/>
    </contour>
  </outline>
</glyph>
<glyph name="F" format="1">
  <advance width="340"/>
  <unicode hex="0046"/>
  <outline>
    <contour>
      <point x="27" y="-2" type="curve"/>
      <point x="51" y="0"/>
      <point x="76" y="1"/>
      <point x="103" y="1" type="curve" smooth="yes"/>
      <point x="111" y="1"/>
      <point x="136" y="0"/>
      <point x="178" y="-2" type="curve"/>
      <point x="179" y="1"/>
      <point x="180" y="4"/>
      <point x="180" y="7" type="curve" smooth="yes"/>
      <point x="180" y="14"/>
      <point x="179" y="17"/>
      <point x="177" y="17" type="curve" smooth="yes"/>
      <point x="164" y="17"/>
      <point x="137" y="25"/>
      <point x="136" y="30" type="curve"/>
      <point x="132" y="44"/>
      <point x="131" y="63"/>
      <point x="131" y="87" type="curve" smooth="yes"/>
      <point x="131" y="186" type="line" smooth="yes"/>
      <point x="131" y="190"/>
      <point x="146" y="192"/>
      <point x="175" y="192" type="curve" smooth="yes"/>
      <point x="213" y="192"/>
      <point x="235" y="190"/>
      <point x="241" y="186" type="curve"/>
      <point x="248" y="182"/>
      <point x="251" y="172"/>
      <point x="258" y="148" type="curve"/>
      <point x="259" y="145"/>
      <point x="262" y="143"/>
      <point x="268" y="143" type="curve" smooth="yes"/>
      <point x="273" y="143"/>
      <point x="276" y="143"/>
      <point x="278" y="145" type="curve"/>
      <point x="278" y="267" type="line"/>
      <point x="276" y="269"/>
      <point x="272" y="270"/>
      <point x="267" y="270" type="curve" smooth="yes"/>
      <point x="262" y="270"/>
      <point x="258" y="269"/>
      <point x="258" y="266" type="curve"/>
      <point x="252" y="241"/>
      <point x="248" y="231"/>
      <point x="242" y="226" type="curve"/>
      <point x="236" y="223"/>
      <point x="219" y="220"/>
      <point x="202" y="220" type="curve" smooth="yes"/>
      <point x="157" y="220" type="line" smooth="yes"/>
      <point x="139" y="220"/>
      <point x="131" y="222"/>
      <point x="131" y="224" type="curve" smooth="yes"/>
      <point x="131" y="326" type="line" smooth="yes"/>
      <point x="131" y="351"/>
      <point x="132" y="368"/>
      <point x="134" y="378" type="curve"/>
      <point x="134" y="384"/>
      <point x="153" y="387"/>
      <point x="188" y="387" type="curve" smooth="yes"/>
      <point x="228" y="387" type="line" smooth="yes"/>
      <point x="273" y="387"/>
      <point x="290" y="373"/>
      <point x="302" y="332" type="curve"/>
      <point x="303" y="329"/>
      <point x="306" y="328"/>
      <point x="311" y="328" type="curve" smooth="yes"/>
      <point x="317" y="328"/>
      <point x="321" y="329"/>
      <point x="323" y="331" type="curve"/>
      <point x="320" y="346"/>
      <point x="308" y="392"/>
      <point x="304" y="417" type="curve"/>
      <point x="281" y="417"/>
      <point x="246" y="416"/>
      <point x="200" y="415" type="curve" smooth="yes"/>
      <point x="154" y="413"/>
      <point x="121" y="412"/>
      <point x="102" y="412" type="curve" smooth="yes"/>
      <point x="74" y="412"/>
      <point x="49" y="413"/>
      <point x="25" y="414" type="curve"/>
      <point x="24" y="412"/>
      <point x="23" y="409"/>
      <point x="23" y="403" type="curve" smooth="yes"/>
      <point x="23" y="398"/>
      <point x="24" y="395"/>
      <point x="25" y="395" type="curve"/>
      <point x="41" y="394"/>
      <point x="66" y="387"/>
      <point x="69" y="381" type="curve"/>
      <point x="72" y="370"/>
      <point x="73" y="352"/>
      <point x="73" y="327" type="curve" smooth="yes"/>
      <point x="73" y="86" type="line" smooth="yes"/>
      <point x="73" y="59"/>
      <point x="72" y="41"/>
      <point x="69" y="29" type="curve"/>
      <point x="67" y="24"/>
      <point x="42" y="17"/>
      <point x="27" y="17" type="curve" smooth="yes"/>
      <point x="25" y="17"/>
      <point x="24" y="13"/>
      <point x="24" y="8" type="curve" smooth="yes"/>
      <point x="24" y="3"/>
      <point x="25" y="0"/>
    </contour>
    <contour>
      <point x="172" y="0" type="move" name="bottom"/>
    </contour>
    <contour>
      <point x="172" y="413" type="move" name="top"/>
    </contour>
  </outline>
</glyph>
<glyph name="H" format="1">
  <advance width="449"/>
  <unicode hex="0048"/>
  <outline>
    <contour>
      <point x="27" y="-2" type="curve"/>
      <point x="103" y="1" type="line"/>
      <point x="112" y="1"/>
      <point x="135" y="0"/>
      <point x="177" y="-2" type="curve"/>
      <point x="178" y="1"/>
      <point x="179" y="4"/>
      <point x="179" y="7" type="curve" smooth="yes"/>
      <point x="179" y="12"/>
      <point x="178" y="17"/>
      <point x="176" y="17" type="curve" smooth="yes"/>
      <point x="164" y="17"/>
      <point x="137" y="25"/>
      <point x="136" y="30" type="curve"/>
      <point x="132" y="44"/>
      <point x="131" y="63"/>
      <point x="131" y="87" type="curve" smooth="yes"/>
      <point x="131" y="194" type="line"/>
      <point x="133" y="196" type="line"/>
      <point x="142" y="198"/>
      <point x="168" y="199"/>
      <point x="225" y="199" type="curve" smooth="yes"/>
      <point x="248" y="199"/>
      <point x="278" y="198"/>
      <point x="317" y="197" type="curve"/>
      <point x="318" y="195" type="line"/>
      <point x="318" y="85" type="line" smooth="yes"/>
      <point x="318" y="59"/>
      <point x="317" y="41"/>
      <point x="314" y="30" type="curve"/>
      <point x="312" y="25"/>
      <point x="286" y="17"/>
      <point x="272" y="17" type="curve" smooth="yes"/>
      <point x="270" y="17"/>
      <point x="269" y="14"/>
      <point x="269" y="9" type="curve" smooth="yes"/>
      <point x="269" y="3"/>
      <point x="270" y="0"/>
      <point x="272" y="-2" type="curve"/>
      <point x="349" y="1" type="line"/>
      <point x="356" y="1"/>
      <point x="381" y="0"/>
      <point x="422" y="-2" type="curve"/>
      <point x="423" y="1"/>
      <point x="423" y="4"/>
      <point x="423" y="7" type="curve" smooth="yes"/>
      <point x="423" y="14"/>
      <point x="423" y="17"/>
      <point x="421" y="17" type="curve" smooth="yes"/>
      <point x="408" y="17"/>
      <point x="382" y="25"/>
      <point x="381" y="29" type="curve" smooth="yes"/>
      <point x="377" y="43"/>
      <point x="376" y="62"/>
      <point x="376" y="87" type="curve" smooth="yes"/>
      <point x="376" y="326" type="line" smooth="yes"/>
      <point x="376" y="351"/>
      <point x="377" y="371"/>
      <point x="381" y="384" type="curve"/>
      <point x="382" y="388"/>
      <point x="408" y="397"/>
      <point x="421" y="397" type="curve" smooth="yes"/>
      <point x="423" y="397"/>
      <point x="423" y="400"/>
      <point x="423" y="406" type="curve" smooth="yes"/>
      <point x="423" y="410"/>
      <point x="423" y="413"/>
      <point x="422" y="416" type="curve"/>
      <point x="393" y="414"/>
      <point x="362" y="412"/>
      <point x="349" y="412" type="curve" smooth="yes"/>
      <point x="335" y="412"/>
      <point x="295" y="414"/>
      <point x="272" y="416" type="curve"/>
      <point x="270" y="414"/>
      <point x="269" y="411"/>
      <point x="269" y="406" type="curve" smooth="yes"/>
      <point x="269" y="400"/>
      <point x="270" y="397"/>
      <point x="272" y="397" type="curve" smooth="yes"/>
      <point x="286" y="397"/>
      <point x="312" y="389"/>
      <point x="314" y="384" type="curve"/>
      <point x="317" y="372"/>
      <point x="318" y="354"/>
      <point x="318" y="328" type="curve" smooth="yes"/>
      <point x="318" y="233" type="line"/>
      <point x="317" y="231" type="line"/>
      <point x="279" y="230"/>
      <point x="249" y="229"/>
      <point x="225" y="229" type="curve" smooth="yes"/>
      <point x="204" y="229"/>
      <point x="173" y="230"/>
      <point x="132" y="231" type="curve"/>
      <point x="131" y="233" type="line"/>
      <point x="131" y="326" type="line" smooth="yes"/>
      <point x="131" y="350"/>
      <point x="132" y="370"/>
      <point x="136" y="384" type="curve"/>
      <point x="137" y="389"/>
      <point x="164" y="397"/>
      <point x="176" y="397" type="curve" smooth="yes"/>
      <point x="178" y="397"/>
      <point x="179" y="403"/>
      <point x="179" y="407" type="curve" smooth="yes"/>
      <point x="179" y="411"/>
      <point x="178" y="414"/>
      <point x="178" y="416" type="curve"/>
      <point x="135" y="413"/>
      <point x="112" y="412"/>
      <point x="103" y="412" type="curve" smooth="yes"/>
      <point x="92" y="412"/>
      <point x="59" y="414"/>
      <point x="27" y="416" type="curve"/>
      <point x="25" y="414"/>
      <point x="24" y="411"/>
      <point x="24" y="406" type="curve" smooth="yes"/>
      <point x="24" y="400"/>
      <point x="25" y="397"/>
      <point x="27" y="397" type="curve" smooth="yes"/>
      <point x="41" y="397"/>
      <point x="67" y="389"/>
      <point x="69" y="384" type="curve"/>
      <point x="72" y="373"/>
      <point x="73" y="354"/>
      <point x="73" y="328" type="curve" smooth="yes"/>
      <point x="73" y="85" type="line" smooth="yes"/>
      <point x="73" y="59"/>
      <point x="72" y="41"/>
      <point x="69" y="29" type="curve"/>
      <point x="67" y="24"/>
      <point x="41" y="17"/>
      <point x="27" y="17" type="curve" smooth="yes"/>
      <point x="25" y="17"/>
      <point x="24" y="13"/>
      <point x="24" y="8" type="curve" smooth="yes"/>
      <point x="24" y="3"/>
      <point x="25" y="0"/>
    </contour>
    <contour>
      <point x="224" y="0" type="move" name="bottom"/>
    </contour>
    <contour>
      <point x="224" y="313" type="move" name="stroke"/>
    </contour>
    <contour>
      <point x="224" y="413" type="move" name="top"/>
    </contour>
    <contour>
      <point x="13" y="413" type="move" name="topleft"/>
    </contour>
  </outline>
</glyph>
<glyph name="I" format="1">
  <advance width="204"/>
  <unicode hex="0049"/>
  <outline>
    <contour>
      <point x="27" y="-2" type="curve"/>
      <point x="55" y="0"/>
      <point x="88" y="1"/>
      <point x="103" y="1" type="curve" smooth="yes"/>
      <point x="123" y="1"/>
      <point x="149" y="0"/>
      <point x="177" y="-2" type="curve"/>
      <point x="178" y="1"/>
      <point x="179" y="4"/>
      <point x="179" y="7" type="curve" smooth="yes"/>
      <point x="179" y="14"/>
      <point x="178" y="17"/>
      <point x="176" y="17" type="curve" smooth="yes"/>
      <point x="168" y="17"/>
      <point x="138" y="24"/>
      <point x="136" y="29" type="curve"/>
      <point x="132" y="44"/>
      <point x="131" y="64"/>
      <point x="131" y="88" type="curve" smooth="yes"/>
      <point x="131" y="327" type="line" smooth="yes"/>
      <point x="131" y="350"/>
      <point x="132" y="370"/>
      <point x="136" y="384" type="curve"/>
      <point x="138" y="389"/>
      <point x="168" y="397"/>
      <point x="176" y="397" type="curve" smooth="yes"/>
      <point x="178" y="397"/>
      <point x="179" y="400"/>
      <point x="179" y="406" type="curve" smooth="yes"/>
      <point x="179" y="410"/>
      <point x="178" y="413"/>
      <point x="178" y="416" type="curve"/>
      <point x="140" y="414"/>
      <point x="122" y="413"/>
      <point x="103" y="413" type="curve" smooth="yes"/>
      <point x="88" y="413"/>
      <point x="62" y="414"/>
      <point x="27" y="416" type="curve"/>
      <point x="25" y="414"/>
      <point x="24" y="411"/>
      <point x="24" y="405" type="curve" smooth="yes"/>
      <point x="24" y="400"/>
      <point x="25" y="397"/>
      <point x="27" y="397" type="curve" smooth="yes"/>
      <point x="37" y="397"/>
      <point x="66" y="391"/>
      <point x="69" y="384" type="curve"/>
      <point x="72" y="373"/>
      <point x="73" y="354"/>
      <point x="73" y="328" type="curve" smooth="yes"/>
      <point x="73" y="85" type="line" smooth="yes"/>
      <point x="73" y="60"/>
      <point x="72" y="41"/>
      <point x="69" y="30" type="curve"/>
      <point x="66" y="23"/>
      <point x="37" y="17"/>
      <point x="27" y="17" type="curve" smooth="yes"/>
      <point x="25" y="17"/>
      <point x="24" y="13"/>
      <point x="24" y="8" type="curve" smooth="yes"/>
      <point x="24" y="3"/>
      <point x="25" y="0"/>
    </contour>
    <contour>
      <point x="102" y="0" type="move" name="bottom"/>
    </contour>
    <contour>
      <point x="152" y="6" type="move" name="ogonek"/>
    </contour>
    <contour>
      <point x="102" y="413" type="move" name="top"/>
    </contour>
    <contour>
      <point x="13" y="413" type="move" name="topleft"/>
    </contour>
  </outline>
</glyph>
<glyph name="J" format="1">
  <advance width="199"/>
  <unicode hex="004A"/>
  <outline>
    <contour>
      <point x="-18" y="-142" type="curve" smooth="yes"/>
      <point x="59" y="-142"/>
      <point x="129" y="-52"/>
      <point x="129" y="57" type="curve" smooth="yes"/>
      <point x="129" y="326" type="line" smooth="yes"/>
      <point x="129" y="350"/>
      <point x="131" y="370"/>
      <point x="135" y="384" type="curve"/>
      <point x="137" y="389"/>
      <point x="167" y="397"/>
      <point x="175" y="397" type="curve" smooth="yes"/>
      <point x="177" y="397"/>
      <point x="178" y="400"/>
      <point x="178" y="406" type="curve" smooth="yes"/>
      <point x="178" y="410"/>
      <point x="177" y="413"/>
      <point x="176" y="416" type="curve"/>
      <point x="156" y="414"/>
      <point x="118" y="412"/>
      <point x="102" y="412" type="curve" smooth="yes"/>
      <point x="81" y="412"/>
      <point x="40" y="415"/>
      <point x="25" y="416" type="curve"/>
      <point x="24" y="414"/>
      <point x="23" y="411"/>
      <point x="23" y="405" type="curve" smooth="yes"/>
      <point x="23" y="400"/>
      <point x="24" y="397"/>
      <point x="25" y="397" type="curve" smooth="yes"/>
      <point x="36" y="397"/>
      <point x="65" y="391"/>
      <point x="67" y="384" type="curve" smooth="yes"/>
      <point x="70" y="373"/>
      <point x="72" y="354"/>
      <point x="72" y="328" type="curve" smooth="yes"/>
      <point x="72" y="52" type="line" smooth="yes"/>
      <point x="72" y="-2"/>
      <point x="64" y="-45"/>
      <point x="53" y="-68" type="curve" smooth="yes"/>
      <point x="41" y="-92"/>
      <point x="29" y="-104"/>
      <point x="17" y="-104" type="curve" smooth="yes"/>
      <point x="11" y="-104"/>
      <point x="4" y="-99"/>
      <point x="-6" y="-90" type="curve"/>
      <point x="-16" y="-80"/>
      <point x="-28" y="-76"/>
      <point x="-36" y="-76" type="curve" smooth="yes"/>
      <point x="-56" y="-76"/>
      <point x="-71" y="-89"/>
      <point x="-71" y="-107" type="curve" smooth="yes"/>
      <point x="-71" y="-128"/>
      <point x="-53" y="-142"/>
    </contour>
    <contour>
      <point x="88" y="0" type="move" name="bottom"/>
    </contour>
    <contour>
      <point x="102" y="413" type="move" name="top"/>
    </contour>
  </outline>
</glyph>
<glyph name="K" format="1">
  <advance width="421"/>
  <unicode hex="004B"/>
  <outline>
    <contour>
      <point x="27" y="-2" type="curve"/>
      <point x="60" y="0"/>
      <point x="88" y="1"/>
      <point x="103" y="1" type="curve" smooth="yes"/>
      <point x="111" y="1"/>
      <point x="137" y="0"/>
      <point x="177" y="-2" type="curve"/>
      <point x="178" y="0"/>
      <point x="179" y="3"/>
      <point x="179" y="7" type="curve" smooth="yes"/>
      <point x="179" y="12"/>
      <point x="178" y="17"/>
      <point x="176" y="17" type="curve" smooth="yes"/>
      <point x="168" y="17"/>
      <point x="138" y="24"/>
      <point x="136" y="30" type="curve"/>
      <point x="132" y="44"/>
      <point x="131" y="63"/>
      <point x="131" y="88" type="curve" smooth="yes"/>
      <point x="131" y="194" type="line"/>
      <point x="143" y="194" type="line" smooth="yes"/>
      <point x="150" y="194"/>
      <point x="155" y="192"/>
      <point x="158" y="188" type="curve"/>
      <point x="269" y="65" type="line" smooth="yes"/>
      <point x="288" y="44"/>
      <point x="293" y="34"/>
      <point x="293" y="29" type="curve" smooth="yes"/>
      <point x="293" y="20"/>
      <point x="276" y="17"/>
      <point x="266" y="17" type="curve" smooth="yes"/>
      <point x="264" y="17"/>
      <point x="264" y="14"/>
      <point x="264" y="9" type="curve" smooth="yes"/>
      <point x="264" y="3"/>
      <point x="264" y="0"/>
      <point x="266" y="-2" type="curve"/>
      <point x="282" y="-1"/>
      <point x="327" y="1"/>
      <point x="351" y="1" type="curve" smooth="yes"/>
      <point x="362" y="1"/>
      <point x="391" y="0"/>
      <point x="431" y="-2" type="curve"/>
      <point x="432" y="0"/>
      <point x="432" y="2"/>
      <point x="432" y="5" type="curve" smooth="yes"/>
      <point x="432" y="13"/>
      <point x="431" y="17"/>
      <point x="429" y="17" type="curve" smooth="yes"/>
      <point x="414" y="17"/>
      <point x="382" y="25"/>
      <point x="365" y="43" type="curve" smooth="yes"/>
      <point x="211" y="209" type="line"/>
      <point x="207" y="214"/>
      <point x="205" y="217"/>
      <point x="205" y="220" type="curve" smooth="yes"/>
      <point x="205" y="222"/>
      <point x="206" y="225"/>
      <point x="207" y="226" type="curve"/>
      <point x="334" y="373" type="line" smooth="yes"/>
      <point x="347" y="388"/>
      <point x="366" y="396"/>
      <point x="393" y="399" type="curve"/>
      <point x="394" y="401"/>
      <point x="395" y="404"/>
      <point x="395" y="409" type="curve" smooth="yes"/>
      <point x="395" y="411"/>
      <point x="395" y="414"/>
      <point x="394" y="416" type="curve"/>
      <point x="381" y="415"/>
      <point x="348" y="412"/>
      <point x="329" y="412" type="curve" smooth="yes"/>
      <point x="316" y="412"/>
      <point x="279" y="414"/>
      <point x="260" y="416" type="curve"/>
      <point x="260" y="413"/>
      <point x="259" y="410"/>
      <point x="259" y="406" type="curve" smooth="yes"/>
      <point x="259" y="402"/>
      <point x="260" y="399"/>
      <point x="262" y="399" type="curve" smooth="yes"/>
      <point x="285" y="399"/>
      <point x="298" y="396"/>
      <point x="298" y="389" type="curve" smooth="yes"/>
      <point x="298" y="385"/>
      <point x="294" y="377"/>
      <point x="284" y="365" type="curve" smooth="yes"/>
      <point x="175" y="239" type="line"/>
      <point x="165" y="226"/>
      <point x="152" y="220"/>
      <point x="139" y="220" type="curve" smooth="yes"/>
      <point x="131" y="220" type="line"/>
      <point x="131" y="326" type="line" smooth="yes"/>
      <point x="131" y="350"/>
      <point x="132" y="370"/>
      <point x="136" y="384" type="curve"/>
      <point x="138" y="389"/>
      <point x="168" y="397"/>
      <point x="176" y="397" type="curve" smooth="yes"/>
      <point x="178" y="397"/>
      <point x="179" y="403"/>
      <point x="179" y="407" type="curve" smooth="yes"/>
      <point x="179" y="411"/>
      <point x="178" y="414"/>
      <point x="178" y="416" type="curve"/>
      <point x="157" y="414"/>
      <point x="119" y="412"/>
      <point x="103" y="412" type="curve" smooth="yes"/>
      <point x="82" y="412"/>
      <point x="41" y="415"/>
      <point x="27" y="416" type="curve"/>
      <point x="25" y="414"/>
      <point x="24" y="411"/>
      <point x="24" y="405" type="curve" smooth="yes"/>
      <point x="24" y="400"/>
      <point x="25" y="397"/>
      <point x="27" y="397" type="curve" smooth="yes"/>
      <point x="37" y="397"/>
      <point x="66" y="391"/>
      <point x="69" y="384" type="curve"/>
      <point x="72" y="373"/>
      <point x="73" y="354"/>
      <point x="73" y="328" type="curve" smooth="yes"/>
      <point x="73" y="85" type="line" smooth="yes"/>
      <point x="73" y="60"/>
      <point x="72" y="41"/>
      <point x="69" y="30" type="curve"/>
      <point x="66" y="23"/>
      <point x="37" y="17"/>
      <point x="27" y="17" type="curve" smooth="yes"/>
      <point x="25" y="17"/>
      <point x="24" y="13"/>
      <point x="24" y="8" type="curve" smooth="yes"/>
      <point x="24" y="3"/>
      <point x="25" y="0"/>
    </contour>
    <contour>
      <point x="218" y="0" type="move" name="bottom"/>
    </contour>
    <contour>
      <point x="218" y="413" type="move" name="top"/>
    </contour>
  </outline>
</glyph>
<glyph name="L" format="1">
  <advance width="352"/>
  <unicode hex="004C"/>
  <outline>
    <contour>
      <point x="317" y="-2" type="curve"/>
      <point x="319" y="11"/>
      <point x="335" y="60"/>
      <point x="351" y="102" type="curve"/>
      <point x="348" y="105"/>
      <point x="343" y="106"/>
      <point x="335" y="106" type="curve" smooth="yes"/>
      <point x="330" y="106"/>
      <point x="327" y="105"/>
      <point x="326" y="102" type="curve" smooth="yes"/>
      <point x="304" y="36"/>
      <point x="279" y="28"/>
      <point x="208" y="28" type="curve" smooth="yes"/>
      <point x="179" y="28" type="line" smooth="yes"/>
      <point x="152" y="28"/>
      <point x="137" y="30"/>
      <point x="136" y="35" type="curve"/>
      <point x="132" y="49"/>
      <point x="131" y="68"/>
      <point x="131" y="89" type="curve" smooth="yes"/>
      <point x="131" y="326" type="line" smooth="yes"/>
      <point x="131" y="351"/>
      <point x="132" y="370"/>
      <point x="136" y="384" type="curve" smooth="yes"/>
      <point x="137" y="388"/>
      <point x="164" y="397"/>
      <point x="176" y="397" type="curve" smooth="yes"/>
      <point x="178" y="397"/>
      <point x="179" y="400"/>
      <point x="179" y="406" type="curve" smooth="yes"/>
      <point x="179" y="410"/>
      <point x="178" y="413"/>
      <point x="178" y="416" type="curve"/>
      <point x="135" y="413"/>
      <point x="112" y="412"/>
      <point x="103" y="412" type="curve" smooth="yes"/>
      <point x="92" y="412"/>
      <point x="59" y="414"/>
      <point x="27" y="416" type="curve"/>
      <point x="25" y="414"/>
      <point x="24" y="411"/>
      <point x="24" y="405" type="curve" smooth="yes"/>
      <point x="24" y="400"/>
      <point x="25" y="397"/>
      <point x="27" y="397" type="curve" smooth="yes"/>
      <point x="41" y="397"/>
      <point x="66" y="389"/>
      <point x="69" y="384" type="curve"/>
      <point x="72" y="373"/>
      <point x="73" y="354"/>
      <point x="73" y="327" type="curve" smooth="yes"/>
      <point x="73" y="90" type="line" smooth="yes"/>
      <point x="73" y="56"/>
      <point x="72" y="37"/>
      <point x="69" y="31" type="curve" smooth="yes"/>
      <point x="66" y="25"/>
      <point x="41" y="18"/>
      <point x="25" y="18" type="curve" smooth="yes"/>
      <point x="24" y="18"/>
      <point x="24" y="15"/>
      <point x="24" y="9" type="curve" smooth="yes"/>
      <point x="24" y="4"/>
      <point x="24" y="1"/>
      <point x="25" y="-1" type="curve"/>
      <point x="45" y="0"/>
      <point x="77" y="1"/>
      <point x="103" y="1" type="curve" smooth="yes"/>
      <point x="130" y="1"/>
      <point x="168" y="1"/>
      <point x="214" y="-1" type="curve" smooth="yes"/>
      <point x="261" y="-2"/>
      <point x="295" y="-2"/>
    </contour>
    <contour>
      <point x="181" y="0" type="move" name="bottom"/>
    </contour>
    <contour>
      <point x="140" y="207" type="move" name="center"/>
    </contour>
    <contour>
      <point x="245" y="207" type="move" name="dotacc"/>
    </contour>
    <contour>
      <point x="181" y="413" type="move" name="top"/>
    </contour>
    <contour>
      <point x="261" y="271" type="move" name="topright"/>
    </contour>
  </outline>
</glyph>
<glyph name="M" format="1">
  <advance width="572"/>
  <unicode hex="004D"/>
  <outline>
    <contour>
      <point x="14" y="-2" type="curve"/>
      <point x="45" y="0"/>
      <point x="74" y="1"/>
      <point x="88" y="1" type="curve" smooth="yes"/>
      <point x="98" y="1"/>
      <point x="120" y="0"/>
      <point x="163" y="-2" type="curve"/>
      <point x="163" y="1"/>
      <point x="164" y="4"/>
      <point x="164" y="7" type="curve" smooth="yes"/>
      <point x="164" y="13"/>
      <point x="163" y="17"/>
      <point x="162" y="17" type="curve"/>
      <point x="131" y="21"/>
      <point x="114" y="27"/>
      <point x="111" y="34" type="curve" smooth="yes"/>
      <point x="109" y="39"/>
      <point x="109" y="50"/>
      <point x="109" y="64" type="curve" smooth="yes"/>
      <point x="120" y="391" type="line"/>
      <point x="106" y="389" type="line"/>
      <point x="259" y="7" type="line" smooth="yes"/>
      <point x="261" y="2"/>
      <point x="265" y="-1"/>
      <point x="268" y="-1" type="curve" smooth="yes"/>
      <point x="275" y="-1"/>
      <point x="281" y="2"/>
      <point x="287" y="15" type="curve"/>
      <point x="439" y="382" type="line"/>
      <point x="423" y="371" type="line"/>
      <point x="427" y="359"/>
      <point x="431" y="336"/>
      <point x="432" y="321" type="curve" smooth="yes"/>
      <point x="440" y="77" type="line" smooth="yes"/>
      <point x="441" y="39"/>
      <point x="437" y="30"/>
      <point x="433" y="27" type="curve"/>
      <point x="425" y="22"/>
      <point x="403" y="17"/>
      <point x="395" y="17" type="curve" smooth="yes"/>
      <point x="393" y="17"/>
      <point x="392" y="14"/>
      <point x="392" y="8" type="curve" smooth="yes"/>
      <point x="392" y="3"/>
      <point x="393" y="0"/>
      <point x="395" y="-2" type="curve"/>
      <point x="471" y="1" type="line"/>
      <point x="481" y="1"/>
      <point x="508" y="0"/>
      <point x="547" y="-2" type="curve"/>
      <point x="547" y="1"/>
      <point x="548" y="4"/>
      <point x="548" y="8" type="curve" smooth="yes"/>
      <point x="548" y="13"/>
      <point x="547" y="17"/>
      <point x="546" y="17" type="curve" smooth="yes"/>
      <point x="536" y="17"/>
      <point x="507" y="23"/>
      <point x="504" y="31" type="curve"/>
      <point x="498" y="45"/>
      <point x="495" y="65"/>
      <point x="495" y="89" type="curve"/>
      <point x="488" y="344" type="line"/>
      <point x="488" y="368"/>
      <point x="491" y="381"/>
      <point x="496" y="385" type="curve" smooth="yes"/>
      <point x="502" y="390"/>
      <point x="520" y="397"/>
      <point x="532" y="397" type="curve" smooth="yes"/>
      <point x="533" y="397"/>
      <point x="535" y="400"/>
      <point x="535" y="406" type="curve" smooth="yes"/>
      <point x="535" y="409"/>
      <point x="534" y="412"/>
      <point x="533" y="416" type="curve"/>
      <point x="511" y="414"/>
      <point x="486" y="413"/>
      <point x="462" y="413" type="curve" smooth="yes"/>
      <point x="452" y="413"/>
      <point x="436" y="414"/>
      <point x="411" y="416" type="curve"/>
      <point x="401" y="384"/>
      <point x="394" y="362"/>
      <point x="384" y="339" type="curve" smooth="yes"/>
      <point x="289" y="106" type="line"/>
      <point x="289" y="105"/>
      <point x="288" y="104"/>
      <point x="286" y="104" type="curve" smooth="yes"/>
      <point x="285" y="104"/>
      <point x="283" y="105"/>
      <point x="282" y="109" type="curve"/>
      <point x="191" y="336" type="line" smooth="yes"/>
      <point x="175" y="376"/>
      <point x="164" y="405"/>
      <point x="160" y="416" type="curve"/>
      <point x="137" y="414"/>
      <point x="116" y="413"/>
      <point x="101" y="413" type="curve" smooth="yes"/>
      <point x="88" y="413"/>
      <point x="44" y="415"/>
      <point x="31" y="416" type="curve"/>
      <point x="29" y="414"/>
      <point x="28" y="411"/>
      <point x="28" y="406" type="curve" smooth="yes"/>
      <point x="28" y="400"/>
      <point x="29" y="397"/>
      <point x="31" y="397" type="curve" smooth="yes"/>
      <point x="42" y="397"/>
      <point x="77" y="391"/>
      <point x="80" y="384" type="curve"/>
      <point x="82" y="378"/>
      <point x="82" y="370"/>
      <point x="82" y="358" type="curve" smooth="yes"/>
      <point x="82" y="343"/>
      <point x="80" y="275"/>
      <point x="78" y="210" type="curve" smooth="yes"/>
      <point x="75" y="83" type="line" smooth="yes"/>
      <point x="74" y="55"/>
      <point x="71" y="38"/>
      <point x="64" y="31" type="curve" smooth="yes"/>
      <point x="56" y="23"/>
      <point x="26" y="17"/>
      <point x="14" y="17" type="curve" smooth="yes"/>
      <point x="12" y="17"/>
      <point x="11" y="13"/>
      <point x="11" y="8" type="curve" smooth="yes"/>
      <point x="11" y="3"/>
      <point x="12" y="0"/>
    </contour>
    <contour>
      <point x="281" y="0" type="move" name="bottom"/>
    </contour>
    <contour>
      <point x="281" y="413" type="move" name="top"/>
    </contour>
  </outline>
</glyph>
<glyph name="O" format="1">
  <advance width="465"/>
  <unicode hex="004F"/>
  <outline>
    <contour>
      <point x="232" y="-6" type="curve" smooth="yes"/>
      <point x="346" y="-6"/>
      <point x="433" y="91"/>
      <point x="433" y="205" type="curve" smooth="yes"/>
      <point x="433" y="323"/>
      <point x="343" y="419"/>
      <point x="231" y="419" type="curve" smooth="yes"/>
      <point x="122" y="419"/>
      <point x="32" y="324"/>
      <point x="32" y="205" type="curve" smooth="yes"/>
      <point x="32" y="89"/>
      <point x="121" y="-6"/>
    </contour>
    <contour>
      <point x="242" y="21" type="curve" smooth="yes"/>
      <point x="152" y="21"/>
      <point x="97" y="114"/>
      <point x="97" y="220" type="curve" smooth="yes"/>
      <point x="97" y="311"/>
      <point x="145" y="392"/>
      <point x="222" y="392" type="curve" smooth="yes"/>
      <point x="312" y="392"/>
      <point x="368" y="300"/>
      <point x="368" y="194" type="curve" smooth="yes"/>
      <point x="368" y="105"/>
      <point x="321" y="21"/>
    </contour>
    <contour>
      <point x="233" y="0" type="move" name="bottom"/>
    </contour>
    <contour>
      <point x="233" y="207" type="move" name="center"/>
    </contour>
    <contour>
      <point x="415" y="6" type="move" name="ogonek"/>
    </contour>
    <contour>
      <point x="233" y="413" type="move" name="top"/>
    </contour>
    <contour>
      <point x="18" y="413" type="move" name="topleft"/>
    </contour>
    <contour>
      <point x="448" y="413" type="move" name="topright"/>
    </contour>
  </outline>
</glyph>
<glyph name="Q" format="1">
  <advance width="465"/>
  <unicode hex="0051"/>
  <outline>
    <contour>
      <point x="382" y="-86" type="curve" smooth="yes"/>
      <point x="424" y="-86"/>
      <point x="460" y="-78"/>
      <point x="489" y="-63" type="curve"/>
      <point x="489" y="-60" type="line" smooth="yes"/>
      <point x="489" y="-51"/>
      <point x="486" y="-47"/>
      <point x="481" y="-47" type="curve" smooth="yes"/>
      <point x="479" y="-47"/>
      <point x="453" y="-52"/>
      <point x="438" y="-52" type="curve" smooth="yes"/>
      <point x="411" y="-52"/>
      <point x="383" y="-42"/>
      <point x="356" y="-30" type="curve" smooth="yes"/>
      <point x="333" y="-19"/>
      <point x="310" y="-6"/>
      <point x="288" y="3" type="curve"/>
      <point x="362" y="25"/>
      <point x="433" y="99"/>
      <point x="433" y="206" type="curve" smooth="yes"/>
      <point x="433" y="323"/>
      <point x="343" y="419"/>
      <point x="231" y="419" type="curve" smooth="yes"/>
      <point x="122" y="419"/>
      <point x="32" y="323"/>
      <point x="32" y="206" type="curve" smooth="yes"/>
      <point x="32" y="151"/>
      <point x="54" y="96"/>
      <point x="84" y="62" type="curve" smooth="yes"/>
      <point x="115" y="29"/>
      <point x="148" y="9"/>
      <point x="178" y="0" type="curve" smooth="yes"/>
      <point x="225" y="-14"/>
      <point x="272" y="-49"/>
      <point x="316" y="-69" type="curve"/>
      <point x="339" y="-81"/>
      <point x="362" y="-86"/>
    </contour>
    <contour>
      <point x="242" y="21" type="curve" smooth="yes"/>
      <point x="152" y="21"/>
      <point x="97" y="114"/>
      <point x="97" y="220" type="curve" smooth="yes"/>
      <point x="97" y="311"/>
      <point x="145" y="392"/>
      <point x="222" y="392" type="curve" smooth="yes"/>
      <point x="312" y="392"/>
      <point x="368" y="300"/>
      <point x="368" y="194" type="curve" smooth="yes"/>
      <point x="368" y="105"/>
      <point x="321" y="21"/>
    </contour>
    <contour>
      <point x="233" y="0" type="move" name="bottom"/>
    </contour>
    <contour>
      <point x="233" y="413" type="move" name="top"/>
    </contour>
  </outline>
</glyph>
<glyph name="R" format="1">
  <advance width="408"/>
  <unicode hex="0052"/>
  <outline>
    <contour>
      <point x="402" y="-3" type="curve" smooth="yes"/>
      <point x="409" y="-3"/>
      <point x="414" y="-3"/>
      <point x="419" y="-1" type="curve"/>
      <point x="420" y="1"/>
      <point x="421" y="4"/>
      <point x="421" y="8" type="curve" smooth="yes"/>
      <point x="421" y="12"/>
      <point x="420" y="15"/>
      <point x="419" y="17" type="curve"/>
      <point x="393" y="17"/>
      <point x="358" y="38"/>
      <point x="321" y="84" type="curve" smooth="yes"/>
      <point x="297" y="114"/>
      <point x="272" y="160"/>
      <point x="237" y="205" type="curve"/>
      <point x="230" y="198" type="line"/>
      <point x="293" y="215"/>
      <point x="327" y="264"/>
      <point x="327" y="306" type="curve" smooth="yes"/>
      <point x="327" y="377"/>
      <point x="270" y="414"/>
      <point x="195" y="414" type="curve" smooth="yes"/>
      <point x="166" y="414"/>
      <point x="115" y="412"/>
      <point x="102" y="412" type="curve" smooth="yes"/>
      <point x="77" y="412"/>
      <point x="52" y="413"/>
      <point x="25" y="414" type="curve"/>
      <point x="24" y="412"/>
      <point x="23" y="409"/>
      <point x="23" y="403" type="curve" smooth="yes"/>
      <point x="23" y="398"/>
      <point x="24" y="395"/>
      <point x="25" y="395" type="curve" smooth="yes"/>
      <point x="36" y="395"/>
      <point x="66" y="388"/>
      <point x="69" y="381" type="curve"/>
      <point x="72" y="370"/>
      <point x="73" y="352"/>
      <point x="73" y="327" type="curve" smooth="yes"/>
      <point x="73" y="90" type="line" smooth="yes"/>
      <point x="73" y="56"/>
      <point x="72" y="37"/>
      <point x="69" y="31" type="curve"/>
      <point x="64" y="24"/>
      <point x="37" y="18"/>
      <point x="25" y="18" type="curve" smooth="yes"/>
      <point x="24" y="18"/>
      <point x="24" y="15"/>
      <point x="24" y="9" type="curve" smooth="yes"/>
      <point x="24" y="3"/>
      <point x="24" y="-1"/>
      <point x="25" y="-2" type="curve"/>
      <point x="52" y="0"/>
      <point x="77" y="1"/>
      <point x="103" y="1" type="curve" smooth="yes"/>
      <point x="116" y="1"/>
      <point x="144" y="0"/>
      <point x="186" y="-2" type="curve"/>
      <point x="187" y="1"/>
      <point x="188" y="4"/>
      <point x="188" y="8" type="curve" smooth="yes"/>
      <point x="188" y="14"/>
      <point x="187" y="17"/>
      <point x="185" y="17" type="curve" smooth="yes"/>
      <point x="174" y="17"/>
      <point x="140" y="24"/>
      <point x="136" y="34" type="curve"/>
      <point x="132" y="43"/>
      <point x="131" y="61"/>
      <point x="131" y="89" type="curve" smooth="yes"/>
      <point x="131" y="190" type="line"/>
      <point x="136" y="191"/>
      <point x="142" y="191"/>
      <point x="148" y="191" type="curve" smooth="yes"/>
      <point x="172" y="191"/>
      <point x="181" y="187"/>
      <point x="191" y="171" type="curve" smooth="yes"/>
      <point x="245" y="87" type="line" smooth="yes"/>
      <point x="284" y="25"/>
      <point x="335" y="-3"/>
    </contour>
    <contour>
      <point x="162" y="219" type="line" smooth="yes"/>
      <point x="152" y="219"/>
      <point x="141" y="220"/>
      <point x="131" y="221" type="curve"/>
      <point x="131" y="336" type="line" smooth="yes"/>
      <point x="131" y="367"/>
      <point x="133" y="380"/>
      <point x="138" y="382" type="curve"/>
      <point x="148" y="385"/>
      <point x="156" y="386"/>
      <point x="174" y="386" type="curve" smooth="yes"/>
      <point x="231" y="386"/>
      <point x="266" y="359"/>
      <point x="266" y="302" type="curve" smooth="yes"/>
      <point x="266" y="250"/>
      <point x="234" y="219"/>
      <point x="174" y="219" type="curve" smooth="yes"/>
    </contour>
    <contour>
      <point x="208" y="0" type="move" name="bottom"/>
    </contour>
    <contour>
      <point x="208" y="413" type="move" name="top"/>
    </contour>
  </outline>
</glyph>
<glyph name="S" format="1">
  <advance width="317"/>
  <unicode hex="0053"/>
  <outline>
    <contour>
      <point x="156" y="-6" type="curve" smooth="yes"/>
      <point x="228" y="-6"/>
      <point x="290" y="41"/>
      <point x="290" y="109" type="curve" smooth="yes"/>
      <point x="290" y="152"/>
      <point x="264" y="183"/>
      <point x="181" y="231" type="curve" smooth="yes"/>
      <point x="116" y="268"/>
      <point x="94" y="291"/>
      <point x="94" y="328" type="curve" smooth="yes"/>
      <point x="94" y="368"/>
      <point x="120" y="392"/>
      <point x="161" y="392" type="curve" smooth="yes"/>
      <point x="206" y="392"/>
      <point x="234" y="359"/>
      <point x="245" y="311" type="curve"/>
      <point x="245" y="307"/>
      <point x="250" y="305"/>
      <point x="258" y="305" type="curve" smooth="yes"/>
      <point x="264" y="305"/>
      <point x="268" y="307"/>
      <point x="268" y="310" type="curve" smooth="yes"/>
      <point x="268" y="347"/>
      <point x="265" y="377"/>
      <point x="260" y="401" type="curve"/>
      <point x="226" y="411"/>
      <point x="202" y="418"/>
      <point x="166" y="418" type="curve" smooth="yes"/>
      <point x="106" y="418"/>
      <point x="40" y="380"/>
      <point x="40" y="307" type="curve" smooth="yes"/>
      <point x="40" y="260"/>
      <point x="68" y="227"/>
      <point x="145" y="184" type="curve" smooth="yes"/>
      <point x="213" y="146"/>
      <point x="232" y="127"/>
      <point x="232" y="91" type="curve" smooth="yes"/>
      <point x="232" y="46"/>
      <point x="200" y="20"/>
      <point x="158" y="20" type="curve" smooth="yes"/>
      <point x="103" y="20"/>
      <point x="69" y="50"/>
      <point x="54" y="111" type="curve"/>
      <point x="52" y="114"/>
      <point x="48" y="116"/>
      <point x="40" y="116" type="curve" smooth="yes"/>
      <point x="33" y="116"/>
      <point x="28" y="115"/>
      <point x="28" y="112" type="curve" smooth="yes"/>
      <point x="28" y="97"/>
      <point x="33" y="61"/>
      <point x="44" y="12" type="curve"/>
      <point x="83" y="5"/>
      <point x="113" y="-6"/>
    </contour>
    <contour>
      <point x="158" y="0" type="move" name="bottom"/>
    </contour>
    <contour>
      <point x="158" y="413" type="move" name="top"/>
    </contour>
  </outline>
</glyph>
<glyph name="T" format="1">
  <advance width="395"/>
  <unicode hex="0054"/>
  <outline>
    <contour>
      <point x="110" y="-2" type="curve"/>
      <point x="161" y="0"/>
      <point x="189" y="1"/>
      <point x="199" y="1" type="curve" smooth="yes"/>
      <point x="208" y="1"/>
      <point x="233" y="0"/>
      <point x="286" y="-2" type="curve"/>
      <point x="287" y="1"/>
      <point x="287" y="4"/>
      <point x="287" y="7" type="curve" smooth="yes"/>
      <point x="287" y="14"/>
      <point x="287" y="17"/>
      <point x="285" y="17" type="curve" smooth="yes"/>
      <point x="260" y="17"/>
      <point x="233" y="25"/>
      <point x="232" y="30" type="curve"/>
      <point x="228" y="44"/>
      <point x="226" y="63"/>
      <point x="226" y="87" type="curve" smooth="yes"/>
      <point x="226" y="314" type="line" smooth="yes"/>
      <point x="226" y="342"/>
      <point x="228" y="363"/>
      <point x="232" y="376" type="curve" smooth="yes"/>
      <point x="234" y="383"/>
      <point x="257" y="386"/>
      <point x="300" y="386" type="curve" smooth="yes"/>
      <point x="347" y="386"/>
      <point x="358" y="376"/>
      <point x="370" y="329" type="curve"/>
      <point x="371" y="327"/>
      <point x="373" y="326"/>
      <point x="377" y="326" type="curve" smooth="yes"/>
      <point x="384" y="326"/>
      <point x="389" y="327"/>
      <point x="392" y="331" type="curve"/>
      <point x="380" y="422" type="line"/>
      <point x="362" y="417"/>
      <point x="348" y="415"/>
      <point x="337" y="415" type="curve" smooth="yes"/>
      <point x="299" y="414"/>
      <point x="239" y="412"/>
      <point x="198" y="412" type="curve" smooth="yes"/>
      <point x="157" y="412"/>
      <point x="97" y="414"/>
      <point x="60" y="415" type="curve" smooth="yes"/>
      <point x="49" y="415"/>
      <point x="35" y="417"/>
      <point x="17" y="422" type="curve"/>
      <point x="5" y="331" type="line"/>
      <point x="8" y="328"/>
      <point x="13" y="326"/>
      <point x="20" y="326" type="curve" smooth="yes"/>
      <point x="24" y="326"/>
      <point x="26" y="328"/>
      <point x="26" y="329" type="curve"/>
      <point x="38" y="376"/>
      <point x="50" y="386"/>
      <point x="96" y="386" type="curve" smooth="yes"/>
      <point x="138" y="386"/>
      <point x="160" y="383"/>
      <point x="163" y="376" type="curve"/>
      <point x="167" y="370"/>
      <point x="169" y="348"/>
      <point x="169" y="312" type="curve" smooth="yes"/>
      <point x="169" y="85" type="line" smooth="yes"/>
      <point x="169" y="59"/>
      <point x="168" y="41"/>
      <point x="164" y="30" type="curve"/>
      <point x="163" y="24"/>
      <point x="137" y="17"/>
      <point x="110" y="17" type="curve" smooth="yes"/>
      <point x="108" y="17"/>
      <point x="107" y="13"/>
      <point x="107" y="8" type="curve" smooth="yes"/>
      <point x="107" y="3"/>
      <point x="108" y="0"/>
    </contour>
    <contour>
      <point x="198" y="0" type="move" name="bottom"/>
    </contour>
    <contour>
      <point x="198" y="207" type="move" name="stroke"/>
    </contour>
    <contour>
      <point x="198" y="413" type="move" name="top"/>
    </contour>
  </outline>
</glyph>
<glyph name="U" format="1">
  <advance width="455"/>
  <unicode hex="0055"/>
  <outline>
    <contour>
      <point x="234" y="0" type="curve" smooth="yes"/>
      <point x="326" y="0"/>
      <point x="384" y="59"/>
      <point x="384" y="179" type="curve" smooth="yes"/>
      <point x="384" y="326" type="line" smooth="yes"/>
      <point x="384" y="351"/>
      <point x="386" y="371"/>
      <point x="390" y="383" type="curve"/>
      <point x="392" y="388"/>
      <point x="425" y="398"/>
      <point x="439" y="398" type="curve" smooth="yes"/>
      <point x="441" y="398"/>
      <point x="442" y="401"/>
      <point x="442" y="406" type="curve" smooth="yes"/>
      <point x="442" y="410"/>
      <point x="441" y="413"/>
      <point x="441" y="416" type="curve"/>
      <point x="422" y="415"/>
      <point x="383" y="412"/>
      <point x="370" y="412" type="curve" smooth="yes"/>
      <point x="358" y="412"/>
      <point x="329" y="413"/>
      <point x="295" y="416" type="curve"/>
      <point x="293" y="414"/>
      <point x="292" y="411"/>
      <point x="292" y="406" type="curve" smooth="yes"/>
      <point x="292" y="401"/>
      <point x="293" y="398"/>
      <point x="295" y="398" type="curve" smooth="yes"/>
      <point x="311" y="398"/>
      <point x="342" y="389"/>
      <point x="344" y="383" type="curve"/>
      <point x="348" y="373"/>
      <point x="349" y="355"/>
      <point x="349" y="329" type="curve" smooth="yes"/>
      <point x="349" y="184" type="line" smooth="yes"/>
      <point x="349" y="79"/>
      <point x="313" y="35"/>
      <point x="243" y="35" type="curve" smooth="yes"/>
      <point x="171" y="35"/>
      <point x="128" y="77"/>
      <point x="128" y="178" type="curve" smooth="yes"/>
      <point x="128" y="326" type="line" smooth="yes"/>
      <point x="128" y="350"/>
      <point x="130" y="370"/>
      <point x="134" y="384" type="curve" smooth="yes"/>
      <point x="135" y="388"/>
      <point x="161" y="397"/>
      <point x="174" y="397" type="curve" smooth="yes"/>
      <point x="176" y="397"/>
      <point x="176" y="400"/>
      <point x="176" y="407" type="curve" smooth="yes"/>
      <point x="176" y="410"/>
      <point x="176" y="413"/>
      <point x="175" y="416" type="curve"/>
      <point x="101" y="413" type="line"/>
      <point x="85" y="413"/>
      <point x="61" y="413"/>
      <point x="24" y="416" type="curve"/>
      <point x="22" y="414"/>
      <point x="22" y="411"/>
      <point x="22" y="405" type="curve" smooth="yes"/>
      <point x="22" y="400"/>
      <point x="22" y="397"/>
      <point x="24" y="397" type="curve" smooth="yes"/>
      <point x="38" y="397"/>
      <point x="64" y="389"/>
      <point x="66" y="384" type="curve"/>
      <point x="69" y="373"/>
      <point x="70" y="354"/>
      <point x="70" y="328" type="curve" smooth="yes"/>
      <point x="70" y="186" type="line" smooth="yes"/>
      <point x="70" y="60"/>
      <point x="122" y="0"/>
    </contour>
    <contour>
      <point x="229" y="0" type="move" name="bottom"/>
    </contour>
    <contour>
      <point x="305" y="6" type="move" name="ogonek"/>
    </contour>
    <contour>
      <point x="229" y="413" type="move" name="top"/>
    </contour>
    <contour>
      <point x="442" y="413" type="move" name="topright"/>
    </contour>
  </outline>
</glyph>
<glyph name="V" format="1">
  <advance width="425"/>
  <unicode hex="0056"/>
  <outline>
    <contour>
      <point x="208" y="-6" type="curve" smooth="yes"/>
      <point x="216" y="-6"/>
      <point x="222" y="0"/>
      <point x="225" y="8" type="curve"/>
      <point x="355" y="316" type="line" smooth="yes"/>
      <point x="366" y="342"/>
      <point x="376" y="363"/>
      <point x="385" y="379" type="curve" smooth="yes"/>
      <point x="392" y="391"/>
      <point x="406" y="397"/>
      <point x="424" y="397" type="curve" smooth="yes"/>
      <point x="425" y="397"/>
      <point x="426" y="400"/>
      <point x="426" y="406" type="curve" smooth="yes"/>
      <point x="426" y="410"/>
      <point x="425" y="413"/>
      <point x="425" y="416" type="curve"/>
      <point x="400" y="414"/>
      <point x="375" y="412"/>
      <point x="360" y="412" type="curve" smooth="yes"/>
      <point x="355" y="412"/>
      <point x="333" y="414"/>
      <point x="293" y="416" type="curve"/>
      <point x="291" y="414"/>
      <point x="290" y="411"/>
      <point x="290" y="405" type="curve" smooth="yes"/>
      <point x="290" y="400"/>
      <point x="291" y="397"/>
      <point x="293" y="397" type="curve" smooth="yes"/>
      <point x="306" y="397"/>
      <point x="337" y="390"/>
      <point x="337" y="373" type="curve" smooth="yes"/>
      <point x="337" y="364"/>
      <point x="333" y="349"/>
      <point x="325" y="329" type="curve" smooth="yes"/>
      <point x="220" y="77" type="line"/>
      <point x="231" y="77" type="line"/>
      <point x="132" y="325" type="line" smooth="yes"/>
      <point x="119" y="357"/>
      <point x="116" y="371"/>
      <point x="116" y="376" type="curve" smooth="yes"/>
      <point x="116" y="392"/>
      <point x="144" y="397"/>
      <point x="154" y="397" type="curve" smooth="yes"/>
      <point x="155" y="397"/>
      <point x="156" y="403"/>
      <point x="156" y="407" type="curve" smooth="yes"/>
      <point x="156" y="411"/>
      <point x="156" y="414"/>
      <point x="155" y="416" type="curve"/>
      <point x="111" y="414"/>
      <point x="86" y="412"/>
      <point x="75" y="412" type="curve" smooth="yes"/>
      <point x="62" y="412"/>
      <point x="14" y="415"/>
      <point x="2" y="416" type="curve"/>
      <point x="0" y="414"/>
      <point x="-1" y="411"/>
      <point x="-1" y="405" type="curve" smooth="yes"/>
      <point x="-1" y="400"/>
      <point x="0" y="397"/>
      <point x="2" y="397" type="curve" smooth="yes"/>
      <point x="13" y="397"/>
      <point x="37" y="392"/>
      <point x="43" y="382" type="curve" smooth="yes"/>
      <point x="50" y="370"/>
      <point x="59" y="351"/>
      <point x="70" y="323" type="curve" smooth="yes"/>
      <point x="198" y="2" type="line"/>
      <point x="199" y="-1"/>
      <point x="203" y="-6"/>
    </contour>
    <contour>
      <point x="212" y="0" type="move" name="bottom"/>
    </contour>
    <contour>
      <point x="212" y="413" type="move" name="top"/>
    </contour>
  </outline>
</glyph>
<glyph name="W" format="1">
  <advance width="646"/>
  <unicode hex="0057"/>
  <outline>
    <contour>
      <point x="240" y="-5" type="curve" smooth="yes"/>
      <point x="248" y="-5"/>
      <point x="256" y="2"/>
      <point x="263" y="15" type="curve"/>
      <point x="410" y="316" type="line" smooth="yes"/>
      <point x="426" y="349"/>
      <point x="438" y="370"/>
      <point x="446" y="379" type="curve" smooth="yes"/>
      <point x="455" y="389"/>
      <point x="481" y="397"/>
      <point x="490" y="397" type="curve" smooth="yes"/>
      <point x="491" y="397"/>
      <point x="492" y="403"/>
      <point x="492" y="407" type="curve" smooth="yes"/>
      <point x="492" y="411"/>
      <point x="492" y="414"/>
      <point x="491" y="416" type="curve"/>
      <point x="454" y="414"/>
      <point x="434" y="413"/>
      <point x="425" y="413" type="curve" smooth="yes"/>
      <point x="416" y="413"/>
      <point x="394" y="414"/>
      <point x="360" y="416" type="curve"/>
      <point x="358" y="414"/>
      <point x="358" y="411"/>
      <point x="358" y="406" type="curve" smooth="yes"/>
      <point x="358" y="400"/>
      <point x="358" y="397"/>
      <point x="360" y="397" type="curve" smooth="yes"/>
      <point x="373" y="397"/>
      <point x="398" y="391"/>
      <point x="398" y="376" type="curve" smooth="yes"/>
      <point x="398" y="366"/>
      <point x="395" y="354"/>
      <point x="389" y="340" type="curve"/>
      <point x="255" y="65" type="line"/>
      <point x="263" y="65" type="line"/>
      <point x="127" y="335" type="line" smooth="yes"/>
      <point x="118" y="352"/>
      <point x="113" y="367"/>
      <point x="113" y="379" type="curve" smooth="yes"/>
      <point x="113" y="393"/>
      <point x="133" y="397"/>
      <point x="144" y="397" type="curve" smooth="yes"/>
      <point x="145" y="397"/>
      <point x="147" y="403"/>
      <point x="147" y="407" type="curve" smooth="yes"/>
      <point x="147" y="411"/>
      <point x="146" y="414"/>
      <point x="145" y="416" type="curve"/>
      <point x="103" y="414"/>
      <point x="87" y="413"/>
      <point x="77" y="413" type="curve"/>
      <point x="-4" y="416" type="line"/>
      <point x="-5" y="414"/>
      <point x="-6" y="411"/>
      <point x="-6" y="406" type="curve" smooth="yes"/>
      <point x="-6" y="400"/>
      <point x="-5" y="397"/>
      <point x="-3" y="397" type="curve" smooth="yes"/>
      <point x="7" y="397"/>
      <point x="26" y="391"/>
      <point x="33" y="383" type="curve"/>
      <point x="45" y="368"/>
      <point x="57" y="348"/>
      <point x="69" y="324" type="curve" smooth="yes"/>
      <point x="230" y="2" type="line"/>
      <point x="234" y="-4"/>
      <point x="236" y="-5"/>
    </contour>
    <contour>
      <point x="416" y="-5" type="curve" smooth="yes"/>
      <point x="426" y="-5"/>
      <point x="432" y="2"/>
      <point x="438" y="15" type="curve" smooth="yes"/>
      <point x="573" y="317" type="line" smooth="yes"/>
      <point x="585" y="345"/>
      <point x="597" y="365"/>
      <point x="609" y="380" type="curve"/>
      <point x="618" y="390"/>
      <point x="642" y="397"/>
      <point x="650" y="397" type="curve" smooth="yes"/>
      <point x="652" y="397"/>
      <point x="653" y="400"/>
      <point x="653" y="406" type="curve" smooth="yes"/>
      <point x="653" y="410"/>
      <point x="652" y="413"/>
      <point x="652" y="416" type="curve"/>
      <point x="639" y="415"/>
      <point x="600" y="413"/>
      <point x="588" y="413" type="curve" smooth="yes"/>
      <point x="579" y="413"/>
      <point x="557" y="414"/>
      <point x="523" y="416" type="curve"/>
      <point x="521" y="414"/>
      <point x="520" y="411"/>
      <point x="520" y="406" type="curve" smooth="yes"/>
      <point x="520" y="400"/>
      <point x="521" y="397"/>
      <point x="523" y="397" type="curve" smooth="yes"/>
      <point x="536" y="397"/>
      <point x="560" y="390"/>
      <point x="560" y="376" type="curve" smooth="yes"/>
      <point x="560" y="367"/>
      <point x="556" y="354"/>
      <point x="549" y="337" type="curve" smooth="yes"/>
      <point x="430" y="67" type="line"/>
      <point x="435" y="65" type="line"/>
      <point x="304" y="335" type="line" smooth="yes"/>
      <point x="295" y="353"/>
      <point x="290" y="368"/>
      <point x="290" y="379" type="curve" smooth="yes"/>
      <point x="290" y="393"/>
      <point x="311" y="397"/>
      <point x="321" y="397" type="curve" smooth="yes"/>
      <point x="322" y="397"/>
      <point x="323" y="403"/>
      <point x="323" y="407" type="curve" smooth="yes"/>
      <point x="323" y="411"/>
      <point x="323" y="414"/>
      <point x="322" y="416" type="curve"/>
      <point x="279" y="414"/>
      <point x="264" y="413"/>
      <point x="256" y="413" type="curve"/>
      <point x="178" y="416" type="line"/>
      <point x="176" y="414"/>
      <point x="175" y="411"/>
      <point x="175" y="407" type="curve" smooth="yes"/>
      <point x="175" y="400"/>
      <point x="176" y="397"/>
      <point x="178" y="397" type="curve" smooth="yes"/>
      <point x="188" y="397"/>
      <point x="207" y="391"/>
      <point x="214" y="383" type="curve"/>
      <point x="226" y="368"/>
      <point x="238" y="348"/>
      <point x="250" y="324" type="curve" smooth="yes"/>
      <point x="407" y="2" type="line" smooth="yes"/>
      <point x="410" y="-4"/>
      <point x="413" y="-5"/>
    </contour>
    <contour>
      <point x="323" y="0" type="move" name="bottom"/>
    </contour>
    <contour>
      <point x="323" y="413" type="move" name="top"/>
    </contour>
  </outline>
</glyph>
<glyph name="X" format="1">
  <advance width="423"/>
  <unicode hex="0058"/>
  <outline>
    <contour>
      <point x="0" y="-2" type="curve"/>
      <point x="43" y="0"/>
      <point x="69" y="1"/>
      <point x="78" y="1" type="curve" smooth="yes"/>
      <point x="86" y="1"/>
      <point x="111" y="0"/>
      <point x="150" y="-2" type="curve"/>
      <point x="151" y="-1"/>
      <point x="151" y="2"/>
      <point x="151" y="6" type="curve" smooth="yes"/>
      <point x="151" y="13"/>
      <point x="151" y="17"/>
      <point x="149" y="17" type="curve" smooth="yes"/>
      <point x="126" y="17"/>
      <point x="106" y="25"/>
      <point x="106" y="35" type="curve" smooth="yes"/>
      <point x="106" y="38"/>
      <point x="108" y="45"/>
      <point x="121" y="65" type="curve"/>
      <point x="207" y="184" type="line"/>
      <point x="300" y="42" type="line" smooth="yes"/>
      <point x="302" y="39"/>
      <point x="303" y="36"/>
      <point x="303" y="34" type="curve" smooth="yes"/>
      <point x="303" y="24"/>
      <point x="279" y="17"/>
      <point x="267" y="17" type="curve" smooth="yes"/>
      <point x="265" y="17"/>
      <point x="264" y="14"/>
      <point x="264" y="9" type="curve" smooth="yes"/>
      <point x="264" y="3"/>
      <point x="265" y="0"/>
      <point x="267" y="-2" type="curve"/>
      <point x="322" y="0"/>
      <point x="356" y="1"/>
      <point x="359" y="1" type="curve"/>
      <point x="427" y="-2" type="line"/>
      <point x="428" y="0"/>
      <point x="429" y="3"/>
      <point x="429" y="6" type="curve" smooth="yes"/>
      <point x="429" y="13"/>
      <point x="428" y="17"/>
      <point x="426" y="17" type="curve" smooth="yes"/>
      <point x="404" y="17"/>
      <point x="376" y="25"/>
      <point x="364" y="43" type="curve" smooth="yes"/>
      <point x="244" y="225" type="line"/>
      <point x="362" y="378" type="line"/>
      <point x="370" y="390"/>
      <point x="410" y="397"/>
      <point x="422" y="397" type="curve" smooth="yes"/>
      <point x="423" y="397"/>
      <point x="424" y="403"/>
      <point x="424" y="407" type="curve" smooth="yes"/>
      <point x="424" y="411"/>
      <point x="423" y="414"/>
      <point x="423" y="416" type="curve"/>
      <point x="351" y="413" type="line"/>
      <point x="338" y="413"/>
      <point x="311" y="414"/>
      <point x="272" y="416" type="curve"/>
      <point x="270" y="414"/>
      <point x="269" y="411"/>
      <point x="269" y="406" type="curve" smooth="yes"/>
      <point x="269" y="400"/>
      <point x="270" y="397"/>
      <point x="272" y="397" type="curve" smooth="yes"/>
      <point x="296" y="397"/>
      <point x="316" y="387"/>
      <point x="316" y="378" type="curve" smooth="yes"/>
      <point x="316" y="369"/>
      <point x="301" y="346"/>
      <point x="293" y="334" type="curve"/>
      <point x="228" y="250" type="line"/>
      <point x="156" y="359" type="line" smooth="yes"/>
      <point x="151" y="367"/>
      <point x="149" y="373"/>
      <point x="149" y="378" type="curve" smooth="yes"/>
      <point x="149" y="391"/>
      <point x="171" y="397"/>
      <point x="186" y="397" type="curve" smooth="yes"/>
      <point x="187" y="397"/>
      <point x="188" y="403"/>
      <point x="188" y="407" type="curve" smooth="yes"/>
      <point x="188" y="411"/>
      <point x="188" y="414"/>
      <point x="187" y="416" type="curve"/>
      <point x="144" y="414"/>
      <point x="118" y="413"/>
      <point x="106" y="413" type="curve"/>
      <point x="27" y="416" type="line"/>
      <point x="25" y="414"/>
      <point x="24" y="411"/>
      <point x="24" y="405" type="curve" smooth="yes"/>
      <point x="24" y="400"/>
      <point x="25" y="397"/>
      <point x="27" y="397" type="curve" smooth="yes"/>
      <point x="39" y="397"/>
      <point x="50" y="394"/>
      <point x="62" y="387" type="curve" smooth="yes"/>
      <point x="75" y="379"/>
      <point x="89" y="365"/>
      <point x="102" y="344" type="curve" smooth="yes"/>
      <point x="190" y="209" type="line"/>
      <point x="57" y="35" type="line"/>
      <point x="44" y="22"/>
      <point x="12" y="17"/>
      <point x="1" y="17" type="curve" smooth="yes"/>
      <point x="0" y="17"/>
      <point x="-1" y="13"/>
      <point x="-1" y="6" type="curve" smooth="yes"/>
      <point x="-1" y="3"/>
      <point x="0" y="1"/>
    </contour>
    <contour>
      <point x="212" y="0" type="move" name="bottom"/>
    </contour>
    <contour>
      <point x="212" y="413" type="move" name="top"/>
    </contour>
  </outline>
</glyph>
<glyph name="Y" format="1">
  <advance width="379"/>
  <unicode hex="0059"/>
  <outline>
    <contour>
      <point x="115" y="-2" type="curve"/>
      <point x="154" y="0"/>
      <point x="179" y="1"/>
      <point x="190" y="1" type="curve" smooth="yes"/>
      <point x="196" y="1"/>
      <point x="222" y="0"/>
      <point x="262" y="-2" type="curve"/>
      <point x="263" y="1"/>
      <point x="264" y="4"/>
      <point x="264" y="7" type="curve" smooth="yes"/>
      <point x="264" y="13"/>
      <point x="263" y="16"/>
      <point x="261" y="16" type="curve" smooth="yes"/>
      <point x="250" y="16"/>
      <point x="224" y="25"/>
      <point x="223" y="30" type="curve" smooth="yes"/>
      <point x="220" y="43"/>
      <point x="218" y="62"/>
      <point x="218" y="88" type="curve" smooth="yes"/>
      <point x="218" y="183" type="line" smooth="yes"/>
      <point x="218" y="187"/>
      <point x="224" y="201"/>
      <point x="234" y="218" type="curve" smooth="yes"/>
      <point x="308" y="341" type="line" smooth="yes"/>
      <point x="317" y="356"/>
      <point x="326" y="369"/>
      <point x="332" y="379" type="curve"/>
      <point x="339" y="387"/>
      <point x="368" y="398"/>
      <point x="383" y="398" type="curve" smooth="yes"/>
      <point x="385" y="398"/>
      <point x="386" y="401"/>
      <point x="386" y="406" type="curve" smooth="yes"/>
      <point x="386" y="410"/>
      <point x="385" y="413"/>
      <point x="385" y="416" type="curve"/>
      <point x="373" y="416"/>
      <point x="335" y="412"/>
      <point x="318" y="412" type="curve" smooth="yes"/>
      <point x="314" y="412"/>
      <point x="289" y="413"/>
      <point x="243" y="416" type="curve"/>
      <point x="242" y="414"/>
      <point x="241" y="411"/>
      <point x="241" y="406" type="curve" smooth="yes"/>
      <point x="241" y="401"/>
      <point x="242" y="398"/>
      <point x="243" y="398" type="curve" smooth="yes"/>
      <point x="266" y="398"/>
      <point x="287" y="389"/>
      <point x="287" y="378" type="curve" smooth="yes"/>
      <point x="287" y="371"/>
      <point x="280" y="354"/>
      <point x="268" y="335" type="curve" smooth="yes"/>
      <point x="206" y="230" type="line"/>
      <point x="204" y="228"/>
      <point x="202" y="226"/>
      <point x="200" y="226" type="curve" smooth="yes"/>
      <point x="199" y="226"/>
      <point x="196" y="228"/>
      <point x="196" y="229" type="curve"/>
      <point x="127" y="359" type="line"/>
      <point x="122" y="367"/>
      <point x="120" y="373"/>
      <point x="120" y="378" type="curve" smooth="yes"/>
      <point x="120" y="389"/>
      <point x="138" y="398"/>
      <point x="157" y="398" type="curve" smooth="yes"/>
      <point x="158" y="398"/>
      <point x="160" y="403"/>
      <point x="160" y="408" type="curve" smooth="yes"/>
      <point x="160" y="411"/>
      <point x="159" y="414"/>
      <point x="158" y="416" type="curve"/>
      <point x="108" y="413"/>
      <point x="80" y="412"/>
      <point x="75" y="412" type="curve" smooth="yes"/>
      <point x="66" y="412"/>
      <point x="34" y="414"/>
      <point x="-2" y="416" type="curve"/>
      <point x="-4" y="414"/>
      <point x="-4" y="411"/>
      <point x="-4" y="405" type="curve" smooth="yes"/>
      <point x="-4" y="401"/>
      <point x="-4" y="398"/>
      <point x="-2" y="398" type="curve" smooth="yes"/>
      <point x="9" y="398"/>
      <point x="31" y="391"/>
      <point x="39" y="385" type="curve" smooth="yes"/>
      <point x="51" y="376"/>
      <point x="55" y="369"/>
      <point x="70" y="344" type="curve"/>
      <point x="147" y="204" type="line"/>
      <point x="155" y="191"/>
      <point x="160" y="177"/>
      <point x="160" y="170" type="curve" smooth="yes"/>
      <point x="160" y="89" type="line" smooth="yes"/>
      <point x="160" y="62"/>
      <point x="158" y="42"/>
      <point x="155" y="30" type="curve"/>
      <point x="153" y="24"/>
      <point x="128" y="16"/>
      <point x="115" y="16" type="curve" smooth="yes"/>
      <point x="113" y="16"/>
      <point x="112" y="13"/>
      <point x="112" y="7" type="curve" smooth="yes"/>
      <point x="112" y="3"/>
      <point x="113" y="0"/>
    </contour>
    <contour>
      <point x="190" y="0" type="move" name="bottom"/>
    </contour>
    <contour>
      <point x="190" y="413" type="move" name="top"/>
    </contour>
    <contour>
      <point x="-2" y="413" type="move" name="topleft"/>
    </contour>
  </outline>
</glyph>
<glyph name="Z" format="1">
  <advance width="383"/>
  <unicode hex="005A"/>
  <outline>
    <contour>
      <point x="30" y="0" type="curve"/>
      <point x="343" y="0" type="line"/>
      <point x="348" y="25"/>
      <point x="359" y="63"/>
      <point x="371" y="105" type="curve"/>
      <point x="368" y="108"/>
      <point x="362" y="110"/>
      <point x="356" y="110" type="curve" smooth="yes"/>
      <point x="351" y="110"/>
      <point x="348" y="109"/>
      <point x="347" y="108" type="curve"/>
      <point x="327" y="54"/>
      <point x="301" y="32"/>
      <point x="254" y="32" type="curve" smooth="yes"/>
      <point x="90" y="32" type="line"/>
      <point x="94" y="22" type="line"/>
      <point x="345" y="398" type="line"/>
      <point x="345" y="404"/>
      <point x="342" y="418"/>
      <point x="339" y="418" type="curve"/>
      <point x="281" y="414"/>
      <point x="236" y="412"/>
      <point x="206" y="412" type="curve" smooth="yes"/>
      <point x="138" y="412" type="line" smooth="yes"/>
      <point x="119" y="412"/>
      <point x="50" y="415"/>
      <point x="42" y="417" type="curve"/>
      <point x="39" y="395"/>
      <point x="32" y="359"/>
      <point x="21" y="307" type="curve"/>
      <point x="25" y="303"/>
      <point x="32" y="301"/>
      <point x="41" y="301" type="curve" smooth="yes"/>
      <point x="45" y="301"/>
      <point x="47" y="302"/>
      <point x="48" y="304" type="curve"/>
      <point x="64" y="362"/>
      <point x="82" y="381"/>
      <point x="137" y="381" type="curve" smooth="yes"/>
      <point x="296" y="381" type="line"/>
      <point x="283" y="405" type="line"/>
      <point x="28" y="27" type="line"/>
      <point x="26" y="25"/>
      <point x="25" y="21"/>
      <point x="25" y="16" type="curve" smooth="yes"/>
      <point x="25" y="9"/>
      <point x="27" y="4"/>
    </contour>
    <contour>
      <point x="191" y="0" type="move" name="bottom"/>
    </contour>
    <contour>
      <point x="191" y="207" type="move" name="center"/>
    </contour>
    <contour>
      <point x="191" y="413" type="move" name="top"/>
    </contour>
  </outline>
</glyph>
<glyph name="bracketleft" format="1">
  <advance width="226"/>
  <unicode hex="005B"/>
  <outline>
    <contour>
      <point x="189" y="-72" type="curve"/>
      <point x="192" y="-71"/>
      <point x="193" y="-68"/>
      <point x="193" y="-62" type="curve" smooth="yes"/>
      <point x="193" y="-55"/>
      <point x="191" y="-49"/>
      <point x="189" y="-46" type="curve"/>
      <point x="172" y="-42"/>
      <point x="138" y="-37"/>
      <point x="114" y="-37" type="curve"/>
      <point x="114" y="438" type="line"/>
      <point x="138" y="438"/>
      <point x="172" y="443"/>
      <point x="189" y="447" type="curve"/>
      <point x="191" y="449"/>
      <point x="193" y="456"/>
      <point x="193" y="463" type="curve" smooth="yes"/>
      <point x="193" y="469"/>
      <point x="192" y="472"/>
      <point x="189" y="473" type="curve"/>
      <point x="160" y="469"/>
      <point x="116" y="466"/>
      <point x="85" y="466" type="curve" smooth="yes"/>
      <point x="77" y="466"/>
      <point x="73" y="461"/>
      <point x="73" y="452" type="curve" smooth="yes"/>
      <point x="73" y="-51" type="line" smooth="yes"/>
      <point x="73" y="-61"/>
      <point x="77" y="-66"/>
      <point x="85" y="-66" type="curve" smooth="yes"/>
      <point x="116" y="-66"/>
      <point x="160" y="-68"/>
    </contour>
  </outline>
</glyph>
<glyph name="backslash" format="1">
  <advance width="266"/>
  <unicode hex="005C"/>
  <outline>
    <contour>
      <point x="210" y="-18" type="line"/>
      <point x="251" y="-18" type="line"/>
      <point x="61" y="474" type="line"/>
      <point x="20" y="474" type="line"/>
    </contour>
  </outline>
</glyph>
<glyph name="bracketright" format="1">
  <advance width="226"/>
  <unicode hex="005D"/>
  <outline>
    <contour>
      <point x="37" y="-72" type="curve"/>
      <point x="66" y="-68"/>
      <point x="110" y="-66"/>
      <point x="141" y="-66" type="curve" smooth="yes"/>
      <point x="149" y="-66"/>
      <point x="153" y="-61"/>
      <point x="153" y="-51" type="curve" smooth="yes"/>
      <point x="153" y="452" type="line" smooth="yes"/>
      <point x="153" y="461"/>
      <point x="149" y="466"/>
      <point x="141" y="466" type="curve" smooth="yes"/>
      <point x="110" y="466"/>
      <point x="66" y="469"/>
      <point x="37" y="473" type="curve"/>
      <point x="34" y="472"/>
      <point x="33" y="469"/>
      <point x="33" y="463" type="curve" smooth="yes"/>
      <point x="33" y="456"/>
      <point x="35" y="449"/>
      <point x="37" y="447" type="curve"/>
      <point x="54" y="443"/>
      <point x="88" y="438"/>
      <point x="112" y="438" type="curve"/>
      <point x="112" y="-37" type="line"/>
      <point x="88" y="-37"/>
      <point x="54" y="-42"/>
      <point x="37" y="-46" type="curve"/>
      <point x="35" y="-49"/>
      <point x="33" y="-55"/>
      <point x="33" y="-62" type="curve" smooth="yes"/>
      <point x="33" y="-68"/>
      <point x="34" y="-71"/>
    </contour>
  </outline>
</glyph>
<glyph name="asciicircum" format="1">
  <advance width="342"/>
  <unicode hex="005E"/>
  <outline>
    <contour>
      <point x="65" y="76" type="line"/>
      <point x="184" y="311" type="line"/>
      <point x="159" y="311" type="line"/>
      <point x="278" y="76" type="line"/>
      <point x="311" y="92" type="line"/>
      <point x="188" y="334" type="line"/>
      <point x="154" y="334" type="line"/>
      <point x="31" y="92" type="line"/>
    </contour>
  </outline>
</glyph>
<glyph name="underscore" format="1">
  <advance width="314"/>
  <unicode hex="005F"/>
  <outline>
    <contour>
      <point x="19" y="-40" type="curve"/>
      <point x="288" y="-40" type="line" smooth="yes"/>
      <point x="294" y="-40"/>
      <point x="297" y="-19"/>
      <point x="297" y="-11" type="curve" smooth="yes"/>
      <point x="297" y="-6"/>
      <point x="296" y="-2"/>
      <point x="295" y="0" type="curve"/>
      <point x="26" y="0" type="line" smooth="yes"/>
      <point x="20" y="0"/>
      <point x="17" y="-20"/>
      <point x="17" y="-29" type="curve" smooth="yes"/>
      <point x="17" y="-34"/>
      <point x="18" y="-38"/>
    </contour>
  </outline>
</glyph>
<glyph name="b" format="1">
  <advance width="324"/>
  <unicode hex="0062"/>
  <outline>
    <contour>
      <point x="158" y="-4" type="curve" smooth="yes"/>
      <point x="232" y="-4"/>
      <point x="301" y="69"/>
      <point x="301" y="146" type="curve" smooth="yes"/>
      <point x="301" y="205"/>
      <point x="255" y="276"/>
      <point x="175" y="276" type="curve" smooth="yes"/>
      <point x="156" y="276"/>
      <point x="133" y="268"/>
      <point x="109" y="252" type="curve"/>
      <point x="109" y="370" type="line" smooth="yes"/>
      <point x="109" y="394"/>
      <point x="111" y="412"/>
      <point x="116" y="426" type="curve"/>
      <point x="115" y="431"/>
      <point x="111" y="436"/>
      <point x="108" y="436" type="curve"/>
      <point x="86" y="424"/>
      <point x="55" y="416"/>
      <point x="16" y="412" type="curve"/>
      <point x="14" y="412"/>
      <point x="12" y="409"/>
      <point x="12" y="402" type="curve" smooth="yes"/>
      <point x="12" y="397"/>
      <point x="14" y="394"/>
      <point x="16" y="394" type="curve" smooth="yes"/>
      <point x="22" y="394" type="line" smooth="yes"/>
      <point x="41" y="394"/>
      <point x="52" y="391"/>
      <point x="54" y="384" type="curve"/>
      <point x="56" y="372"/>
      <point x="58" y="358"/>
      <point x="58" y="344" type="curve" smooth="yes"/>
      <point x="58" y="84" type="line" smooth="yes"/>
      <point x="58" y="60"/>
      <point x="54" y="22"/>
      <point x="50" y="4" type="curve"/>
      <point x="52" y="1"/>
      <point x="60" y="-3"/>
      <point x="64" y="-3" type="curve"/>
      <point x="75" y="1"/>
      <point x="83" y="5"/>
      <point x="89" y="5" type="curve" smooth="yes"/>
      <point x="102" y="5"/>
      <point x="125" y="-4"/>
    </contour>
    <contour>
      <point x="163" y="23" type="curve" smooth="yes"/>
      <point x="127" y="23"/>
      <point x="109" y="39"/>
      <point x="109" y="64" type="curve" smooth="yes"/>
      <point x="109" y="209" type="line" smooth="yes"/>
      <point x="109" y="229"/>
      <point x="124" y="244"/>
      <point x="148" y="244" type="curve" smooth="yes"/>
      <point x="206" y="244"/>
      <point x="244" y="199"/>
      <point x="244" y="132" type="curve" smooth="yes"/>
      <point x="244" y="68"/>
      <point x="211" y="23"/>
    </contour>
    <contour>
      <point x="166" y="0" type="move" name="bottom"/>
    </contour>
    <contour>
      <point x="166" y="413" type="move" name="top"/>
    </contour>
  </outline>
</glyph>
<glyph name="c" format="1">
  <advance width="254"/>
  <unicode hex="0063"/>
  <outline>
    <contour>
      <point x="155" y="-4" type="curve" smooth="yes"/>
      <point x="191" y="-4"/>
      <point x="226" y="19"/>
      <point x="243" y="43" type="curve"/>
      <point x="246" y="48"/>
      <point x="247" y="51"/>
      <point x="247" y="55" type="curve" smooth="yes"/>
      <point x="247" y="60"/>
      <point x="246" y="63"/>
      <point x="243" y="63" type="curve"/>
      <point x="220" y="46"/>
      <point x="195" y="39"/>
      <point x="168" y="39" type="curve" smooth="yes"/>
      <point x="112" y="39"/>
      <point x="80" y="86"/>
      <point x="80" y="149" type="curve" smooth="yes"/>
      <point x="80" y="214"/>
      <point x="109" y="250"/>
      <point x="145" y="250" type="curve" smooth="yes"/>
      <point x="161" y="250"/>
      <point x="175" y="241"/>
      <point x="188" y="222" type="curve"/>
      <point x="198" y="206"/>
      <point x="206" y="200"/>
      <point x="219" y="200" type="curve" smooth="yes"/>
      <point x="235" y="200"/>
      <point x="244" y="212"/>
      <point x="244" y="228" type="curve" smooth="yes"/>
      <point x="244" y="257"/>
      <point x="208" y="274"/>
      <point x="164" y="274" type="curve" smooth="yes"/>
      <point x="74" y="274"/>
      <point x="23" y="209"/>
      <point x="23" y="132" type="curve" smooth="yes"/>
      <point x="23" y="53"/>
      <point x="78" y="-4"/>
    </contour>
    <contour>
      <point x="130" y="0" type="move" name="bottom"/>
    </contour>
    <contour>
      <point x="130" y="271" type="move" name="top"/>
    </contour>
  </outline>
</glyph>
<glyph name="e" format="1">
  <advance width="275"/>
  <unicode hex="0065"/>
  <outline>
    <contour>
      <point x="157" y="-4" type="curve" smooth="yes"/>
      <point x="192" y="-4"/>
      <point x="229" y="16"/>
      <point x="248" y="43" type="curve"/>
      <point x="250" y="48"/>
      <point x="251" y="51"/>
      <point x="251" y="55" type="curve" smooth="yes"/>
      <point x="251" y="60"/>
      <point x="250" y="63"/>
      <point x="248" y="63" type="curve"/>
      <point x="226" y="46"/>
      <point x="201" y="39"/>
      <point x="170" y="39" type="curve" smooth="yes"/>
      <point x="114" y="39"/>
      <point x="77" y="83"/>
      <point x="77" y="157" type="curve" smooth="yes"/>
      <point x="77" y="213"/>
      <point x="101" y="250"/>
      <point x="143" y="250" type="curve" smooth="yes"/>
      <point x="177" y="250"/>
      <point x="205" y="218"/>
      <point x="205" y="179" type="curve" smooth="yes"/>
      <point x="205" y="174"/>
      <point x="203" y="172"/>
      <point x="199" y="172" type="curve" smooth="yes"/>
      <point x="68" y="172" type="line"/>
      <point x="68" y="145" type="line"/>
      <point x="244" y="145" type="line" smooth="yes"/>
      <point x="254" y="145"/>
      <point x="257" y="148"/>
      <point x="257" y="158" type="curve" smooth="yes"/>
      <point x="257" y="228"/>
      <point x="213" y="275"/>
      <point x="149" y="275" type="curve" smooth="yes"/>
      <point x="76" y="275"/>
      <point x="23" y="216"/>
      <point x="23" y="132" type="curve" smooth="yes"/>
      <point x="23" y="53"/>
      <point x="78" y="-4"/>
    </contour>
    <contour>
      <point x="138" y="0" type="move" name="bottom"/>
    </contour>
    <contour>
      <point x="232" y="6" type="move" name="ogonek"/>
    </contour>
    <contour>
      <point x="138" y="271" type="move" name="top"/>
    </contour>
  </outline>
</glyph>
<glyph name="f" format="1">
  <advance width="193"/>
  <unicode hex="0066"/>
  <outline>
    <contour>
      <point x="20" y="-2" type="curve"/>
      <point x="53" y="0"/>
      <point x="77" y="1"/>
      <point x="88" y="1" type="curve" smooth="yes"/>
      <point x="98" y="1"/>
      <point x="126" y="0"/>
      <point x="160" y="-2" type="curve"/>
      <point x="160" y="5" type="line" smooth="yes"/>
      <point x="160" y="12"/>
      <point x="159" y="17"/>
      <point x="158" y="17" type="curve" smooth="yes"/>
      <point x="146" y="17"/>
      <point x="120" y="25"/>
      <point x="119" y="30" type="curve"/>
      <point x="115" y="44"/>
      <point x="113" y="63"/>
      <point x="113" y="86" type="curve" smooth="yes"/>
      <point x="113" y="298" type="line" smooth="yes"/>
      <point x="113" y="365"/>
      <point x="137" y="412"/>
      <point x="170" y="412" type="curve" smooth="yes"/>
      <point x="199" y="412"/>
      <point x="205" y="371"/>
      <point x="228" y="371" type="curve" smooth="yes"/>
      <point x="241" y="371"/>
      <point x="250" y="382"/>
      <point x="250" y="397" type="curve" smooth="yes"/>
      <point x="250" y="420"/>
      <point x="226" y="437"/>
      <point x="192" y="437" type="curve" smooth="yes"/>
      <point x="123" y="437"/>
      <point x="63" y="362"/>
      <point x="63" y="276" type="curve" smooth="yes"/>
      <point x="63" y="85" type="line" smooth="yes"/>
      <point x="63" y="64"/>
      <point x="61" y="46"/>
      <point x="57" y="30" type="curve"/>
      <point x="55" y="25"/>
      <point x="33" y="17"/>
      <point x="20" y="17" type="curve" smooth="yes"/>
      <point x="19" y="17"/>
      <point x="18" y="14"/>
      <point x="18" y="9" type="curve" smooth="yes"/>
      <point x="18" y="3"/>
      <point x="19" y="-1"/>
    </contour>
    <contour>
      <point x="26" y="234" type="curve" smooth="yes"/>
      <point x="182" y="234" type="line"/>
      <point x="187" y="244"/>
      <point x="189" y="252"/>
      <point x="189" y="259" type="curve" smooth="yes"/>
      <point x="189" y="262"/>
      <point x="188" y="264"/>
      <point x="186" y="264" type="curve" smooth="yes"/>
      <point x="50" y="264" type="line" smooth="yes"/>
      <point x="39" y="264"/>
      <point x="24" y="249"/>
      <point x="24" y="237" type="curve" smooth="yes"/>
      <point x="24" y="235"/>
      <point x="24" y="234"/>
    </contour>
    <contour>
      <point x="88" y="0" type="move" name="bottom"/>
    </contour>
    <contour>
      <point x="97" y="413" type="move" name="top"/>
    </contour>
  </outline>
</glyph>
<glyph name="g" format="1">
  <advance width="295"/>
  <unicode hex="0067"/>
  <outline>
    <contour>
      <point x="138" y="-143" type="curve" smooth="yes"/>
      <point x="220" y="-143"/>
      <point x="286" y="-90"/>
      <point x="285" y="-24" type="curve"/>
      <point x="285" y="-6"/>
      <point x="276" y="8"/>
      <point x="258" y="18" type="curve"/>
      <point x="236" y="29"/>
      <point x="202" y="35"/>
      <point x="151" y="36" type="curve" smooth="yes"/>
      <point x="99" y="37"/>
      <point x="81" y="43"/>
      <point x="81" y="62" type="curve" smooth="yes"/>
      <point x="81" y="74"/>
      <point x="95" y="92"/>
      <point x="111" y="100" type="curve"/>
      <point x="91" y="108" type="line"/>
      <point x="57" y="88"/>
      <point x="38" y="63"/>
      <point x="38" y="41" type="curve" smooth="yes"/>
      <point x="38" y="17"/>
      <point x="64" y="-6"/>
      <point x="92" y="-6" type="curve"/>
      <point x="103" y="-8" type="line"/>
      <point x="210" y="-8"/>
      <point x="242" y="-18"/>
      <point x="242" y="-53" type="curve" smooth="yes"/>
      <point x="242" y="-90"/>
      <point x="202" y="-119"/>
      <point x="151" y="-119" type="curve" smooth="yes"/>
      <point x="106" y="-119"/>
      <point x="68" y="-91"/>
      <point x="68" y="-59" type="curve" smooth="yes"/>
      <point x="68" y="-35"/>
      <point x="89" y="-14"/>
      <point x="124" y="-5" type="curve"/>
      <point x="95" y="-1" type="line"/>
      <point x="47" y="-20"/>
      <point x="23" y="-44"/>
      <point x="23" y="-74" type="curve" smooth="yes"/>
      <point x="23" y="-115"/>
      <point x="69" y="-143"/>
    </contour>
    <contour>
      <point x="143" y="115" type="curve" smooth="yes"/>
      <point x="110" y="115"/>
      <point x="85" y="144"/>
      <point x="85" y="185" type="curve" smooth="yes"/>
      <point x="85" y="221"/>
      <point x="108" y="249"/>
      <point x="139" y="249" type="curve" smooth="yes"/>
      <point x="170" y="249"/>
      <point x="195" y="217"/>
      <point x="195" y="179" type="curve" smooth="yes"/>
      <point x="195" y="142"/>
      <point x="173" y="115"/>
    </contour>
    <contour>
      <point x="140" y="92" type="curve" smooth="yes"/>
      <point x="199" y="92"/>
      <point x="248" y="135"/>
      <point x="248" y="186" type="curve" smooth="yes"/>
      <point x="248" y="203"/>
      <point x="240" y="224"/>
      <point x="229" y="237" type="curve"/>
      <point x="225" y="230" type="line"/>
      <point x="279" y="230" type="line" smooth="yes"/>
      <point x="283" y="230"/>
      <point x="285" y="234"/>
      <point x="285" y="242" type="curve" smooth="yes"/>
      <point x="285" y="250"/>
      <point x="284" y="255"/>
      <point x="281" y="256" type="curve"/>
      <point x="244" y="256" type="line" smooth="yes"/>
      <point x="211" y="256"/>
      <point x="179" y="272"/>
      <point x="141" y="272" type="curve" smooth="yes"/>
      <point x="79" y="272"/>
      <point x="32" y="233"/>
      <point x="32" y="182" type="curve" smooth="yes"/>
      <point x="32" y="128"/>
      <point x="78" y="92"/>
    </contour>
    <contour>
      <point x="147" y="-140" type="move" name="bottom"/>
    </contour>
    <contour>
      <point x="147" y="271" type="move" name="top"/>
    </contour>
  </outline>
</glyph>
<glyph name="h" format="1">
  <advance width="343"/>
  <unicode hex="0068"/>
  <outline>
    <contour>
      <point x="18" y="-2" type="curve"/>
      <point x="58" y="0"/>
      <point x="85" y="1"/>
      <point x="89" y="1" type="curve"/>
      <point x="157" y="-2" type="line"/>
      <point x="158" y="-1"/>
      <point x="158" y="2"/>
      <point x="158" y="5" type="curve" smooth="yes"/>
      <point x="158" y="10"/>
      <point x="158" y="17"/>
      <point x="156" y="17" type="curve" smooth="yes"/>
      <point x="148" y="17"/>
      <point x="120" y="24"/>
      <point x="118" y="30" type="curve"/>
      <point x="115" y="43"/>
      <point x="113" y="61"/>
      <point x="113" y="86" type="curve" smooth="yes"/>
      <point x="113" y="189" type="line" smooth="yes"/>
      <point x="113" y="211"/>
      <point x="141" y="236"/>
      <point x="174" y="236" type="curve" smooth="yes"/>
      <point x="213" y="236"/>
      <point x="233" y="210"/>
      <point x="233" y="154" type="curve" smooth="yes"/>
      <point x="233" y="74" type="line" smooth="yes"/>
      <point x="233" y="57"/>
      <point x="231" y="42"/>
      <point x="228" y="30" type="curve"/>
      <point x="226" y="24"/>
      <point x="202" y="17"/>
      <point x="192" y="17" type="curve" smooth="yes"/>
      <point x="191" y="17"/>
      <point x="190" y="14"/>
      <point x="190" y="9" type="curve" smooth="yes"/>
      <point x="190" y="3"/>
      <point x="190" y="0"/>
      <point x="191" y="-2" type="curve"/>
      <point x="227" y="0"/>
      <point x="244" y="1"/>
      <point x="260" y="1" type="curve" smooth="yes"/>
      <point x="275" y="1"/>
      <point x="295" y="0"/>
      <point x="329" y="-2" type="curve"/>
      <point x="329" y="5" type="line" smooth="yes"/>
      <point x="329" y="10"/>
      <point x="329" y="17"/>
      <point x="327" y="17" type="curve" smooth="yes"/>
      <point x="319" y="17"/>
      <point x="291" y="24"/>
      <point x="289" y="30" type="curve" smooth="yes"/>
      <point x="285" y="43"/>
      <point x="284" y="61"/>
      <point x="284" y="85" type="curve" smooth="yes"/>
      <point x="284" y="154" type="line" smooth="yes"/>
      <point x="284" y="239"/>
      <point x="258" y="276"/>
      <point x="203" y="276" type="curve" smooth="yes"/>
      <point x="175" y="276"/>
      <point x="138" y="255"/>
      <point x="113" y="233" type="curve"/>
      <point x="113" y="370" type="line" smooth="yes"/>
      <point x="113" y="394"/>
      <point x="116" y="412"/>
      <point x="120" y="426" type="curve"/>
      <point x="120" y="430"/>
      <point x="115" y="436"/>
      <point x="112" y="436" type="curve"/>
      <point x="93" y="425"/>
      <point x="61" y="416"/>
      <point x="21" y="412" type="curve"/>
      <point x="18" y="412"/>
      <point x="17" y="409"/>
      <point x="17" y="402" type="curve" smooth="yes"/>
      <point x="17" y="395"/>
      <point x="18" y="393"/>
      <point x="21" y="393" type="curve" smooth="yes"/>
      <point x="26" y="393" type="line" smooth="yes"/>
      <point x="45" y="393"/>
      <point x="52" y="390"/>
      <point x="56" y="386" type="curve" smooth="yes"/>
      <point x="61" y="381"/>
      <point x="62" y="357"/>
      <point x="62" y="341" type="curve" smooth="yes"/>
      <point x="62" y="73" type="line" smooth="yes"/>
      <point x="62" y="56"/>
      <point x="61" y="42"/>
      <point x="58" y="30" type="curve"/>
      <point x="56" y="24"/>
      <point x="29" y="17"/>
      <point x="19" y="17" type="curve" smooth="yes"/>
      <point x="17" y="17"/>
      <point x="17" y="14"/>
      <point x="17" y="9" type="curve" smooth="yes"/>
      <point x="17" y="5"/>
      <point x="17" y="2"/>
    </contour>
    <contour>
      <point x="172" y="0" type="move" name="bottom"/>
    </contour>
    <contour>
      <point x="172" y="207" type="move" name="center"/>
    </contour>
    <contour>
      <point x="112" y="333" type="move" name="stroke"/>
    </contour>
    <contour>
      <point x="172" y="413" type="move" name="top"/>
    </contour>
  </outline>
</glyph>
<glyph name="i" format="1">
  <advance width="176"/>
  <unicode hex="0069"/>
  <outline>
    <contour>
      <point x="19" y="-2" type="curve"/>
      <point x="55" y="0"/>
      <point x="80" y="1"/>
      <point x="91" y="1" type="curve" smooth="yes"/>
      <point x="101" y="1"/>
      <point x="125" y="0"/>
      <point x="159" y="-2" type="curve"/>
      <point x="159" y="-1"/>
      <point x="160" y="3"/>
      <point x="160" y="6" type="curve" smooth="yes"/>
      <point x="160" y="12"/>
      <point x="159" y="17"/>
      <point x="158" y="17" type="curve" smooth="yes"/>
      <point x="146" y="17"/>
      <point x="121" y="25"/>
      <point x="120" y="30" type="curve"/>
      <point x="116" y="42"/>
      <point x="115" y="60"/>
      <point x="115" y="86" type="curve" smooth="yes"/>
      <point x="115" y="196" type="line" smooth="yes"/>
      <point x="115" y="239"/>
      <point x="118" y="259"/>
      <point x="118" y="268" type="curve" smooth="yes"/>
      <point x="118" y="271"/>
      <point x="117" y="273"/>
      <point x="115" y="273" type="curve" smooth="yes"/>
      <point x="112" y="273"/>
      <point x="107" y="271"/>
      <point x="102" y="270" type="curve"/>
      <point x="82" y="265"/>
      <point x="57" y="260"/>
      <point x="20" y="255" type="curve"/>
      <point x="19" y="253"/>
      <point x="18" y="247"/>
      <point x="18" y="237" type="curve"/>
      <point x="34" y="237"/>
      <point x="48" y="232"/>
      <point x="54" y="225" type="curve" smooth="yes"/>
      <point x="60" y="218"/>
      <point x="63" y="207"/>
      <point x="63" y="190" type="curve" smooth="yes"/>
      <point x="63" y="74" type="line" smooth="yes"/>
      <point x="63" y="57"/>
      <point x="62" y="41"/>
      <point x="59" y="30" type="curve"/>
      <point x="58" y="25"/>
      <point x="34" y="17"/>
      <point x="21" y="17" type="curve" smooth="yes"/>
      <point x="19" y="17"/>
      <point x="18" y="14"/>
      <point x="18" y="9" type="curve" smooth="yes"/>
      <point x="18" y="5"/>
      <point x="19" y="2"/>
    </contour>
    <contour>
      <point x="89" y="341" type="curve" smooth="yes"/>
      <point x="107" y="341"/>
      <point x="122" y="355"/>
      <point x="122" y="374" type="curve" smooth="yes"/>
      <point x="122" y="393"/>
      <point x="107" y="406"/>
      <point x="89" y="406" type="curve" smooth="yes"/>
      <point x="70" y="406"/>
      <point x="55" y="393"/>
      <point x="55" y="374" type="curve" smooth="yes"/>
      <point x="55" y="355"/>
      <point x="70" y="341"/>
    </contour>
  </outline>
</glyph>
<glyph name="k" format="1">
  <advance width="324"/>
  <unicode hex="006B"/>
  <outline>
    <contour>
      <point x="18" y="-2" type="curve"/>
      <point x="47" y="0"/>
      <point x="74" y="1"/>
      <point x="89" y="1" type="curve" smooth="yes"/>
      <point x="105" y="1"/>
      <point x="130" y="0"/>
      <point x="157" y="-2" type="curve"/>
      <point x="158" y="0"/>
      <point x="158" y="2"/>
      <point x="158" y="5" type="curve" smooth="yes"/>
      <point x="158" y="10"/>
      <point x="157" y="17"/>
      <point x="156" y="17" type="curve" smooth="yes"/>
      <point x="147" y="17"/>
      <point x="120" y="24"/>
      <point x="118" y="30" type="curve"/>
      <point x="116" y="39"/>
      <point x="114" y="58"/>
      <point x="113" y="86" type="curve"/>
      <point x="113" y="123" type="line"/>
      <point x="123" y="125" type="line"/>
      <point x="210" y="31" type="line"/>
      <point x="214" y="26"/>
      <point x="215" y="24"/>
      <point x="215" y="23" type="curve" smooth="yes"/>
      <point x="215" y="20"/>
      <point x="201" y="17"/>
      <point x="193" y="17" type="curve" smooth="yes"/>
      <point x="191" y="17"/>
      <point x="190" y="13"/>
      <point x="190" y="8" type="curve" smooth="yes"/>
      <point x="190" y="3"/>
      <point x="191" y="0"/>
      <point x="191" y="-2" type="curve"/>
      <point x="223" y="0"/>
      <point x="246" y="1"/>
      <point x="259" y="1" type="curve" smooth="yes"/>
      <point x="272" y="1"/>
      <point x="298" y="0"/>
      <point x="329" y="-2" type="curve"/>
      <point x="329" y="5" type="line" smooth="yes"/>
      <point x="329" y="12"/>
      <point x="329" y="16"/>
      <point x="327" y="16" type="curve" smooth="yes"/>
      <point x="308" y="16"/>
      <point x="283" y="27"/>
      <point x="270" y="41" type="curve" smooth="yes"/>
      <point x="156" y="164" type="line"/>
      <point x="146" y="140" type="line"/>
      <point x="236" y="228" type="line" smooth="yes"/>
      <point x="255" y="246"/>
      <point x="271" y="254"/>
      <point x="300" y="254" type="curve" smooth="yes"/>
      <point x="302" y="254"/>
      <point x="304" y="259"/>
      <point x="304" y="264" type="curve" smooth="yes"/>
      <point x="304" y="268"/>
      <point x="303" y="271"/>
      <point x="301" y="272" type="curve"/>
      <point x="289" y="272"/>
      <point x="244" y="269"/>
      <point x="232" y="269" type="curve" smooth="yes"/>
      <point x="216" y="269"/>
      <point x="198" y="271"/>
      <point x="181" y="271" type="curve"/>
      <point x="179" y="270"/>
      <point x="178" y="267"/>
      <point x="178" y="264" type="curve" smooth="yes"/>
      <point x="178" y="261"/>
      <point x="179" y="257"/>
      <point x="180" y="253" type="curve"/>
      <point x="203" y="252"/>
      <point x="208" y="249"/>
      <point x="208" y="243" type="curve" smooth="yes"/>
      <point x="208" y="237"/>
      <point x="204" y="231"/>
      <point x="195" y="222" type="curve" smooth="yes"/>
      <point x="130" y="158" type="line"/>
      <point x="126" y="155"/>
      <point x="121" y="153"/>
      <point x="113" y="152" type="curve"/>
      <point x="113" y="370" type="line" smooth="yes"/>
      <point x="113" y="394"/>
      <point x="116" y="412"/>
      <point x="120" y="426" type="curve"/>
      <point x="120" y="430"/>
      <point x="115" y="436"/>
      <point x="112" y="436" type="curve"/>
      <point x="93" y="425"/>
      <point x="61" y="416"/>
      <point x="21" y="412" type="curve"/>
      <point x="18" y="412"/>
      <point x="17" y="409"/>
      <point x="17" y="402" type="curve" smooth="yes"/>
      <point x="17" y="395"/>
      <point x="18" y="393"/>
      <point x="21" y="393" type="curve" smooth="yes"/>
      <point x="26" y="393" type="line" smooth="yes"/>
      <point x="45" y="393"/>
      <point x="56" y="390"/>
      <point x="58" y="383" type="curve" smooth="yes"/>
      <point x="61" y="371"/>
      <point x="62" y="357"/>
      <point x="62" y="341" type="curve" smooth="yes"/>
      <point x="62" y="74" type="line" smooth="yes"/>
      <point x="62" y="57"/>
      <point x="61" y="42"/>
      <point x="58" y="30" type="curve"/>
      <point x="56" y="24"/>
      <point x="29" y="17"/>
      <point x="19" y="17" type="curve" smooth="yes"/>
      <point x="17" y="17"/>
      <point x="17" y="14"/>
      <point x="17" y="9" type="curve" smooth="yes"/>
      <point x="17" y="3"/>
      <point x="17" y="1"/>
    </contour>
    <contour>
      <point x="167" y="0" type="move" name="bottom"/>
    </contour>
    <contour>
      <point x="167" y="413" type="move" name="top"/>
    </contour>
  </outline>
</glyph>
<glyph name="l" format="1">
  <advance width="174"/>
  <unicode hex="006C"/>
  <outline>
    <contour>
      <point x="18" y="-2" type="curve"/>
      <point x="49" y="0"/>
      <point x="74" y="1"/>
      <point x="89" y="1" type="curve" smooth="yes"/>
      <point x="112" y="1"/>
      <point x="136" y="-1"/>
      <point x="158" y="-2" type="curve"/>
      <point x="159" y="-1"/>
      <point x="159" y="2"/>
      <point x="159" y="5" type="curve" smooth="yes"/>
      <point x="159" y="10"/>
      <point x="158" y="17"/>
      <point x="156" y="17" type="curve" smooth="yes"/>
      <point x="148" y="17"/>
      <point x="120" y="24"/>
      <point x="118" y="30" type="curve" smooth="yes"/>
      <point x="114" y="42"/>
      <point x="113" y="61"/>
      <point x="113" y="86" type="curve" smooth="yes"/>
      <point x="113" y="370" type="line" smooth="yes"/>
      <point x="113" y="394"/>
      <point x="116" y="412"/>
      <point x="120" y="426" type="curve"/>
      <point x="120" y="430"/>
      <point x="115" y="436"/>
      <point x="112" y="436" type="curve"/>
      <point x="93" y="425"/>
      <point x="61" y="416"/>
      <point x="21" y="412" type="curve"/>
      <point x="18" y="412"/>
      <point x="17" y="409"/>
      <point x="17" y="402" type="curve" smooth="yes"/>
      <point x="17" y="395"/>
      <point x="18" y="393"/>
      <point x="21" y="393" type="curve" smooth="yes"/>
      <point x="26" y="393" type="line" smooth="yes"/>
      <point x="45" y="393"/>
      <point x="52" y="390"/>
      <point x="56" y="386" type="curve" smooth="yes"/>
      <point x="61" y="381"/>
      <point x="62" y="357"/>
      <point x="62" y="341" type="curve" smooth="yes"/>
      <point x="62" y="74" type="line" smooth="yes"/>
      <point x="62" y="57"/>
      <point x="61" y="42"/>
      <point x="58" y="30" type="curve"/>
      <point x="56" y="24"/>
      <point x="29" y="17"/>
      <point x="19" y="17" type="curve" smooth="yes"/>
      <point x="17" y="17"/>
      <point x="17" y="14"/>
      <point x="17" y="9" type="curve" smooth="yes"/>
      <point x="17" y="3"/>
      <point x="17" y="0"/>
    </contour>
    <contour>
      <point x="86" y="0" type="move" name="bottom"/>
    </contour>
    <contour>
      <point x="86" y="207" type="move" name="center"/>
    </contour>
    <contour>
      <point x="176" y="207" type="move" name="dotacc"/>
    </contour>
    <contour>
      <point x="86" y="413" type="move" name="top"/>
    </contour>
    <contour>
      <point x="138" y="271" type="move" name="topright"/>
    </contour>
  </outline>
</glyph>
<glyph name="m" format="1">
  <advance width="504"/>
  <unicode hex="006D"/>
  <outline>
    <contour>
      <point x="19" y="-2" type="curve"/>
      <point x="55" y="0"/>
      <point x="80" y="1"/>
      <point x="90" y="1" type="curve" smooth="yes"/>
      <point x="101" y="1"/>
      <point x="125" y="0"/>
      <point x="158" y="-2" type="curve"/>
      <point x="159" y="-1"/>
      <point x="159" y="3"/>
      <point x="159" y="6" type="curve" smooth="yes"/>
      <point x="159" y="12"/>
      <point x="158" y="17"/>
      <point x="157" y="17" type="curve" smooth="yes"/>
      <point x="145" y="17"/>
      <point x="121" y="25"/>
      <point x="120" y="30" type="curve"/>
      <point x="117" y="42"/>
      <point x="115" y="60"/>
      <point x="115" y="86" type="curve" smooth="yes"/>
      <point x="115" y="190" type="line" smooth="yes"/>
      <point x="115" y="211"/>
      <point x="142" y="236"/>
      <point x="173" y="236" type="curve" smooth="yes"/>
      <point x="209" y="236"/>
      <point x="229" y="210"/>
      <point x="229" y="156" type="curve" smooth="yes"/>
      <point x="229" y="74" type="line" smooth="yes"/>
      <point x="229" y="57"/>
      <point x="228" y="41"/>
      <point x="225" y="30" type="curve"/>
      <point x="223" y="25"/>
      <point x="201" y="17"/>
      <point x="189" y="17" type="curve" smooth="yes"/>
      <point x="187" y="17"/>
      <point x="186" y="14"/>
      <point x="186" y="9" type="curve" smooth="yes"/>
      <point x="186" y="1"/>
      <point x="187" y="0"/>
      <point x="188" y="-2" type="curve"/>
      <point x="223" y="0"/>
      <point x="240" y="1"/>
      <point x="256" y="1" type="curve" smooth="yes"/>
      <point x="271" y="1"/>
      <point x="291" y="0"/>
      <point x="324" y="-2" type="curve"/>
      <point x="324" y="5" type="line" smooth="yes"/>
      <point x="324" y="12"/>
      <point x="323" y="17"/>
      <point x="322" y="17" type="curve" smooth="yes"/>
      <point x="311" y="17"/>
      <point x="286" y="25"/>
      <point x="285" y="30" type="curve"/>
      <point x="282" y="42"/>
      <point x="280" y="60"/>
      <point x="280" y="86" type="curve" smooth="yes"/>
      <point x="280" y="156" type="line" smooth="yes"/>
      <point x="280" y="239"/>
      <point x="254" y="276"/>
      <point x="202" y="276" type="curve" smooth="yes"/>
      <point x="176" y="276"/>
      <point x="139" y="255"/>
      <point x="115" y="233" type="curve"/>
      <point x="118" y="268" type="line"/>
      <point x="118" y="271"/>
      <point x="116" y="273"/>
      <point x="114" y="273" type="curve" smooth="yes"/>
      <point x="112" y="273"/>
      <point x="107" y="271"/>
      <point x="102" y="270" type="curve"/>
      <point x="81" y="265"/>
      <point x="57" y="260"/>
      <point x="20" y="255" type="curve"/>
      <point x="19" y="253"/>
      <point x="18" y="247"/>
      <point x="18" y="237" type="curve"/>
      <point x="34" y="237"/>
      <point x="48" y="232"/>
      <point x="54" y="225" type="curve" smooth="yes"/>
      <point x="60" y="218"/>
      <point x="63" y="207"/>
      <point x="63" y="190" type="curve" smooth="yes"/>
      <point x="63" y="74" type="line" smooth="yes"/>
      <point x="63" y="57"/>
      <point x="62" y="41"/>
      <point x="59" y="30" type="curve"/>
      <point x="58" y="25"/>
      <point x="34" y="17"/>
      <point x="20" y="17" type="curve" smooth="yes"/>
      <point x="19" y="17"/>
      <point x="18" y="14"/>
      <point x="18" y="9" type="curve" smooth="yes"/>
      <point x="18" y="5"/>
      <point x="19" y="2"/>
    </contour>
    <contour>
      <point x="353" y="-2" type="curve"/>
      <point x="387" y="0"/>
      <point x="405" y="1"/>
      <point x="420" y="1" type="curve" smooth="yes"/>
      <point x="436" y="1"/>
      <point x="455" y="0"/>
      <point x="489" y="-2" type="curve"/>
      <point x="489" y="-1"/>
      <point x="490" y="0"/>
      <point x="490" y="5" type="curve" smooth="yes"/>
      <point x="490" y="12"/>
      <point x="488" y="17"/>
      <point x="487" y="17" type="curve" smooth="yes"/>
      <point x="475" y="17"/>
      <point x="451" y="25"/>
      <point x="449" y="30" type="curve"/>
      <point x="446" y="42"/>
      <point x="445" y="60"/>
      <point x="445" y="86" type="curve" smooth="yes"/>
      <point x="445" y="156" type="line" smooth="yes"/>
      <point x="445" y="239"/>
      <point x="416" y="276"/>
      <point x="364" y="276" type="curve" smooth="yes"/>
      <point x="332" y="276"/>
      <point x="292" y="253"/>
      <point x="264" y="223" type="curve"/>
      <point x="274" y="179" type="line"/>
      <point x="274" y="211"/>
      <point x="306" y="236"/>
      <point x="335" y="236" type="curve" smooth="yes"/>
      <point x="374" y="236"/>
      <point x="393" y="210"/>
      <point x="393" y="156" type="curve" smooth="yes"/>
      <point x="393" y="74" type="line" smooth="yes"/>
      <point x="393" y="57"/>
      <point x="392" y="41"/>
      <point x="389" y="30" type="curve"/>
      <point x="387" y="25"/>
      <point x="366" y="17"/>
      <point x="354" y="17" type="curve" smooth="yes"/>
      <point x="352" y="17"/>
      <point x="351" y="14"/>
      <point x="351" y="9" type="curve" smooth="yes"/>
      <point x="351" y="1"/>
      <point x="352" y="0"/>
    </contour>
    <contour>
      <point x="252" y="0" type="move" name="bottom"/>
    </contour>
    <contour>
      <point x="252" y="271" type="move" name="top"/>
    </contour>
  </outline>
</glyph>
<glyph name="n" format="1">
  <advance width="344"/>
  <unicode hex="006E"/>
  <outline>
    <contour>
      <point x="19" y="-2" type="curve"/>
      <point x="54" y="0"/>
      <point x="79" y="1"/>
      <point x="90" y="1" type="curve" smooth="yes"/>
      <point x="101" y="1"/>
      <point x="124" y="0"/>
      <point x="158" y="-2" type="curve"/>
      <point x="158" y="-1"/>
      <point x="159" y="3"/>
      <point x="159" y="6" type="curve" smooth="yes"/>
      <point x="159" y="12"/>
      <point x="158" y="17"/>
      <point x="156" y="17" type="curve" smooth="yes"/>
      <point x="145" y="17"/>
      <point x="120" y="25"/>
      <point x="119" y="30" type="curve"/>
      <point x="116" y="42"/>
      <point x="114" y="60"/>
      <point x="114" y="86" type="curve" smooth="yes"/>
      <point x="114" y="189" type="line" smooth="yes"/>
      <point x="114" y="211"/>
      <point x="141" y="236"/>
      <point x="175" y="236" type="curve" smooth="yes"/>
      <point x="214" y="236"/>
      <point x="233" y="210"/>
      <point x="233" y="154" type="curve" smooth="yes"/>
      <point x="233" y="74" type="line" smooth="yes"/>
      <point x="233" y="57"/>
      <point x="232" y="41"/>
      <point x="229" y="30" type="curve"/>
      <point x="228" y="25"/>
      <point x="205" y="17"/>
      <point x="193" y="17" type="curve" smooth="yes"/>
      <point x="191" y="17"/>
      <point x="191" y="14"/>
      <point x="191" y="9" type="curve" smooth="yes"/>
      <point x="191" y="1"/>
      <point x="191" y="0"/>
      <point x="192" y="-2" type="curve"/>
      <point x="227" y="0"/>
      <point x="245" y="1"/>
      <point x="260" y="1" type="curve" smooth="yes"/>
      <point x="276" y="1"/>
      <point x="296" y="0"/>
      <point x="329" y="-2" type="curve"/>
      <point x="330" y="-1"/>
      <point x="330" y="0"/>
      <point x="330" y="5" type="curve" smooth="yes"/>
      <point x="330" y="12"/>
      <point x="329" y="17"/>
      <point x="327" y="17" type="curve" smooth="yes"/>
      <point x="316" y="17"/>
      <point x="291" y="25"/>
      <point x="290" y="30" type="curve"/>
      <point x="287" y="42"/>
      <point x="285" y="60"/>
      <point x="285" y="86" type="curve" smooth="yes"/>
      <point x="285" y="154" type="line" smooth="yes"/>
      <point x="285" y="239"/>
      <point x="258" y="276"/>
      <point x="204" y="276" type="curve" smooth="yes"/>
      <point x="175" y="276"/>
      <point x="138" y="255"/>
      <point x="114" y="233" type="curve"/>
      <point x="117" y="268" type="line"/>
      <point x="117" y="271"/>
      <point x="116" y="273"/>
      <point x="114" y="273" type="curve" smooth="yes"/>
      <point x="111" y="273"/>
      <point x="106" y="271"/>
      <point x="101" y="270" type="curve"/>
      <point x="81" y="265"/>
      <point x="56" y="260"/>
      <point x="20" y="255" type="curve"/>
      <point x="18" y="253"/>
      <point x="18" y="247"/>
      <point x="18" y="237" type="curve"/>
      <point x="33" y="237"/>
      <point x="47" y="232"/>
      <point x="54" y="225" type="curve"/>
      <point x="60" y="218"/>
      <point x="63" y="207"/>
      <point x="63" y="190" type="curve" smooth="yes"/>
      <point x="63" y="74" type="line" smooth="yes"/>
      <point x="63" y="57"/>
      <point x="62" y="41"/>
      <point x="58" y="30" type="curve"/>
      <point x="57" y="25"/>
      <point x="33" y="17"/>
      <point x="20" y="17" type="curve" smooth="yes"/>
      <point x="18" y="17"/>
      <point x="17" y="14"/>
      <point x="17" y="9" type="curve" smooth="yes"/>
      <point x="17" y="5"/>
      <point x="18" y="2"/>
    </contour>
    <contour>
      <point x="172" y="0" type="move" name="bottom"/>
    </contour>
    <contour>
      <point x="172" y="271" type="move" name="top"/>
    </contour>
  </outline>
</glyph>
<glyph name="o" format="1">
  <advance width="322"/>
  <unicode hex="006F"/>
  <outline>
    <contour>
      <point x="161" y="-4" type="curve" smooth="yes"/>
      <point x="241" y="-4"/>
      <point x="298" y="55"/>
      <point x="298" y="136" type="curve" smooth="yes"/>
      <point x="298" y="212"/>
      <point x="236" y="275"/>
      <point x="160" y="275" type="curve" smooth="yes"/>
      <point x="83" y="275"/>
      <point x="23" y="215"/>
      <point x="23" y="136" type="curve" smooth="yes"/>
      <point x="23" y="55"/>
      <point x="81" y="-4"/>
    </contour>
    <contour>
      <point x="168" y="21" type="curve" smooth="yes"/>
      <point x="120" y="21"/>
      <point x="80" y="78"/>
      <point x="80" y="146" type="curve" smooth="yes"/>
      <point x="80" y="206"/>
      <point x="105" y="250"/>
      <point x="153" y="250" type="curve" smooth="yes"/>
      <point x="201" y="250"/>
      <point x="242" y="193"/>
      <point x="242" y="127" type="curve" smooth="yes"/>
      <point x="242" y="66"/>
      <point x="216" y="21"/>
    </contour>
    <contour>
      <point x="161" y="0" type="move" name="bottom"/>
    </contour>
    <contour>
      <point x="161" y="136" type="move" name="center"/>
    </contour>
    <contour>
      <point x="289" y="6" type="move" name="ogonek"/>
    </contour>
    <contour>
      <point x="161" y="271" type="move" name="top"/>
    </contour>
    <contour>
      <point x="309" y="271" type="move" name="topright"/>
    </contour>
  </outline>
</glyph>
<glyph name="p" format="1">
  <advance width="328"/>
  <unicode hex="0070"/>
  <outline>
    <contour>
      <point x="18" y="-141" type="curve"/>
      <point x="47" y="-140"/>
      <point x="72" y="-138"/>
      <point x="88" y="-138" type="curve" smooth="yes"/>
      <point x="104" y="-138"/>
      <point x="129" y="-140"/>
      <point x="157" y="-141" type="curve"/>
      <point x="158" y="-140"/>
      <point x="158" y="-138"/>
      <point x="158" y="-135" type="curve" smooth="yes"/>
      <point x="158" y="-130"/>
      <point x="157" y="-123"/>
      <point x="155" y="-123" type="curve" smooth="yes"/>
      <point x="147" y="-123"/>
      <point x="119" y="-116"/>
      <point x="117" y="-110" type="curve"/>
      <point x="114" y="-97"/>
      <point x="112" y="-79"/>
      <point x="112" y="-54" type="curve" smooth="yes"/>
      <point x="112" y="3" type="line"/>
      <point x="118" y="2"/>
      <point x="138" y="-4"/>
      <point x="162" y="-4" type="curve" smooth="yes"/>
      <point x="236" y="-4"/>
      <point x="304" y="69"/>
      <point x="304" y="146" type="curve" smooth="yes"/>
      <point x="304" y="205"/>
      <point x="259" y="276"/>
      <point x="178" y="276" type="curve" smooth="yes"/>
      <point x="159" y="276"/>
      <point x="136" y="268"/>
      <point x="112" y="246" type="curve"/>
      <point x="114" y="268" type="line"/>
      <point x="114" y="271"/>
      <point x="113" y="273"/>
      <point x="111" y="273" type="curve" smooth="yes"/>
      <point x="108" y="273"/>
      <point x="103" y="271"/>
      <point x="98" y="270" type="curve"/>
      <point x="78" y="265"/>
      <point x="54" y="260"/>
      <point x="18" y="255" type="curve"/>
      <point x="17" y="253"/>
      <point x="16" y="247"/>
      <point x="16" y="237" type="curve"/>
      <point x="31" y="237"/>
      <point x="46" y="232"/>
      <point x="52" y="225" type="curve" smooth="yes"/>
      <point x="58" y="218"/>
      <point x="61" y="207"/>
      <point x="61" y="190" type="curve" smooth="yes"/>
      <point x="61" y="-66" type="line" smooth="yes"/>
      <point x="61" y="-83"/>
      <point x="60" y="-98"/>
      <point x="57" y="-110" type="curve"/>
      <point x="55" y="-116"/>
      <point x="28" y="-123"/>
      <point x="18" y="-123" type="curve" smooth="yes"/>
      <point x="16" y="-123"/>
      <point x="15" y="-125"/>
      <point x="15" y="-131" type="curve" smooth="yes"/>
      <point x="15" y="-136"/>
      <point x="16" y="-140"/>
    </contour>
    <contour>
      <point x="167" y="23" type="curve" smooth="yes"/>
      <point x="131" y="23"/>
      <point x="112" y="39"/>
      <point x="112" y="64" type="curve" smooth="yes"/>
      <point x="112" y="199" type="line" smooth="yes"/>
      <point x="112" y="226"/>
      <point x="134" y="244"/>
      <point x="158" y="244" type="curve" smooth="yes"/>
      <point x="209" y="244"/>
      <point x="247" y="199"/>
      <point x="247" y="132" type="curve" smooth="yes"/>
      <point x="247" y="68"/>
      <point x="214" y="23"/>
    </contour>
    <contour>
      <point x="164" y="0" type="move" name="bottom"/>
    </contour>
    <contour>
      <point x="164" y="271" type="move" name="top"/>
    </contour>
  </outline>
</glyph>
<glyph name="q" format="1">
  <advance width="323"/>
  <unicode hex="0071"/>
  <outline>
    <contour>
      <point x="172" y="-141" type="curve"/>
      <point x="202" y="-140"/>
      <point x="226" y="-138"/>
      <point x="242" y="-138" type="curve" smooth="yes"/>
      <point x="258" y="-138"/>
      <point x="283" y="-140"/>
      <point x="311" y="-141" type="curve"/>
      <point x="312" y="-140"/>
      <point x="312" y="-138"/>
      <point x="312" y="-135" type="curve" smooth="yes"/>
      <point x="312" y="-130"/>
      <point x="311" y="-123"/>
      <point x="309" y="-123" type="curve" smooth="yes"/>
      <point x="301" y="-123"/>
      <point x="273" y="-116"/>
      <point x="272" y="-110" type="curve"/>
      <point x="267" y="-98"/>
      <point x="267" y="-79"/>
      <point x="267" y="-54" type="curve" smooth="yes"/>
      <point x="267" y="187" type="line" smooth="yes"/>
      <point x="267" y="212"/>
      <point x="271" y="250"/>
      <point x="274" y="267" type="curve"/>
      <point x="272" y="270"/>
      <point x="264" y="274"/>
      <point x="260" y="274" type="curve"/>
      <point x="249" y="271"/>
      <point x="241" y="267"/>
      <point x="235" y="267" type="curve" smooth="yes"/>
      <point x="223" y="267"/>
      <point x="199" y="277"/>
      <point x="165" y="277" type="curve" smooth="yes"/>
      <point x="94" y="277"/>
      <point x="23" y="207"/>
      <point x="23" y="123" type="curve" smooth="yes"/>
      <point x="23" y="59"/>
      <point x="74" y="-3"/>
      <point x="143" y="-3" type="curve" smooth="yes"/>
      <point x="167" y="-3"/>
      <point x="187" y="5"/>
      <point x="215" y="24" type="curve"/>
      <point x="215" y="-66" type="line" smooth="yes"/>
      <point x="215" y="-83"/>
      <point x="214" y="-98"/>
      <point x="211" y="-110" type="curve"/>
      <point x="209" y="-116"/>
      <point x="182" y="-123"/>
      <point x="172" y="-123" type="curve" smooth="yes"/>
      <point x="171" y="-123"/>
      <point x="170" y="-125"/>
      <point x="170" y="-131" type="curve" smooth="yes"/>
      <point x="170" y="-136"/>
      <point x="171" y="-140"/>
    </contour>
    <contour>
      <point x="171" y="30" type="curve" smooth="yes"/>
      <point x="121" y="30"/>
      <point x="80" y="77"/>
      <point x="80" y="142" type="curve" smooth="yes"/>
      <point x="80" y="212"/>
      <point x="118" y="249"/>
      <point x="163" y="249" type="curve" smooth="yes"/>
      <point x="192" y="249"/>
      <point x="215" y="234"/>
      <point x="215" y="206" type="curve" smooth="yes"/>
      <point x="215" y="69" type="line" smooth="yes"/>
      <point x="215" y="44"/>
      <point x="199" y="30"/>
    </contour>
    <contour>
      <point x="155" y="0" type="move" name="bottom"/>
    </contour>
    <contour>
      <point x="155" y="271" type="move" name="top"/>
    </contour>
  </outline>
</glyph>
<glyph name="r" format="1">
  <advance width="230"/>
  <unicode hex="0072"/>
  <outline>
    <contour>
      <point x="20" y="-2" type="curve"/>
      <point x="52" y="0"/>
      <point x="74" y="1"/>
      <point x="90" y="1" type="curve" smooth="yes"/>
      <point x="103" y="1"/>
      <point x="121" y="0"/>
      <point x="161" y="-2" type="curve"/>
      <point x="161" y="-1"/>
      <point x="162" y="2"/>
      <point x="162" y="5" type="curve" smooth="yes"/>
      <point x="162" y="11"/>
      <point x="160" y="17"/>
      <point x="159" y="17" type="curve" smooth="yes"/>
      <point x="146" y="17"/>
      <point x="120" y="25"/>
      <point x="119" y="30" type="curve"/>
      <point x="115" y="40"/>
      <point x="114" y="56"/>
      <point x="114" y="86" type="curve" smooth="yes"/>
      <point x="114" y="170" type="line" smooth="yes"/>
      <point x="114" y="207"/>
      <point x="136" y="234"/>
      <point x="158" y="234" type="curve" smooth="yes"/>
      <point x="184" y="234"/>
      <point x="182" y="212"/>
      <point x="202" y="212" type="curve" smooth="yes"/>
      <point x="217" y="212"/>
      <point x="227" y="225"/>
      <point x="227" y="243" type="curve" smooth="yes"/>
      <point x="227" y="263"/>
      <point x="210" y="275"/>
      <point x="189" y="275" type="curve" smooth="yes"/>
      <point x="160" y="275"/>
      <point x="131" y="254"/>
      <point x="113" y="229" type="curve"/>
      <point x="115" y="240"/>
      <point x="117" y="256"/>
      <point x="117" y="268" type="curve" smooth="yes"/>
      <point x="117" y="271"/>
      <point x="116" y="273"/>
      <point x="114" y="273" type="curve" smooth="yes"/>
      <point x="111" y="273"/>
      <point x="106" y="271"/>
      <point x="101" y="270" type="curve" smooth="yes"/>
      <point x="69" y="263"/>
      <point x="45" y="258"/>
      <point x="20" y="255" type="curve"/>
      <point x="18" y="253"/>
      <point x="18" y="247"/>
      <point x="18" y="237" type="curve"/>
      <point x="33" y="237"/>
      <point x="47" y="232"/>
      <point x="54" y="225" type="curve"/>
      <point x="60" y="218"/>
      <point x="63" y="206"/>
      <point x="63" y="190" type="curve" smooth="yes"/>
      <point x="63" y="74" type="line" smooth="yes"/>
      <point x="63" y="54"/>
      <point x="62" y="39"/>
      <point x="58" y="30" type="curve"/>
      <point x="57" y="25"/>
      <point x="32" y="17"/>
      <point x="20" y="17" type="curve" smooth="yes"/>
      <point x="18" y="17"/>
      <point x="17" y="15"/>
      <point x="17" y="9" type="curve" smooth="yes"/>
      <point x="17" y="3"/>
      <point x="18" y="0"/>
    </contour>
    <contour>
      <point x="89" y="0" type="move" name="bottom"/>
    </contour>
    <contour>
      <point x="121" y="271" type="move" name="top"/>
    </contour>
  </outline>
</glyph>
<glyph name="s" format="1">
  <advance width="227"/>
  <unicode hex="0073"/>
  <outline>
    <contour>
      <point x="110" y="-7" type="curve" smooth="yes"/>
      <point x="164" y="-7"/>
      <point x="208" y="31"/>
      <point x="208" y="80" type="curve" smooth="yes"/>
      <point x="208" y="107"/>
      <point x="191" y="128"/>
      <point x="134" y="158" type="curve" smooth="yes"/>
      <point x="88" y="182"/>
      <point x="79" y="196"/>
      <point x="79" y="215" type="curve" smooth="yes"/>
      <point x="79" y="238"/>
      <point x="98" y="252"/>
      <point x="121" y="252" type="curve" smooth="yes"/>
      <point x="146" y="252"/>
      <point x="166" y="238"/>
      <point x="175" y="202" type="curve"/>
      <point x="176" y="199"/>
      <point x="179" y="198"/>
      <point x="185" y="198" type="curve" smooth="yes"/>
      <point x="191" y="198"/>
      <point x="194" y="199"/>
      <point x="194" y="201" type="curve"/>
      <point x="193" y="225"/>
      <point x="191" y="247"/>
      <point x="186" y="267" type="curve"/>
      <point x="164" y="273"/>
      <point x="148" y="275"/>
      <point x="126" y="275" type="curve" smooth="yes"/>
      <point x="72" y="275"/>
      <point x="28" y="243"/>
      <point x="28" y="197" type="curve" smooth="yes"/>
      <point x="28" y="167"/>
      <point x="47" y="143"/>
      <point x="98" y="118" type="curve" smooth="yes"/>
      <point x="144" y="95"/>
      <point x="155" y="81"/>
      <point x="155" y="58" type="curve" smooth="yes"/>
      <point x="155" y="31"/>
      <point x="137" y="17"/>
      <point x="112" y="17" type="curve" smooth="yes"/>
      <point x="76" y="17"/>
      <point x="49" y="46"/>
      <point x="44" y="72" type="curve"/>
      <point x="43" y="75"/>
      <point x="39" y="76"/>
      <point x="33" y="76" type="curve" smooth="yes"/>
      <point x="30" y="76"/>
      <point x="27" y="75"/>
      <point x="25" y="74" type="curve"/>
      <point x="25" y="56"/>
      <point x="30" y="21"/>
      <point x="35" y="5" type="curve"/>
      <point x="66" y="0"/>
      <point x="77" y="-7"/>
    </contour>
    <contour>
      <point x="114" y="0" type="move" name="bottom"/>
    </contour>
    <contour>
      <point x="114" y="271" type="move" name="top"/>
    </contour>
  </outline>
</glyph>
<glyph name="t" format="1">
  <advance width="207"/>
  <unicode hex="0074"/>
  <outline>
    <contour>
      <point x="130" y="-4" type="curve" smooth="yes"/>
      <point x="158" y="-4"/>
      <point x="187" y="12"/>
      <point x="200" y="26" type="curve"/>
      <point x="200" y="28"/>
      <point x="194" y="39"/>
      <point x="192" y="41" type="curve"/>
      <point x="179" y="33"/>
      <point x="165" y="29"/>
      <point x="153" y="29" type="curve" smooth="yes"/>
      <point x="122" y="29"/>
      <point x="107" y="51"/>
      <point x="107" y="83" type="curve" smooth="yes"/>
      <point x="107" y="235" type="line"/>
      <point x="190" y="235" type="line"/>
      <point x="194" y="243"/>
      <point x="196" y="251"/>
      <point x="196" y="259" type="curve" smooth="yes"/>
      <point x="196" y="263"/>
      <point x="194" y="265"/>
      <point x="191" y="265" type="curve" smooth="yes"/>
      <point x="107" y="265" type="line"/>
      <point x="107" y="328" type="line"/>
      <point x="106" y="330"/>
      <point x="99" y="331"/>
      <point x="87" y="331" type="curve"/>
      <point x="71" y="301"/>
      <point x="43" y="265"/>
      <point x="16" y="253" type="curve"/>
      <point x="15" y="252"/>
      <point x="15" y="251"/>
      <point x="15" y="248" type="curve" smooth="yes"/>
      <point x="15" y="239"/>
      <point x="16" y="235"/>
      <point x="18" y="235" type="curve" smooth="yes"/>
      <point x="55" y="235" type="line"/>
      <point x="55" y="64" type="line" smooth="yes"/>
      <point x="55" y="25"/>
      <point x="81" y="-4"/>
    </contour>
    <contour>
      <point x="128" y="0" type="move" name="bottom"/>
    </contour>
    <contour>
      <point x="99" y="169" type="move" name="center"/>
    </contour>
    <contour>
      <point x="81" y="315" type="move" name="top"/>
    </contour>
    <contour>
      <point x="131" y="271" type="move" name="topright"/>
    </contour>
  </outline>
</glyph>
<glyph name="u" format="1">
  <advance width="337"/>
  <unicode hex="0075"/>
  <outline>
    <contour>
      <point x="138" y="-4" type="curve" smooth="yes"/>
      <point x="165" y="-4"/>
      <point x="201" y="16"/>
      <point x="225" y="38" type="curve"/>
      <point x="222" y="3" type="line"/>
      <point x="222" y="0"/>
      <point x="223" y="-2"/>
      <point x="226" y="-2" type="curve" smooth="yes"/>
      <point x="228" y="-2"/>
      <point x="233" y="0"/>
      <point x="238" y="1" type="curve"/>
      <point x="259" y="6"/>
      <point x="283" y="11"/>
      <point x="320" y="16" type="curve"/>
      <point x="321" y="18"/>
      <point x="322" y="24"/>
      <point x="322" y="34" type="curve"/>
      <point x="306" y="34"/>
      <point x="292" y="39"/>
      <point x="286" y="46" type="curve" smooth="yes"/>
      <point x="280" y="53"/>
      <point x="277" y="65"/>
      <point x="277" y="81" type="curve" smooth="yes"/>
      <point x="277" y="196" type="line" smooth="yes"/>
      <point x="277" y="239"/>
      <point x="280" y="259"/>
      <point x="280" y="268" type="curve" smooth="yes"/>
      <point x="280" y="271"/>
      <point x="278" y="273"/>
      <point x="276" y="273" type="curve" smooth="yes"/>
      <point x="274" y="273"/>
      <point x="269" y="271"/>
      <point x="264" y="270" type="curve"/>
      <point x="243" y="265"/>
      <point x="219" y="260"/>
      <point x="182" y="255" type="curve"/>
      <point x="181" y="253"/>
      <point x="180" y="247"/>
      <point x="180" y="237" type="curve"/>
      <point x="196" y="237"/>
      <point x="210" y="232"/>
      <point x="216" y="225" type="curve" smooth="yes"/>
      <point x="222" y="218"/>
      <point x="225" y="207"/>
      <point x="225" y="190" type="curve" smooth="yes"/>
      <point x="225" y="82" type="line" smooth="yes"/>
      <point x="225" y="60"/>
      <point x="198" y="35"/>
      <point x="166" y="35" type="curve" smooth="yes"/>
      <point x="129" y="35"/>
      <point x="109" y="61"/>
      <point x="109" y="104" type="curve" smooth="yes"/>
      <point x="109" y="196" type="line" smooth="yes"/>
      <point x="109" y="239"/>
      <point x="112" y="259"/>
      <point x="112" y="268" type="curve" smooth="yes"/>
      <point x="112" y="271"/>
      <point x="111" y="273"/>
      <point x="109" y="273" type="curve" smooth="yes"/>
      <point x="106" y="273"/>
      <point x="101" y="271"/>
      <point x="96" y="270" type="curve"/>
      <point x="76" y="265"/>
      <point x="51" y="260"/>
      <point x="15" y="255" type="curve"/>
      <point x="13" y="253"/>
      <point x="13" y="247"/>
      <point x="13" y="237" type="curve"/>
      <point x="28" y="237"/>
      <point x="42" y="232"/>
      <point x="49" y="225" type="curve"/>
      <point x="55" y="218"/>
      <point x="58" y="207"/>
      <point x="58" y="190" type="curve" smooth="yes"/>
      <point x="58" y="104" type="line" smooth="yes"/>
      <point x="58" y="32"/>
      <point x="84" y="-4"/>
    </contour>
    <contour>
      <point x="169" y="0" type="move" name="bottom"/>
    </contour>
    <contour>
      <point x="315" y="6" type="move" name="ogonek"/>
    </contour>
    <contour>
      <point x="169" y="271" type="move" name="top"/>
    </contour>
    <contour>
      <point x="327" y="271" type="move" name="topright"/>
    </contour>
  </outline>
</glyph>
<glyph name="v" format="1">
  <advance width="309"/>
  <unicode hex="0076"/>
  <outline>
    <contour>
      <point x="152" y="-7" type="curve" smooth="yes"/>
      <point x="158" y="-7"/>
      <point x="163" y="-3"/>
      <point x="168" y="8" type="curve" smooth="yes"/>
      <point x="269" y="233" type="line" smooth="yes"/>
      <point x="276" y="248"/>
      <point x="299" y="254"/>
      <point x="313" y="254" type="curve" smooth="yes"/>
      <point x="316" y="254"/>
      <point x="317" y="258"/>
      <point x="317" y="264" type="curve" smooth="yes"/>
      <point x="317" y="267"/>
      <point x="316" y="271"/>
      <point x="315" y="273" type="curve"/>
      <point x="294" y="272"/>
      <point x="274" y="270"/>
      <point x="253" y="270" type="curve" smooth="yes"/>
      <point x="234" y="270"/>
      <point x="202" y="272"/>
      <point x="191" y="273" type="curve"/>
      <point x="189" y="271"/>
      <point x="189" y="268"/>
      <point x="189" y="263" type="curve" smooth="yes"/>
      <point x="189" y="257"/>
      <point x="189" y="254"/>
      <point x="191" y="254" type="curve" smooth="yes"/>
      <point x="222" y="254"/>
      <point x="236" y="247"/>
      <point x="236" y="234" type="curve" smooth="yes"/>
      <point x="236" y="230"/>
      <point x="235" y="223"/>
      <point x="231" y="215" type="curve"/>
      <point x="168" y="73" type="line"/>
      <point x="98" y="236" type="line"/>
      <point x="97" y="238"/>
      <point x="95" y="242"/>
      <point x="95" y="245" type="curve" smooth="yes"/>
      <point x="95" y="250"/>
      <point x="105" y="254"/>
      <point x="127" y="254" type="curve" smooth="yes"/>
      <point x="129" y="254"/>
      <point x="130" y="260"/>
      <point x="130" y="265" type="curve" smooth="yes"/>
      <point x="130" y="269"/>
      <point x="129" y="272"/>
      <point x="128" y="273" type="curve"/>
      <point x="108" y="272"/>
      <point x="85" y="270"/>
      <point x="64" y="270" type="curve" smooth="yes"/>
      <point x="48" y="270"/>
      <point x="31" y="271"/>
      <point x="-3" y="273" type="curve"/>
      <point x="-5" y="271"/>
      <point x="-5" y="268"/>
      <point x="-5" y="263" type="curve" smooth="yes"/>
      <point x="-5" y="257"/>
      <point x="-5" y="254"/>
      <point x="-3" y="254" type="curve" smooth="yes"/>
      <point x="18" y="254"/>
      <point x="31" y="249"/>
      <point x="39" y="231" type="curve" smooth="yes"/>
      <point x="142" y="1" type="line"/>
      <point x="144" y="-5"/>
      <point x="149" y="-7"/>
    </contour>
    <contour>
      <point x="152" y="0" type="move" name="bottom"/>
    </contour>
    <contour>
      <point x="152" y="271" type="move" name="top"/>
    </contour>
  </outline>
</glyph>
<glyph name="w" format="1">
  <advance width="466"/>
  <unicode hex="0077"/>
  <outline>
    <contour>
      <point x="315" y="-7" type="curve" smooth="yes"/>
      <point x="320" y="-7"/>
      <point x="325" y="-3"/>
      <point x="331" y="8" type="curve"/>
      <point x="426" y="233" type="line" smooth="yes"/>
      <point x="432" y="248"/>
      <point x="456" y="254"/>
      <point x="469" y="254" type="curve" smooth="yes"/>
      <point x="472" y="254"/>
      <point x="473" y="258"/>
      <point x="473" y="264" type="curve" smooth="yes"/>
      <point x="473" y="267"/>
      <point x="473" y="271"/>
      <point x="472" y="273" type="curve"/>
      <point x="451" y="272"/>
      <point x="430" y="270"/>
      <point x="410" y="270" type="curve" smooth="yes"/>
      <point x="390" y="270"/>
      <point x="358" y="272"/>
      <point x="348" y="273" type="curve"/>
      <point x="346" y="271"/>
      <point x="345" y="268"/>
      <point x="345" y="263" type="curve" smooth="yes"/>
      <point x="345" y="257"/>
      <point x="346" y="254"/>
      <point x="348" y="254" type="curve" smooth="yes"/>
      <point x="378" y="254"/>
      <point x="393" y="247"/>
      <point x="393" y="234" type="curve" smooth="yes"/>
      <point x="393" y="230"/>
      <point x="391" y="223"/>
      <point x="388" y="215" type="curve" smooth="yes"/>
      <point x="331" y="73" type="line"/>
      <point x="266" y="236" type="line"/>
      <point x="265" y="238"/>
      <point x="263" y="242"/>
      <point x="263" y="245" type="curve" smooth="yes"/>
      <point x="263" y="250"/>
      <point x="273" y="254"/>
      <point x="295" y="254" type="curve" smooth="yes"/>
      <point x="297" y="254"/>
      <point x="298" y="260"/>
      <point x="298" y="265" type="curve" smooth="yes"/>
      <point x="298" y="269"/>
      <point x="297" y="272"/>
      <point x="296" y="273" type="curve"/>
      <point x="276" y="272"/>
      <point x="253" y="270"/>
      <point x="232" y="270" type="curve" smooth="yes"/>
      <point x="216" y="270"/>
      <point x="199" y="271"/>
      <point x="166" y="273" type="curve"/>
      <point x="164" y="271"/>
      <point x="163" y="268"/>
      <point x="163" y="263" type="curve" smooth="yes"/>
      <point x="163" y="257"/>
      <point x="164" y="254"/>
      <point x="166" y="254" type="curve" smooth="yes"/>
      <point x="186" y="254"/>
      <point x="199" y="249"/>
      <point x="207" y="231" type="curve" smooth="yes"/>
      <point x="304" y="1" type="line"/>
      <point x="306" y="-5"/>
      <point x="311" y="-7"/>
    </contour>
    <contour>
      <point x="148" y="-7" type="curve" smooth="yes"/>
      <point x="154" y="-7"/>
      <point x="159" y="-3"/>
      <point x="164" y="8" type="curve" smooth="yes"/>
      <point x="250" y="208" type="line"/>
      <point x="226" y="217" type="line"/>
      <point x="164" y="73" type="line"/>
      <point x="98" y="236" type="line"/>
      <point x="98" y="238"/>
      <point x="96" y="242"/>
      <point x="96" y="245" type="curve" smooth="yes"/>
      <point x="96" y="250"/>
      <point x="106" y="254"/>
      <point x="127" y="254" type="curve" smooth="yes"/>
      <point x="129" y="254"/>
      <point x="130" y="260"/>
      <point x="130" y="265" type="curve" smooth="yes"/>
      <point x="130" y="269"/>
      <point x="129" y="272"/>
      <point x="128" y="273" type="curve"/>
      <point x="108" y="272"/>
      <point x="86" y="270"/>
      <point x="65" y="270" type="curve" smooth="yes"/>
      <point x="49" y="270"/>
      <point x="32" y="271"/>
      <point x="-2" y="273" type="curve"/>
      <point x="-4" y="271"/>
      <point x="-5" y="268"/>
      <point x="-5" y="263" type="curve" smooth="yes"/>
      <point x="-5" y="257"/>
      <point x="-4" y="254"/>
      <point x="-2" y="254" type="curve" smooth="yes"/>
      <point x="18" y="254"/>
      <point x="32" y="249"/>
      <point x="40" y="231" type="curve" smooth="yes"/>
      <point x="138" y="1" type="line"/>
      <point x="140" y="-5"/>
      <point x="145" y="-7"/>
    </contour>
    <contour>
      <point x="233" y="0" type="move" name="bottom"/>
    </contour>
    <contour>
      <point x="233" y="271" type="move" name="top"/>
    </contour>
  </outline>
</glyph>
<glyph name="x" format="1">
  <advance width="298"/>
  <unicode hex="0078"/>
  <outline>
    <contour>
      <point x="167" y="-2" type="curve"/>
      <point x="199" y="0"/>
      <point x="223" y="1"/>
      <point x="237" y="1" type="curve" smooth="yes"/>
      <point x="251" y="1"/>
      <point x="272" y="0"/>
      <point x="298" y="-2" type="curve"/>
      <point x="300" y="0"/>
      <point x="301" y="3"/>
      <point x="301" y="7" type="curve" smooth="yes"/>
      <point x="301" y="13"/>
      <point x="300" y="17"/>
      <point x="299" y="17" type="curve"/>
      <point x="275" y="19"/>
      <point x="258" y="28"/>
      <point x="246" y="45" type="curve" smooth="yes"/>
      <point x="119" y="234" type="line"/>
      <point x="116" y="238"/>
      <point x="115" y="241"/>
      <point x="115" y="243" type="curve" smooth="yes"/>
      <point x="115" y="250"/>
      <point x="124" y="254"/>
      <point x="141" y="254" type="curve" smooth="yes"/>
      <point x="142" y="254"/>
      <point x="143" y="258"/>
      <point x="143" y="265" type="curve" smooth="yes"/>
      <point x="143" y="269"/>
      <point x="142" y="271"/>
      <point x="142" y="273" type="curve"/>
      <point x="109" y="271"/>
      <point x="87" y="270"/>
      <point x="74" y="270" type="curve" smooth="yes"/>
      <point x="61" y="270"/>
      <point x="40" y="271"/>
      <point x="10" y="273" type="curve"/>
      <point x="9" y="271"/>
      <point x="8" y="268"/>
      <point x="8" y="264" type="curve" smooth="yes"/>
      <point x="8" y="260"/>
      <point x="9" y="257"/>
      <point x="9" y="254" type="curve"/>
      <point x="24" y="254"/>
      <point x="53" y="243"/>
      <point x="60" y="232" type="curve" smooth="yes"/>
      <point x="190" y="36" type="line" smooth="yes"/>
      <point x="192" y="33"/>
      <point x="194" y="29"/>
      <point x="194" y="26" type="curve" smooth="yes"/>
      <point x="194" y="22"/>
      <point x="185" y="18"/>
      <point x="168" y="17" type="curve"/>
      <point x="166" y="17"/>
      <point x="166" y="13"/>
      <point x="166" y="6" type="curve" smooth="yes"/>
      <point x="166" y="5"/>
      <point x="166" y="2"/>
    </contour>
    <contour>
      <point x="3" y="-2" type="curve"/>
      <point x="30" y="0"/>
      <point x="52" y="1"/>
      <point x="66" y="1" type="curve" smooth="yes"/>
      <point x="80" y="1"/>
      <point x="103" y="0"/>
      <point x="130" y="-2" type="curve"/>
      <point x="132" y="0"/>
      <point x="132" y="3"/>
      <point x="132" y="7" type="curve" smooth="yes"/>
      <point x="132" y="13"/>
      <point x="132" y="17"/>
      <point x="130" y="17" type="curve"/>
      <point x="110" y="18"/>
      <point x="95" y="23"/>
      <point x="95" y="31" type="curve" smooth="yes"/>
      <point x="95" y="34"/>
      <point x="97" y="38"/>
      <point x="100" y="43" type="curve"/>
      <point x="145" y="111" type="line"/>
      <point x="132" y="135" type="line"/>
      <point x="61" y="43" type="line"/>
      <point x="52" y="30"/>
      <point x="32" y="21"/>
      <point x="5" y="17" type="curve"/>
      <point x="3" y="17"/>
      <point x="2" y="14"/>
      <point x="2" y="7" type="curve" smooth="yes"/>
      <point x="2" y="4"/>
      <point x="3" y="1"/>
    </contour>
    <contour>
      <point x="172" y="149" type="line"/>
      <point x="237" y="233" type="line" smooth="yes"/>
      <point x="245" y="244"/>
      <point x="264" y="251"/>
      <point x="291" y="254" type="curve"/>
      <point x="293" y="254"/>
      <point x="293" y="258"/>
      <point x="293" y="264" type="curve" smooth="yes"/>
      <point x="293" y="266"/>
      <point x="293" y="269"/>
      <point x="292" y="273" type="curve"/>
      <point x="266" y="271"/>
      <point x="246" y="270"/>
      <point x="233" y="270" type="curve" smooth="yes"/>
      <point x="220" y="270"/>
      <point x="198" y="271"/>
      <point x="166" y="273" type="curve"/>
      <point x="165" y="271"/>
      <point x="164" y="268"/>
      <point x="164" y="265" type="curve" smooth="yes"/>
      <point x="164" y="258"/>
      <point x="165" y="255"/>
      <point x="166" y="254" type="curve"/>
      <point x="189" y="253"/>
      <point x="201" y="252"/>
      <point x="201" y="243" type="curve" smooth="yes"/>
      <point x="201" y="239"/>
      <point x="198" y="231"/>
      <point x="194" y="224" type="curve"/>
      <point x="156" y="170" type="line"/>
    </contour>
    <contour>
      <point x="149" y="0" type="move" name="bottom"/>
    </contour>
    <contour>
      <point x="149" y="271" type="move" name="top"/>
    </contour>
  </outline>
</glyph>
<glyph name="y" format="1">
  <advance width="309"/>
  <unicode hex="0079"/>
  <outline>
    <contour>
      <point x="60" y="-142" type="curve" smooth="yes"/>
      <point x="89" y="-142"/>
      <point x="112" y="-120"/>
      <point x="135" y="-68" type="curve" smooth="yes"/>
      <point x="269" y="233" type="line"/>
      <point x="276" y="246"/>
      <point x="292" y="254"/>
      <point x="314" y="254" type="curve" smooth="yes"/>
      <point x="316" y="254"/>
      <point x="317" y="257"/>
      <point x="317" y="264" type="curve" smooth="yes"/>
      <point x="317" y="266"/>
      <point x="317" y="269"/>
      <point x="315" y="273" type="curve"/>
      <point x="304" y="272"/>
      <point x="272" y="270"/>
      <point x="255" y="270" type="curve" smooth="yes"/>
      <point x="235" y="270"/>
      <point x="202" y="272"/>
      <point x="191" y="273" type="curve"/>
      <point x="189" y="271"/>
      <point x="189" y="268"/>
      <point x="189" y="263" type="curve" smooth="yes"/>
      <point x="189" y="257"/>
      <point x="189" y="254"/>
      <point x="191" y="254" type="curve" smooth="yes"/>
      <point x="222" y="254"/>
      <point x="236" y="247"/>
      <point x="236" y="234" type="curve" smooth="yes"/>
      <point x="236" y="230"/>
      <point x="235" y="225"/>
      <point x="231" y="215" type="curve" smooth="yes"/>
      <point x="161" y="55" type="line"/>
      <point x="144" y="21" type="line"/>
      <point x="114" y="-42" type="line" smooth="yes"/>
      <point x="100" y="-70"/>
      <point x="85" y="-82"/>
      <point x="50" y="-90" type="curve"/>
      <point x="36" y="-94"/>
      <point x="29" y="-103"/>
      <point x="29" y="-115" type="curve" smooth="yes"/>
      <point x="29" y="-132"/>
      <point x="41" y="-142"/>
    </contour>
    <contour>
      <point x="146" y="-10" type="line"/>
      <point x="172" y="64" type="line"/>
      <point x="98" y="236" type="line"/>
      <point x="96" y="239"/>
      <point x="95" y="243"/>
      <point x="95" y="245" type="curve" smooth="yes"/>
      <point x="95" y="251"/>
      <point x="106" y="254"/>
      <point x="127" y="254" type="curve" smooth="yes"/>
      <point x="129" y="254"/>
      <point x="130" y="259"/>
      <point x="130" y="265" type="curve" smooth="yes"/>
      <point x="130" y="269"/>
      <point x="130" y="271"/>
      <point x="128" y="273" type="curve"/>
      <point x="118" y="272"/>
      <point x="85" y="270"/>
      <point x="64" y="270" type="curve" smooth="yes"/>
      <point x="55" y="270"/>
      <point x="33" y="271"/>
      <point x="-3" y="273" type="curve"/>
      <point x="-5" y="271"/>
      <point x="-5" y="269"/>
      <point x="-5" y="263" type="curve" smooth="yes"/>
      <point x="-5" y="257"/>
      <point x="-5" y="254"/>
      <point x="-3" y="254" type="curve" smooth="yes"/>
      <point x="20" y="254"/>
      <point x="32" y="248"/>
      <point x="39" y="231" type="curve" smooth="yes"/>
    </contour>
    <contour>
      <point x="217" y="0" type="move" name="bottom"/>
    </contour>
    <contour>
      <point x="155" y="271" type="move" name="top"/>
    </contour>
  </outline>
</glyph>
<glyph name="z" format="1">
  <advance width="264"/>
  <unicode hex="007A"/>
  <outline>
    <contour>
      <point x="244" y="-3" type="curve"/>
      <point x="257" y="76" type="line"/>
      <point x="254" y="81"/>
      <point x="249" y="83"/>
      <point x="239" y="83" type="curve" smooth="yes"/>
      <point x="237" y="83"/>
      <point x="235" y="81"/>
      <point x="234" y="76" type="curve"/>
      <point x="223" y="40"/>
      <point x="207" y="26"/>
      <point x="176" y="26" type="curve" smooth="yes"/>
      <point x="78" y="26" type="line"/>
      <point x="81" y="20" type="line"/>
      <point x="251" y="261" type="line"/>
      <point x="251" y="269"/>
      <point x="250" y="274"/>
      <point x="249" y="276" type="curve"/>
      <point x="221" y="273"/>
      <point x="195" y="271"/>
      <point x="172" y="271" type="curve" smooth="yes"/>
      <point x="94" y="271" type="line" smooth="yes"/>
      <point x="79" y="271"/>
      <point x="59" y="272"/>
      <point x="34" y="274" type="curve"/>
      <point x="34" y="262"/>
      <point x="32" y="247"/>
      <point x="29" y="228" type="curve"/>
      <point x="26" y="214"/>
      <point x="24" y="201"/>
      <point x="24" y="199" type="curve" smooth="yes"/>
      <point x="24" y="197"/>
      <point x="28" y="195"/>
      <point x="34" y="195" type="curve" smooth="yes"/>
      <point x="41" y="195"/>
      <point x="45" y="197"/>
      <point x="46" y="199" type="curve"/>
      <point x="57" y="237"/>
      <point x="65" y="245"/>
      <point x="88" y="245" type="curve" smooth="yes"/>
      <point x="196" y="245" type="line"/>
      <point x="190" y="261" type="line"/>
      <point x="20" y="17" type="line"/>
      <point x="19" y="16"/>
      <point x="19" y="16"/>
      <point x="19" y="14" type="curve" smooth="yes"/>
      <point x="19" y="9"/>
      <point x="22" y="4"/>
      <point x="27" y="0" type="curve"/>
      <point x="178" y="0" type="line" smooth="yes"/>
      <point x="200" y="0"/>
      <point x="220" y="-1"/>
    </contour>
    <contour>
      <point x="132" y="0" type="move" name="bottom"/>
    </contour>
    <contour>
      <point x="132" y="136" type="move" name="center"/>
    </contour>
    <contour>
      <point x="132" y="271" type="move" name="top"/>
    </contour>
  </outline>
</glyph>
<glyph name="braceleft" format="1">
  <advance width="204"/>
  <unicode hex="007B"/>
  <outline>
    <contour>
      <point x="169" y="-80" type="curve"/>
      <point x="170" y="-78"/>
      <point x="171" y="-75"/>
      <point x="171" y="-72" type="curve" smooth="yes"/>
      <point x="171" y="-67"/>
      <point x="170" y="-64"/>
      <point x="168" y="-62" type="curve"/>
      <point x="141" y="-60"/>
      <point x="102" y="-43"/>
      <point x="102" y="-1" type="curve" smooth="yes"/>
      <point x="102" y="50"/>
      <point x="134" y="85"/>
      <point x="134" y="124" type="curve" smooth="yes"/>
      <point x="134" y="162"/>
      <point x="111" y="191"/>
      <point x="72" y="195" type="curve"/>
      <point x="111" y="198"/>
      <point x="134" y="226"/>
      <point x="134" y="264" type="curve" smooth="yes"/>
      <point x="134" y="303"/>
      <point x="102" y="338"/>
      <point x="102" y="389" type="curve" smooth="yes"/>
      <point x="102" y="431"/>
      <point x="141" y="448"/>
      <point x="168" y="450" type="curve"/>
      <point x="170" y="452"/>
      <point x="171" y="455"/>
      <point x="171" y="460" type="curve" smooth="yes"/>
      <point x="171" y="463"/>
      <point x="170" y="467"/>
      <point x="169" y="468" type="curve"/>
      <point x="106" y="463"/>
      <point x="65" y="425"/>
      <point x="65" y="372" type="curve" smooth="yes"/>
      <point x="65" y="323"/>
      <point x="98" y="277"/>
      <point x="98" y="251" type="curve" smooth="yes"/>
      <point x="98" y="216"/>
      <point x="75" y="205"/>
      <point x="39" y="204" type="curve"/>
      <point x="38" y="201"/>
      <point x="37" y="197"/>
      <point x="37" y="194" type="curve" smooth="yes"/>
      <point x="37" y="191"/>
      <point x="38" y="188"/>
      <point x="39" y="184" type="curve"/>
      <point x="75" y="184"/>
      <point x="98" y="172"/>
      <point x="98" y="138" type="curve" smooth="yes"/>
      <point x="98" y="111"/>
      <point x="65" y="65"/>
      <point x="65" y="16" type="curve" smooth="yes"/>
      <point x="65" y="-37"/>
      <point x="106" y="-74"/>
    </contour>
  </outline>
</glyph>
<glyph name="bar" format="1">
  <advance width="187"/>
  <unicode hex="007C"/>
  <outline>
    <contour>
      <point x="73" y="-72" type="line"/>
      <point x="114" y="-72" type="line"/>
      <point x="114" y="480" type="line"/>
      <point x="73" y="480" type="line"/>
    </contour>
  </outline>
</glyph>
<glyph name="braceright" format="1">
  <advance width="204"/>
  <unicode hex="007D"/>
  <outline>
    <contour>
      <point x="35" y="-80" type="curve"/>
      <point x="98" y="-74"/>
      <point x="139" y="-37"/>
      <point x="139" y="16" type="curve" smooth="yes"/>
      <point x="139" y="65"/>
      <point x="106" y="111"/>
      <point x="106" y="138" type="curve" smooth="yes"/>
      <point x="106" y="172"/>
      <point x="129" y="184"/>
      <point x="165" y="184" type="curve"/>
      <point x="166" y="188"/>
      <point x="166" y="191"/>
      <point x="166" y="194" type="curve" smooth="yes"/>
      <point x="166" y="197"/>
      <point x="166" y="201"/>
      <point x="165" y="204" type="curve"/>
      <point x="129" y="205"/>
      <point x="106" y="216"/>
      <point x="106" y="251" type="curve" smooth="yes"/>
      <point x="106" y="277"/>
      <point x="139" y="323"/>
      <point x="139" y="372" type="curve" smooth="yes"/>
      <point x="139" y="425"/>
      <point x="98" y="463"/>
      <point x="35" y="468" type="curve"/>
      <point x="33" y="467"/>
      <point x="33" y="463"/>
      <point x="33" y="460" type="curve" smooth="yes"/>
      <point x="33" y="455"/>
      <point x="33" y="452"/>
      <point x="35" y="450" type="curve"/>
      <point x="63" y="448"/>
      <point x="101" y="431"/>
      <point x="101" y="389" type="curve" smooth="yes"/>
      <point x="101" y="338"/>
      <point x="70" y="303"/>
      <point x="70" y="264" type="curve" smooth="yes"/>
      <point x="70" y="226"/>
      <point x="93" y="198"/>
      <point x="131" y="195" type="curve"/>
      <point x="93" y="191"/>
      <point x="70" y="162"/>
      <point x="70" y="124" type="curve" smooth="yes"/>
      <point x="70" y="85"/>
      <point x="101" y="50"/>
      <point x="101" y="-1" type="curve" smooth="yes"/>
      <point x="101" y="-43"/>
      <point x="63" y="-60"/>
      <point x="35" y="-62" type="curve"/>
      <point x="33" y="-64"/>
      <point x="33" y="-67"/>
      <point x="33" y="-72" type="curve" smooth="yes"/>
      <point x="33" y="-75"/>
      <point x="33" y="-78"/>
    </contour>
  </outline>
</glyph>
<glyph name="asciitilde" format="1">
  <advance width="367"/>
  <unicode hex="007E"/>
  <outline>
    <contour>
      <point x="248" y="121" type="curve" smooth="yes"/>
      <point x="283" y="121"/>
      <point x="319" y="142"/>
      <point x="336" y="173" type="curve"/>
      <point x="324" y="185" type="line"/>
      <point x="306" y="166"/>
      <point x="284" y="154"/>
      <point x="257" y="154" type="curve" smooth="yes"/>
      <point x="210" y="154"/>
      <point x="171" y="188"/>
      <point x="119" y="188" type="curve" smooth="yes"/>
      <point x="84" y="188"/>
      <point x="48" y="167"/>
      <point x="31" y="136" type="curve"/>
      <point x="43" y="124" type="line"/>
      <point x="61" y="143"/>
      <point x="83" y="155"/>
      <point x="110" y="155" type="curve" smooth="yes"/>
      <point x="157" y="155"/>
      <point x="197" y="121"/>
    </contour>
  </outline>
</glyph>
<glyph name="exclamdown" format="1">
  <advance width="144"/>
  <unicode hex="00A1"/>
  <outline>
    <contour>
      <point x="72" y="-138" type="curve" smooth="yes"/>
      <point x="88" y="-138"/>
      <point x="103" y="-125"/>
      <point x="103" y="-101" type="curve" smooth="yes"/>
      <point x="103" y="-63"/>
      <point x="89" y="91"/>
      <point x="83" y="154" type="curve"/>
      <point x="81" y="165"/>
      <point x="77" y="170"/>
      <point x="71" y="170" type="curve" smooth="yes"/>
      <point x="65" y="170"/>
      <point x="61" y="165"/>
      <point x="60" y="154" type="curve"/>
      <point x="52" y="91"/>
      <point x="41" y="-63"/>
      <point x="41" y="-101" type="curve" smooth="yes"/>
      <point x="41" y="-125"/>
      <point x="54" y="-138"/>
    </contour>
    <contour>
      <point x="72" y="200" type="curve" smooth="yes"/>
      <point x="93" y="200"/>
      <point x="109" y="217"/>
      <point x="109" y="237" type="curve" smooth="yes"/>
      <point x="109" y="257"/>
      <point x="93" y="274"/>
      <point x="72" y="274" type="curve" smooth="yes"/>
      <point x="51" y="274"/>
      <point x="35" y="257"/>
      <point x="35" y="237" type="curve" smooth="yes"/>
      <point x="35" y="217"/>
      <point x="51" y="200"/>
    </contour>
  </outline>
</glyph>
<glyph name="currency" format="1">
  <advance width="294"/>
  <unicode hex="00A4"/>
  <outline>
    <contour>
      <point x="245" y="63" type="line"/>
      <point x="257" y="66"/>
      <point x="279" y="82"/>
      <point x="273" y="89" type="curve"/>
      <point x="239" y="124" type="line"/>
      <point x="253" y="145"/>
      <point x="260" y="168"/>
      <point x="260" y="193" type="curve" smooth="yes"/>
      <point x="260" y="216"/>
      <point x="254" y="238"/>
      <point x="242" y="258" type="curve"/>
      <point x="279" y="292" type="line"/>
      <point x="276" y="305"/>
      <point x="259" y="327"/>
      <point x="253" y="320" type="curve"/>
      <point x="216" y="286" type="line"/>
      <point x="196" y="303"/>
      <point x="172" y="312"/>
      <point x="146" y="312" type="curve" smooth="yes"/>
      <point x="122" y="312"/>
      <point x="101" y="305"/>
      <point x="82" y="292" type="curve"/>
      <point x="49" y="327" type="line"/>
      <point x="37" y="323"/>
      <point x="15" y="307"/>
      <point x="21" y="301" type="curve" smooth="yes"/>
      <point x="54" y="266" type="line"/>
      <point x="38" y="244"/>
      <point x="30" y="220"/>
      <point x="30" y="193" type="curve" smooth="yes"/>
      <point x="30" y="170"/>
      <point x="36" y="148"/>
      <point x="49" y="129" type="curve"/>
      <point x="15" y="97" type="line"/>
      <point x="18" y="84"/>
      <point x="35" y="63"/>
      <point x="41" y="69" type="curve" smooth="yes"/>
      <point x="74" y="100" type="line"/>
      <point x="95" y="83"/>
      <point x="119" y="75"/>
      <point x="146" y="75" type="curve" smooth="yes"/>
      <point x="170" y="75"/>
      <point x="192" y="83"/>
      <point x="212" y="97" type="curve"/>
    </contour>
    <contour>
      <point x="151" y="96" type="curve" smooth="yes"/>
      <point x="111" y="96"/>
      <point x="78" y="143"/>
      <point x="78" y="201" type="curve" smooth="yes"/>
      <point x="78" y="249"/>
      <point x="104" y="290"/>
      <point x="140" y="290" type="curve" smooth="yes"/>
      <point x="179" y="290"/>
      <point x="213" y="243"/>
      <point x="213" y="184" type="curve" smooth="yes"/>
      <point x="213" y="136"/>
      <point x="187" y="96"/>
    </contour>
  </outline>
</glyph>
